<svg xmlns="http://www.w3.org/2000/svg" xmlns:xlink="http://www.w3.org/1999/xlink" width="1420" height="1420"><style><![CDATA[.B{fill:#fff}.C{stroke-dasharray:10}.D{stroke-width:2}.E{stroke:#dadbdf}]]></style><defs><circle id="A" cx="710" cy="710" r="710"/><mask id="B" x="0" y="0" width="1420" height="1420" class="B"><use xlink:href="#A"/></mask><circle id="C" cx="710" cy="710" r="641"/><mask id="D" x="0" y="0" width="1282" height="1282" class="B"><use xlink:href="#C"/></mask><circle id="E" cx="710" cy="710" r="557"/><mask id="F" x="0" y="0" width="1114" height="1114" class="B"><use xlink:href="#E"/></mask><circle id="G" cx="710" cy="710" r="487"/><mask id="H" x="0" y="0" width="974" height="974" class="B"><use xlink:href="#G"/></mask><circle id="I" cx="710" cy="710" r="408"/><mask id="J" x="0" y="0" width="816" height="816" class="B"><use xlink:href="#I"/></mask><circle id="K" cx="710" cy="710" r="342"/><mask id="L" x="0" y="0" width="684" height="684" class="B"><use xlink:href="#K"/></mask><circle id="M" cx="710" cy="714" r="269"/><mask id="N" x="0" y="0" width="538" height="538" class="B"><use xlink:href="#M"/></mask><circle id="O" cx="710" cy="715" r="192"/><mask id="P" x="0" y="0" width="384" height="384" class="B"><use xlink:href="#O"/></mask><circle id="Q" cx="710" cy="715.5" r="114.5"/><mask id="R" x="0" y="0" width="229" height="229" class="B"><use xlink:href="#Q"/></mask></defs><g fill-rule="evenodd" class="C D"><g class="B"><use stroke="#e6e8ed" mask="url(#B)" xlink:href="#A"/><use mask="url(#D)" xlink:href="#C" class="E"/></g><use mask="url(#F)" fill="#fcfeff" xlink:href="#E" class="E"/><use mask="url(#H)" xlink:href="#G" class="B E"/><use mask="url(#J)" fill="#fcfeff" xlink:href="#I" class="E"/><use mask="url(#L)" xlink:href="#K" class="B E"/><use mask="url(#N)" fill="#fbfdff" xlink:href="#M" class="E"/><use mask="url(#P)" xlink:href="#O" class="B E"/><use mask="url(#R)" fill="#f5faff" xlink:href="#Q" class="E"/></g></svg>