<svg xmlns="http://www.w3.org/2000/svg" 
	xmlns:xlink="http://www.w3.org/1999/xlink" width="253" height="253">
	<defs>
		<circle id="A" cx="57.5" cy="57.5" r="57.5"/>
		<filter x="-105.2%" y="-82.6%" width="310.4%" height="310.4%" id="B">
			<feOffset dy="26" in="SourceAlpha"/>
			<feGaussianBlur stdDeviation="36"/>
			<feColorMatrix values="0 0 0 0 0 0 0 0 0 0 0 0 0 0 0 0 0 0 0.1 0"/>
		</filter>
	</defs>
	<g transform="translate(69 69)" fill="none" fill-rule="evenodd">
		<mask id="C" fill="#fff">
			<use xlink:href="#A"/>
		</mask>
		<g fill-rule="nonzero">
			<use fill="#000" filter="url(#B)" xlink:href="#A"/>
			<use fill="#2e3c54" xlink:href="#A"/>
		</g>
		<path d="M43.523 66.894c1.427 0 2.9.47 3.853 1.142.33.248.13.534.13.534l-.91 1.298c-.102.146-.28.273-.538.114s-1.158-.795-2.532-.795-2.202.633-2.202 1.418c0 .94 1.075 1.237 2.336 1.557 2.195.6 4.6 1.3 4.6 3.986 0 2.38-2.23 3.85-4.698 3.85-1.87 0-3.46-.532-4.795-1.51-.278-.278-.084-.535-.084-.535l.907-1.292a.36.36 0 0 1 .519-.087c1.1.76 2.3 1.13 3.454 1.13 1.1 0 2.235-.568 2.235-1.558 0-1.32-2.475-1.526-4.03-2.054s-2.895-1.618-2.895-3.383c0-2.7 2.413-3.817 4.665-3.817zm-13.956 0c1.596 0 3.187.515 4.196 1.755h0v-.947c.013-.196.176-.354.375-.354h1.647c.2 0 .362.157.373.354h.002v11.656c0 .206-.17.374-.375.374h0-.532c-.91 0-1.433-.832-1.49-1.486h0c-.862 1.136-2.6 1.753-4.196 1.753h0l-.236-.005A6.56 6.56 0 0 1 23 73.447c0-3.62 2.94-6.552 6.567-6.552zm26.837 0c1.596 0 3.187.515 4.196 1.755h0v-.947c.013-.196.176-.354.375-.354h1.647c.2 0 .362.157.373.354h.002v11.656c0 .206-.17.374-.375.374h0-.532c-.91 0-1.433-.832-1.49-1.486h0C59.74 79.382 58 80 56.405 80h0l-.236-.005a6.56 6.56 0 0 1-6.332-6.549c0-3.62 2.94-6.552 6.567-6.552zm30.002 0c1.596 0 3.187.515 4.196 1.755h0v-.947a.38.38 0 0 1 .375-.354h1.647c.2 0 .362.157.372.354H93v11.656c0 .206-.17.374-.375.374h0-.532c-.91 0-1.433-.832-1.49-1.486h0c-.86 1.136-2.6 1.753-4.196 1.753h0l-.236-.005a6.56 6.56 0 0 1-6.332-6.549c0-3.62 2.94-6.552 6.568-6.552zm-14.228.028c3.428 0 5.578 2.294 5.578 5.693h0 0l-.001 6.792c-.004.074-.03.14-.07.198-.016.02-.03.037-.045.052l-.005.005-.048.038c-.007.005-.016.008-.023.012l-.038.02c-.013.005-.027.01-.04.012s-.02.007-.028.008c-.024.005-.048.008-.074.008h0-1.647c-.2 0-.362-.158-.373-.354h0-.002v-1.13l-.002-5.755a3.31 3.31 0 1 0-6.628 0h0v6.885a.39.39 0 0 1-.072.198h0a.38.38 0 0 1-.045.052l-.054.043c-.006.004-.014.007-.02.01l-.042.022c-.012.005-.024.008-.037.012s-.02.007-.032.01c-.024.005-.05.008-.074.008h0-1.647c-.2 0-.362-.158-.373-.354h0-.002V67.75c0-.206.17-.374.375-.374h.533c1.046 0 1.384.667 1.486 1.3.318-.82 1.815-1.755 3.452-1.755zm-42.604 2.265c-2.307 0-4.177 1.907-4.177 4.26s1.87 4.26 4.177 4.26 4.177-1.907 4.177-4.26-1.87-4.26-4.177-4.26zm26.837 0c-2.307 0-4.177 1.907-4.177 4.26s1.87 4.26 4.177 4.26 4.177-1.907 4.177-4.26-1.87-4.26-4.177-4.26zm30.002 0c-2.307 0-4.177 1.907-4.177 4.26s1.87 4.26 4.177 4.26S90.6 75.8 90.6 73.447s-1.87-4.26-4.177-4.26zm-20.915-22.25l.22.004c3.08.116 5.542 2.644 5.542 5.746h0l-.004.22a5.76 5.76 0 0 1-5.759 5.53h0l-.22-.004c-3.08-.116-5.542-2.644-5.542-5.746 0-3.176 2.58-5.75 5.763-5.75h0zm-14.973 0l.22.004c3.08.116 5.542 2.643 5.542 5.746h0l-.004.22a5.76 5.76 0 0 1-5.759 5.529h0l-.22-.004c-3.08-.116-5.542-2.644-5.542-5.746 0-3.176 2.58-5.75 5.763-5.75h0zM58.03 34c3.174.01 5.744 2.58 5.744 5.75h0l-.004.22a5.76 5.76 0 0 1-5.759 5.53h0l-.22-.004c-3.08-.116-5.542-2.644-5.542-5.746h0l.004-.22a5.76 5.76 0 0 1 5.74-5.53h0z" fill="#fff" mask="url(#C)"/>
	</g>
</svg>