<svg xmlns="http://www.w3.org/2000/svg" xmlns:xlink="http://www.w3.org/1999/xlink" width="253" height="253"><defs><circle id="A" cx="57.5" cy="57.5" r="57.5"/><filter x="-105.2%" y="-82.6%" width="310.4%" height="310.4%" id="B"><feOffset dy="26" in="SourceAlpha"/><feGaussianBlur stdDeviation="36"/><feColorMatrix values="0 0 0 0 0 0 0 0 0 0 0 0 0 0 0 0 0 0 0.1 0"/></filter><linearGradient x1="108.63338%" y1="30.1117195%" x2="46.9265964%" y2="65.8174868%" id="C"><stop stop-color="#0052cc" offset="18%"/><stop stop-color="#2684ff" offset="100%"/></linearGradient></defs><g transform="translate(69 69)" fill="none" fill-rule="evenodd"><mask id="D" fill="#fff"><use xlink:href="#A"/></mask><g fill-rule="nonzero"><use fill="#000" filter="url(#B)" xlink:href="#A"/><use fill="#fff" xlink:href="#A"/></g><g mask="url(#D)"><g fill="#253858" fill-rule="nonzero"><path d="M27.407 66.9c2.316 0 3.44 1.14 3.44 2.974 0 1.375-.623 2.212-1.9 2.524 1.677.277 2.506 1.192 2.506 2.8 0 1.815-1.228 3.06-3.767 3.06H23V66.9h4.407zm-2.852 1.487v3.386H27.2c1.47 0 2.074-.674 2.074-1.768s-.656-1.624-2.074-1.624l-2.644.006zm0 4.77v3.535h3.18c1.487 0 2.16-.536 2.16-1.677 0-1.2-.64-1.866-2.194-1.866l-3.146.008zm9.438-6.862a.97.97 0 0 1 1.037 1.037c0 .573-.464 1.037-1.037 1.037s-1.037-.464-1.037-1.037a.97.97 0 0 1 1.037-1.037zm-.76 3.32h1.487v8.642h-1.487v-8.642zm7.163 7.187c.314-.01.627-.05.933-.122v1.434c-.326.093-.663.14-1.002.138-1.85 0-2.75-1.088-2.75-2.697v-4.56h-1.4V69.62h1.4v-1.84h1.444v1.832h2.298v1.375h-2.3v4.537c0 .76.45 1.28 1.375 1.28zm7.06 1.625c-1.26 0-2.23-.57-2.75-1.693v1.52H43.22V66h1.497v5.167c.554-1.14 1.6-1.728 2.92-1.728 2.298 0 3.457 1.952 3.457 4.494-.008 2.437-1.218 4.494-3.637 4.494zm-.226-7.605c-1.336 0-2.514.847-2.514 2.765v.7c0 1.92 1.088 2.765 2.357 2.765 1.677 0 2.54-1.106 2.54-3.1-.016-2.074-.845-3.1-2.384-3.1zm5.4-1.2h1.487v5.226c0 1.556.623 2.247 2.04 2.247 1.375 0 2.333-.915 2.333-2.66v-4.812h1.487v8.642H58.5v-1.418a3.03 3.03 0 0 1-2.73 1.591c-1.988 0-3.13-1.375-3.13-3.75v-5.063zm15.694 8.418c-.52.277-1.314.393-2.1.393-3.076 0-4.517-1.866-4.517-4.517 0-2.6 1.434-4.476 4.517-4.476a4.57 4.57 0 0 1 2.06.424v1.375a4.35 4.35 0 0 0-1.964-.407c-2.247 0-3.162 1.416-3.162 3.093s.933 3.093 3.197 3.093c.668.018 1.334-.087 1.964-.3l.014 1.332zm1.696.224V66h1.487v7.66l3.716-4.044h1.937l-4.064 4.24 4.234 4.397h-2.023L71.514 74.2v4.044zm12.235.173c-3.233 0-4.65-1.866-4.65-4.517 0-2.6 1.45-4.476 4.08-4.476 2.66 0 3.732 1.85 3.732 4.476v.674h-6.3c.208 1.47 1.16 2.42 3.197 2.42a7.66 7.66 0 0 0 2.628-.465v1.375c-.7.377-1.797.515-2.68.515zm-3.162-5.107h4.822c-.086-1.607-.813-2.524-2.298-2.524-1.575-.008-2.37 1-2.524 2.514v.01zm11.51 3.482c.314-.01.627-.05.933-.122v1.434c-.326.093-.663.14-1.002.138-1.85 0-2.75-1.088-2.75-2.697v-4.56h-1.4V69.62h1.4v-1.84h1.45v1.832h2.298v1.375h-2.298v4.537c.002.76.448 1.28 1.367 1.28z"/></g><path d="M44.848 34a.84.84 0 0 0-.645.291c-.162.187-.232.437-.192.68l3.554 21.577a1.14 1.14 0 0 0 1.114.95H65.73a.84.84 0 0 0 .837-.703l3.554-21.82c.04-.244-.03-.493-.192-.68s-.398-.294-.645-.29L44.848 34zm14.967 15.595h-5.442l-1.474-7.7h8.235l-1.32 7.7z" fill="#2684ff" fill-rule="nonzero"/><path d="M68.992 41.896h-7.858l-1.32 7.7h-5.442l-6.426 7.628c.204.176.463.274.733.276h17.056a.84.84 0 0 0 .837-.703l2.42-14.9z" fill="url(#C)" fill-rule="nonzero"/></g></g></svg>