<svg xmlns="http://www.w3.org/2000/svg" xmlns:xlink="http://www.w3.org/1999/xlink" width="253" height="253"><defs><circle id="A" cx="57.5" cy="57.5" r="57.5"/><filter x="-105.2%" y="-82.6%" width="310.4%" height="310.4%" id="B"><feOffset dy="26" in="SourceAlpha"/><feGaussianBlur stdDeviation="36"/><feColorMatrix values="0 0 0 0 0 0 0 0 0 0 0 0 0 0 0 0 0 0 0.1 0"/></filter></defs><g transform="translate(69 69)" fill="none" fill-rule="evenodd"><mask id="C" fill="#fff"><use xlink:href="#A"/></mask><g fill-rule="nonzero"><use fill="#000" filter="url(#B)" xlink:href="#A"/><use fill="#0089d6" xlink:href="#A"/><path d="M27.486 64.612l7.968-1.417-4.06-4.843-4.06-4.866c0-.024 4.193-11.6 4.216-11.643.008-.014 2.86 4.926 6.916 11.974L45.475 66l-25.808-.003 7.82-1.385zm49.486-1.17c-1.964-.126-3.107-1.248-3.41-3.347-.08-.558-.08-.573-.09-4.198l-.008-3.51h1.74l.007 3.394.04 3.633c.118.873.354 1.46.755 1.882.32.337.697.535 1.217.64a4.62 4.62 0 0 0 1.168 0c.527-.116.95-.347 1.323-.72.425-.426.74-1.03.892-1.714l.05-.23.01-6.845h1.775v10.76h-1.757v-.854c0-.58-.006-.852-.02-.847s-.056.073-.1.154c-.303.554-.807 1.06-1.36 1.365-.662.366-1.327.496-2.234.437h0zm19.937-.01c-.693-.052-1.423-.29-2.02-.66-1.258-.78-2.002-2.066-2.22-3.836-.075-.612-.084-1.435-.022-1.955.14-1.163.596-2.304 1.245-3.12a6.37 6.37 0 0 1 .752-.754 4.68 4.68 0 0 1 1.919-.919 6.22 6.22 0 0 1 1.556-.091c1.086.1 2.082.614 2.76 1.42.688.82 1.065 1.966 1.114 3.377a18.98 18.98 0 0 1 .004.862l-.01.46-7.6.01v.17a4.23 4.23 0 0 0 .343 1.611c.187.433.5.906.774 1.135.54.47 1.204.75 1.93.818.27.025.954-.001 1.26-.05.874-.135 1.705-.478 2.376-.983l.168-.123c.02-.012.024.143.024.795v.8l-.18.112c-.76.47-1.63.773-2.55.886a14.6 14.6 0 0 1-1.612.024h0zm3.31-6.83c0-.868-.365-1.833-.88-2.33-.368-.354-.814-.57-1.343-.653a3.96 3.96 0 0 0-1.043.03c-.558.113-1.02.36-1.423.758a3.89 3.89 0 0 0-.942 1.512c-.072.21-.156.552-.182.743l-.012.09h5.826v-.15zM48.6 63.16c.004-.013 1.296-3.417 2.87-7.563l2.863-7.54h1.84l.076.196 5.732 14.922c0 .005-.44.01-.98.01h-.98l-1.585-4.23h-6.382l-.028.072c-.015.04-.354.99-.752 2.116l-.725 2.044h-.98c-.776 0-.98-.005-.973-.024h0zm9.257-5.822a1409.77 1409.77 0 0 0-1.185-3.222c-1.22-3.31-1.288-3.508-1.384-4.04-.045-.25-.068-.256-.095-.03-.02.162-.102.526-.166.728-.032.1-.58 1.61-1.22 3.358l-1.162 3.193c0 .01 1.173.016 2.607.016l2.607-.006zm4.717 5.57v-.276l6.358-8.764-5.757-.02-.01-1.465H71.5v.495l-3.18 4.406-3.18 4.415c0 .005 1.414.01 3.14.01h3.14v1.474h-8.84V62.9zm23.328.263c-.007-.007-.013-2.437-.013-5.4v-5.387h1.738v1.11l.016 1.11a.99.99 0 0 0 .094-.222 3.84 3.84 0 0 1 .971-1.499c.393-.375.843-.6 1.373-.684.15-.024.275-.03.573-.02.374.01.57.037.797.112l.072.023v1.81l-.205-.103c-.363-.182-.72-.254-1.15-.232-.28.015-.464.05-.687.135-.46.173-.834.48-1.095.897a5.22 5.22 0 0 0-.727 2.095c-.014.128-.023 1.172-.026 3.23l-.005 3.04h-.856c-.47 0-.862-.006-.87-.013h0zM12 63.135c0-.007 1.913-3.337 4.252-7.4l4.252-7.388 4.955-4.17L30.43 40c.01-.003-.027.087-.08.2L19.685 63.137l-3.842.005C13.73 63.145 12 63.14 12 63.135h0z" fill="#fbfcfd" mask="url(#C)"/></g></g></svg>