<svg xmlns="http://www.w3.org/2000/svg" 
	xmlns:xlink="http://www.w3.org/1999/xlink" width="253" height="253">
	<style><![CDATA[.B{fill:#fff}.C{fill:#dcd9d8}.D{fill-rule:nonzero}.E{fill:#d33833}.F{fill:#231f20}.G{stroke:#d33833}.H{stroke-width:1.75}]]></style>
	<defs>
		<circle id="A" cx="57.5" cy="57.5" r="57.5"/>
		<filter x="-105.2%" y="-82.6%" width="310.4%" height="310.4%" id="B">
			<feOffset dy="26" in="SourceAlpha"/>
			<feGaussianBlur stdDeviation="36"/>
			<feColorMatrix values="0 0 0 0 0 0 0 0 0 0 0 0 0 0 0 0 0 0 0.1 0"/>
		</filter>
		<path id="C" d="M38.487 32.127a.59.59 0 0 0-.59-.589.59.59 0 0 0-.589.589.59.59 0 0 0 .589.59.59.59 0 0 0 .59-.59"/>
	</defs>
	<g transform="translate(69 69)" fill="none" fill-rule="evenodd">
		<mask id="D" class="B">
			<use xlink:href="#A"/>
		</mask>
		<g class="D">
			<use fill="#000" filter="url(#B)" xlink:href="#A"/>
			<use xlink:href="#A" class="B"/>
		</g>
		<g mask="url(#D)">
			<g transform="matrix(1 0 0 -1 26 97.499999)">
				<path d="M57.134 41.557c0-15.89-12.594-28.773-28.13-28.773S.874 25.666.874 41.557 13.468 70.33 29.004 70.33s28.13-12.882 28.13-28.773" class="E"/>
				<g class="D">
					<path d="M2.02 34.43s-2.036 30.005 25.61 30.863l-1.93 3.215L10.7 63.47l-4.287-4.93-3.75-7.18-2.143-8.36.643-5.572" fill="#ef3d3a"/>
					<path d="M9.737 61.185c-4.935-5.05-8-12.022-8-19.736h0c0-7.712 3.054-14.685 8-19.734h0c4.938-5.05 11.743-8.164 19.266-8.164h0c7.523 0 14.33 3.116 19.266 8.164h0c4.935 5.05 8 12.022 8 19.734h0c0 7.713-3.055 14.686-8 19.736h0c-4.937 5.048-11.743 8.163-19.266 8.164h0c-7.523-.001-14.328-3.116-19.266-8.164h0zm-1.25-40.69C3.243 25.858 0 33.272 0 41.45h0c0 8.18 3.243 15.592 8.488 20.956h0c5.244 5.366 12.503 8.69 20.515 8.7h0c8.012.001 15.272-3.325 20.515-8.7h0c5.246-5.365 8.49-12.778 8.488-20.956h0c.001-8.178-3.243-15.59-8.488-20.955h0c-5.243-5.365-12.503-8.69-20.515-8.69h0c-8.012 0-15.27 3.325-20.515 8.69h0" class="F"/>
				</g>
				<path fill="#f0d6b7" d="M40.845 41.397l-4.287-.643-5.787-.643-3.75-.107-3.643.107-2.786.857-2.465 2.68-1.93 5.465-.43 1.18-2.572.857-1.5 2.465-1.072 3.536 1.18 3.108 2.786.964 2.25-1.072 1.072-2.357 1.286.214.428.536-.428 2.465-.107 3.108.643 4.286-.025 2.448 1.954 3.124 3.43 2.465 6 2.572 6.644-.964 5.787-4.18 2.68-4.286 1.714-3.108.43-7.716-1.286-6.644-2.357-5.894-2.25-3.108"/>
				<path fill="#335061" d="M37.2 22.858l-15.324-.643v-2.572l1.286-9.002-.643-.75-10.716 3.644-.75 1.286-1.072 12.11-2.464 7.287-.536 1.714 8.573 5.894 2.68 1.072 2.357-2.893 2.036-1.822 2.358-.75 1.07-.32 1.286-5.572.964-1.18 2.465.857-1.715-3.322L38.38 23.5l-1.18-.643"/>
				<path fill="#6d6b6d" d="M11.804 60.258l2.786.964 2.25-1.072 1.072-2.357 1.286.214.32 1.286-.643 2.465.643 5.894-.536 3.215 1.93 2.25 4.18 3.322-1.18 1.607-5.894-2.893-2.465-1.93-1.393-3-2.143-2.893-.643-3.43.43-3.643"/>
				<g class="C">
					<path d="M16.197 70.33s1.607 3.965 8.037 5.894.32 1.393.32 1.393l-6.965-2.68-2.68-2.68-1.18-2.143 2.465.214m-3.212-9.32s-2.25 7.502 6.323 8.573l-.32 1.286-5.894-1.393-1.715-5.572.43-3.643 1.18.75"/>
				</g>
				<g fill="#f7e4cd">
					<path d="M16.412 51.042l1.403 1.36s.633-.074.74-.824.428-7.502 5.036-11.145c.42-.332-3.43.536-3.43.536l-3.43 5.358m19.4 6.75s.25 3.248 1.125 2.998.875-1.125.875-1.125-2.124-1.374-2-1.874"/>
					<g class="D">
						<path d="M45.024 64.973s-1.766-.373-1.93-1.93 1.93-.32 2.25-.214m-13.286 2.036s-2.358-.32-2.358-1.822 2.68-1.393 3.43-.75"/>
					</g>
					<path d="M17.483 57.9s-4.072 2.465-4.5.107-1.393-4.072.643-6.537l-1.393.43-1.286 3.322-.428 3.215 2.465 2.572 2.786-.214 1.607-1.286.107-1.607m1.928 6.748s1.822 9.43 11.038 11.252c7.587 1.5 11.573-.32 13.074-2.036 0 0-6.75 8.037-13.18 5.572s-11.145-6.966-11.038-9.86l.107-4.93m24.86 8.148s-3.107.107-3.215-2.68c0 0 0-.43.214-.857 0 0 2.465 2.786 3.965 1.286M30.666 68.97s-.535 4.277-4.18 1.8c-2.358-1.607-2.143-3.858-1.715-4.286s.312-1.292.638-.7.22 2.52 1.398 3.057 3.1 1.135 3.86.14"/>
				</g>
				<g fill="#49728b">
					<path d="M20.6 40.004l-10.073-4.5s4.18-16.6 2.036-21.754l-1.5.536-.107 6.323L8.16 32.6l-1.18 3.322 10.502 7.072 3.108-3m1.037-9.177l1.43-1.744v-6.43H21.34l-.214 5.037c0 .536.214 2.465.214 2.465m.323-8.465l-4.822-.214 1.393-.964 3.43-.536"/>
				</g>
				<g fill="#335061">
					<path d="M38.166 22.75l3.965.107.964-9.86-4.072-.536-.857 10.288"/>
					<path d="M39.237 22.75l6 .32 2.465 6.537c0 .32 2.143 9.002 2.143 9.002l-4.822 5.036-.964.857-2.572-2.572v-9.966l-2.25-9.216"/>
				</g>
				<g fill="#49728b">
					<path d="M41.916 23.5l-3.75-.75.536-3c1.393-.643 3.75 1.072 3.75 1.072m-.428 21.432l7.5-5.572.214 2.572-5.68 5.25-2.036-2.25"/>
				</g>
				<path d="M25.382 1.64l-2.22 9.003-1.103 6.643-.182 4.93 10.042.535h6.247l-.568-11.253.964-8.68-.107-1.607L30.31.567l-4.93 1.072" class="B"/>
				<path d="M36.772 22.858s-.536-11.145 1.072-19.075c0 0-3.215-2.036-7.93-2.572l9.002.32 1.072.643L38.7 19.75l-.32 3.75" class="C"/>
				<path d="M43.278 13.855l4.18 1.18 7.93.43 1.18 3.643-2.143 6.323-2.465.32-3.43-1.072-3.3-1.606-1.747.32-1.36-.535" class="B"/>
				<path d="M43.202 16s2.786 1.286 3.215 1.18l-1.18 5.894 1.393.536.964-6.215 6.537-.32s1.286 2.465.964 5.037l1.18-3.43.107-1.93-1.714-2.572-1.93-.43-3.215.107-1.072 1.393-3.75-.536-1.18-.43" class="C"/>
				<path d="M38.99 23.607l-2.357 6-2.465 3.536s.536 1.5 1.286 1.5h2.465l2.357-.857-.214-3.965-1.072-6.216" class="B D"/>
				<path d="M39.452 25.644s-3 5.786-3 6.644c0 0 .536 1.286 1.286.964s2.358-1.18 2.358-1.18V34.1l-3.644.75-2.465-.32 4.18-9.86.857-.107" class="C"/>
				<path d="M26.346 39.788l-2.97.323-2.786.857v-.964l1.36-1.5 4.286-1.93" class="B D"/>
				<path d="M21.556 39.467s3.322-1.393 4.394-1.072l.107-1.285-3 .642-1.822 1.286.32.43" class="C"/>
				<path d="M43.266 34.28c-1.818.053-3.46.27-4.9.675.098.6-.085 1.168.062 1.593.4.29 1.073.284 1.68.352-.524.258-1.26.36-1.865.21-.014.41-.198.663-.31.983 1.022.365 3.436 2.757 4.793 1.965.647-.377.922-2.53.972-3.575.042-.868-.08-1.744-.432-2.203" class="E"/>
				<path d="M43.266 34.28c-1.818.053-3.46.27-4.9.675.098.6-.085 1.168.062 1.593.4.29 1.073.284 1.68.352-.524.258-1.26.36-1.865.21-.014.41-.198.663-.31.983 1.022.365 3.436 2.757 4.793 1.965.647-.377.922-2.53.972-3.575.042-.868-.08-1.744-.432-2.203z" class="G H"/>
				<path d="M34.57 37.252l-.016-.415c-.568-.373-1.484-.368-2.107-.682.918-.04 1.642-.26 2.267-.573l-.04-1.04c-1.04-.712-1.99-1.773-3.217-2.44-.58-.316-2.612-1.13-3.23-.985-.35.08-.38.514-.52.922-.297.874-.98 2.264-1.04 3.58-.076 1.66-.244 4.444 1.546 4.102 1.444-.276 3.123-.94 4.24-1.55.683-.374 1.078-.835 2.115-.915" class="E"/>
				<path d="M34.57 37.252l-.016-.415c-.568-.373-1.484-.368-2.107-.682.918-.04 1.642-.26 2.267-.573l-.04-1.04c-1.04-.712-1.99-1.773-3.217-2.44-.58-.316-2.612-1.13-3.23-.985-.35.08-.38.514-.52.922-.297.874-.98 2.264-1.04 3.58-.076 1.66-.244 4.444 1.546 4.102 1.444-.276 3.123-.94 4.24-1.55.683-.374 1.078-.835 2.115-.915h0z" class="G H"/>
				<path d="M35.605 35.27c-.16.905-.342 1.163-.27 1.952 2.413 1.61 2.866-2.763.27-1.952" class="E"/>
				<path d="M35.605 35.27c-.16.905-.342 1.163-.27 1.952 2.413 1.61 2.866-2.763.27-1.952z" class="G H"/>
				<g fill="#ef3d3a">
					<path d="M39.098 34.538s-.75 1.072-.214 1.393 1.072 0 1.393.536 0 .857.107 1.5.643.75 1.18.857 2.036.32 2.25-.214l-.643 1.93-1.286.43-4.072-2.357-.214-1.18v-2.357M27.846 31l-.417 5.013c-.227 2.495.6 2.06 2.762 2.06.33 0 2.034-.394 2.156-.643.584-1.194-.977-.928.673-1.83 1.393-.76 3.855.46 3.292 2.15-.315.375-1.642.117-2.117.364l-2.512 1.302c-1.065.553-3.527 1.358-4.663.586-2.877-1.957.182-6.846 1.208-8.888"/>
				</g>
				<g class="F">
					<path d="M30.666 68.97c-2.92.68-4.372-1.222-5.257-3.196-.8.192-.476 1.267-.276 1.814.523 1.438 2.63 3.35 4.35 3.092.74-.112 1.743-.8 1.183-1.7m14.23-3.327l.14-.005c.66-1.37 1.23-2.824 2.064-4.034-.558-1.3-4.224-2.45-4.167-.116.793.347 2.16.07 2.864.513-.406 1.115-.993 2.065-.9 3.642"/>
					<path d="M32.16 65.607c.626-1.148.83-2.354 1.72-3.222.4-.4 1.18-.867.794-1.953-.1-.256-.75-.828-1.13-.94-1.392-.4-4.635-.085-3.536 1.65 1.15-.054 2.698-.747 3.558.088-.66 1.056-1.838 3.145-1.405 4.376M44.375 53.94c-2.095-1.346-4.432-2.8-7.865-2.47-.734.638-1.013 2.057-.3 2.995.37-.638.138-1.8 1.172-1.987 1.948-.333 4.216 1.192 5.617 1.725.87 1.465-.075 2.004-.858 2.947-1.603 1.932-3.752 4.326-3.674 7.218.648.47.704-.717.797-.933.837-1.958 2.943-4.463 4.48-6.14.377-.413 1-.8 1.068-1.082.2-.794-.52-1.745-.435-2.273M16.75 55.356c-.657.375-.813 2.026-1.584 2.073-1.102.067-.9-2.142-.897-3.434-.76.7-.892 2.8-.335 3.898-.635.312-.92-.344-1.27-.575.453 3.3 4.8 1.525 4.086-1.962M45.7 52.57c-.975-1.857-2.355-3.9-5.217-3.96-.058.6-.103 1.512.003 1.873 2.188.2 3.54 1.324 5.214 2.088m-13.714-1.205c1.826-.96 5.18-1.063 7.662-1 .133-.544.13-1.215.135-1.878-3.2-.16-6.96.63-7.797 2.87m-.346-1.782c1.262-3.17 5.6-2.805 9.26-2.717-.16-.412-.5-.898-.944-1.073-1.172-.477-4.406-.84-6.034.025-1.032.55-1.696 1.8-2.26 2.516-.273.35-1.633 1.248-.02 1.25"/>
				</g>
				<path d="M44.222 32.093l-4.656-7.38c.737 2.167 1.052 5.793 1.163 8.557 1.542.72 2.862-.162 3.493-1.176" fill="#81b0c4"/>
				<g class="F">
					<path d="M52.194 22.974c-1.66-.332-2.824-1.944-4.442-1.84.9 1.254 2.447 1.782 4.442 1.84m.732-2.596c-1.352-.143-2.94-.362-4.3-.25.65 1 3.15.65 4.3.25m.468-2.238c-1.52-.033-3.408-.003-4.852.12.854.917 3.867.34 4.852-.12"/>
				</g>
				<path d="M41.364 12.016c.218-1.908.974-3.84.88-5.93-.84-.283-1.323-.53-2.448-.53l-.246 6.184c.554-.037 1.37.395 1.814.277" class="C"/>
				<path d="M38.914 40.137c-.763-.498-1.413-1.12-2.145-1.65-1.625-.08-2.51.113-3.705 1.045.02.075.14.04.144.133 1.74-.775 3.95.316 5.706.473" fill="#f0d6b7"/>
				<path d="M29.784 28.28c.478 2.07 2.35 3.143 4.05 4.283 1.755-2.227 2.822-5.092 3.998-7.856-2.777.837-5.614 2.195-8.048 3.572" fill="#81b0c4"/>
				<path d="M39.55 11.74c-.07-1.693.167-4.408.246-6.184 1.126-.002 1.608.246 2.448.53.095 2.1-.662 4.023-.88 5.93-.445.12-1.26-.313-1.814-.277h0zm-17.525 9.628c.742-6.823 1.817-12.558 3.79-18.6 4.376-1.33 9.65-1.444 13.52-.246-.7 3.4-.4 7.562-.815 11.2-.313 2.735-.153 5.487-.582 8.278-4.687.975-11.31.228-15.9-.632h0zm17.02.6c-.04-2.93.13-5.82.355-8.755 1.125.17 1.89.282 2.934.51-.34 2.825-.298 6.003-.99 8.5-.8-.008-1.503.01-2.3-.258h0zm5.708.472c-.534.122-1.156.005-1.666-.005.24-2.39.822-5.024 1.027-7.532.803-.025 1.232.354 1.892.48.035 2.2-.192 5.233-1.253 7.056h0zm8.643-7.897c1.673.406 2.726 2.456 2.257 4.56-.314 1.415-.873 4.078-1.472 4.983-.442.67-1.642 1.546-2.6.932-1.558-.998-4.302-1.287-5.44-2.495.57-1.897.746-4.502.98-6.905 1.946-.12 4.34.536 5.96-.162-1.13-.366-2.596-.37-3.573-.902.798-.385 2.666-.308 3.884-.012h0zM37.832 24.71c-1.175 2.764-2.243 5.63-3.998 7.856-1.7-1.14-3.573-2.213-4.05-4.283 2.434-1.377 5.27-2.735 8.048-3.572zm2.897 8.56c-.11-2.764-.427-6.39-1.163-8.557 1.758 2.238 3.175 4.844 4.656 7.38-.63 1.014-1.95 1.897-3.493 1.176h0zm-3.284 1.167c-.666.072-1.23-.765-2.097-.403-.198-.22-.38-.457-.58-.67 1.912-2.304 2.78-5.574 4.258-8.282.792 2.6.7 5.45.876 8.29-1.09-.07-1.693.985-2.456 1.066zm-2.112 2.787c-.07-.79.113-1.047.27-1.952 2.594-.81 2.14 3.56-.27 1.952zm-2.877.945c-1.118.61-2.797 1.276-4.24 1.55-1.8.342-1.622-2.44-1.546-4.102.06-1.315.743-2.705 1.04-3.58.14-.408.17-.84.52-.922.616-.144 2.65.67 3.23.985 1.225.668 2.176 1.73 3.217 2.44l.04 1.04c-.626.312-1.35.533-2.267.573.623.313 1.54.31 2.107.682l.016.415c-1.036.08-1.432.54-2.115.915h0zm-10.678 1.94c-.928-.942 2.602-2.226 3.726-2.295-.006.596.34 1.158.27 1.586-1.335.234-3.09.08-3.996.7h0zm11.43-.442c-.005-.092-.124-.06-.144-.133 1.194-.933 2.08-1.126 3.705-1.045.733.532 1.382 1.153 2.145 1.65-1.756-.157-3.967-1.248-5.706-.473h0zm10.49-3.18c-.05 1.046-.325 3.198-.972 3.575-1.358.792-3.77-1.6-4.793-1.965.11-.32.295-.574.31-.983.605.15 1.34.047 1.865-.21-.606-.068-1.278-.063-1.68-.352-.147-.425.036-1.003-.062-1.593 1.438-.406 3.08-.622 4.9-.675.354.46.474 1.335.432 2.203h0zm-23.482 2.712c-.29.208-2.262 2.772-2.532 2.666-3.566-1.406-6.9-3.84-9.88-6.14 2.84-6.097 3.988-13.566 4.19-20.765 3.255-1.522 6.114-3.717 10.53-3.946-.51 3.616-.978 6.842-1.268 10.247-1.1.468-2.702-.02-3.74.145-.01 1.252 1.586.548 1.72 1.4.1.637-.878.685-.56 1.687.812-.295 1.238-.947 2.104-1.192.79 1.73-.01 4.793.103 6.24.022.272.136 1.505.744 1.288.538-.192-.03-3.28.028-4.65.054-1.26-.152-2.482.36-3.274 4.268.58 8.605.956 13.223 1.083-1.016.436-2.223.848-3.546 1.594-.717.404-2.978 1.246-3.185 1.927-.33 1.086.867 1.664 1.07 2.595-2.154-1.175-2.575 1.126-3.084 2.756-.462 1.477-.725 2.58-.838 3.43-1.856.885-3.84 1.78-5.437 2.915h0zm21.597 2.356c2.97 1.44 3.507-5.385 2.342-7.584.18-.656.8-.907 1.052-1.497-1.658-2.97-3.5-5.743-5.192-8.68 1.26.783 3.056.14 4.537.727.54.214.933 1.453 1.343 2.445 1.127 2.728 2.31 6.167 2.838 8.77.12.593.443 1.886.37 2.413-.13.945-1.412 1.646-2.064 2.23-1.202 1.08-1.958 2.03-3.212 3.04-.508-.75-1.6-1.254-2.015-1.865h0zM13.42 67.903c-1.416-1.558-1.12-4.477-.948-6.554 2.56 1.6 5.956-.127 5.924-2.866 1.222.032.456 1.526.235 2.488-.722 3.143 1.217 6.557.088 9.43-2.192-.166-3.993-1.062-5.3-2.5h0zm10.13 9.042c-3.205-.91-7.314-3.238-8.63-6.117 1.02.148 1.728.663 2.734.726.38.025.878-.16 1.315-.05.87.216 1.606 2.17 2.263 2.895.64.7 1.4 1.013 1.937 1.66.338.163.84.152.858.66-.147.157-.3.276-.477.227h0zm16.686-.855c-3.327 1.877-8.96 3.29-12.498 1.525-2.856-1.424-6.716-3.78-8.032-6.765 1.23-2.88-.364-5.52-.466-8.445-.054-1.556.733-2.915.793-4.61-.42-.694-1.706-.78-2.596-.732-.3 1.5-.824 3.183-2.367 3.352-2.184.24-3.78-1.57-3.88-3.457-.117-2.22 1.706-5.902 4.3-5.647.998.1 1.244 1.1 2.33 1.09.6-1.176-.91-1.546-1.064-2.387-.04-.217.124-1.067.22-1.465.47-1.94 1.516-4.45 2.546-5.926 1.307-1.873 3.876-2.155 6.64-2.34.494 1.063 2.312.976 3.496.698-1.42.562-2.74 1.925-3.833 3.132-1.256 1.384-2.53 2.87-2.593 4.68 2.374-3.294 4.336-6.17 8.653-7.62 3.267-1.096 7.082.502 9.592 2.265 1.042.733 1.663 1.895 2.404 2.96 2.77 3.985 4.063 9.673 3.78 15.185-.117 2.274-.112 4.54-.875 6.07-.797 1.6-3.494 3.03-5.072 1.584-.293 1.555 1.313 2.517 3.198 1.958-1.344 1.735-2.755 3.82-4.666 4.898h0zm6.2-51.3c2.6 1.292 7.458 3.48 9.087-.005.6-1.284 1.307-3.455 1.62-4.78.44-1.87-.477-5.8-2.4-6.428-1.698-.554-3.68-.52-5.724-.1-.24.2-.51.55-.696.913-1.46.057-2.827-.078-3.98-.68.11-1.08-.62-1.253-1.306-1.476-.508-2.013 1.016-4.64.65-6.477-.26-1.308-1.87-1.5-3.05-1.754-.04-.727.052-1.333.132-1.948-.27-.996-1.483-1.563-2.632-1.702-3.78-.455-9.52-.66-13.156.65-1.015 2.49-1.814 5.516-2.66 8.358-3.546-.38-6.415 1.53-9.12 2.78-.936.434-2.23.673-2.58 1.418-.34.72-.2 2.104-.284 3.4-.214 3.336-.397 6.554-1.278 9.97-.396 1.533-1.085 2.885-1.566 4.362-.445 1.37-1.22 3.06-1.424 4.426-.3 2.023 1.605 2.136 2.823 3.012 1.883 1.356 3.36 2.105 5.4 3.33.604.362 2.426 1.28 2.633 1.702.412.837-.707 2.018-1.006 2.675-.473 1.038-.72 1.92-.788 2.944-1.71.27-3.008 1.29-3.79 2.437-1.296 1.9-2.195 5.415-1.073 8.09.088.21.526.625.59.948.128.637-.24 1.484-.263 2.16-.118 3.475.588 6.47 2.928 7.518.95 3.784 4.35 5.042 7.552 6.922 1.197.703 2.517 1.152 3.88 1.653 4.89 1.8 12.39 1.46 16.448-1.608 1.72-1.3 4.47-4.05 5.455-6.038 2.598-5.252 2.414-14.03.596-20.42-.244-.858-.6-2.12-1.093-3.15-.345-.72-1.417-2.16-1.287-2.794.134-.657 2.445-2.41 2.94-2.89.892-.86 2.587-2.003 2.724-3.09.148-1.156-.51-2.737-.842-3.852-1.112-3.722-2.198-7.162-3.46-10.48" class="F"/>
				<path d="M29.092 50.555c.14.188.916.473 2.002-.05 0 0-1.286-.214-1.18-2.358l-.536.107s-.554 1.944-.287 2.3" fill="#f7e4cd"/>
				<g fill="#1d1919">
					<use xlink:href="#C"/>
					<use xlink:href="#C" x="0.59" y="-2.732"/>
				</g>
			</g>
		</g>
	</g>
</svg>