<svg xmlns="http://www.w3.org/2000/svg" xmlns:xlink="http://www.w3.org/1999/xlink" width="253" height="253"><defs><circle id="A" cx="57.5" cy="57.5" r="57.5"/><filter x="-105.2%" y="-82.6%" width="310.4%" height="310.4%" id="B"><feOffset dy="26" in="SourceAlpha"/><feGaussianBlur stdDeviation="36"/><feColorMatrix values="0 0 0 0 0 0 0 0 0 0 0 0 0 0 0 0 0 0 0.1 0"/></filter></defs><g transform="translate(69 69)" fill="none" fill-rule="evenodd"><mask id="C" fill="#fff"><use xlink:href="#A"/></mask><g fill-rule="nonzero"><use fill="#000" filter="url(#B)" xlink:href="#A"/><use fill="#fcfdfd" xlink:href="#A"/></g><g mask="url(#C)" fill-rule="nonzero"><path d="M86.36 60.252l-9.583-29.5a1.1 1.1 0 0 0-2.087 0l-6.366 19.6h-21.15l-6.366-19.6a1.1 1.1 0 0 0-2.086 0l-6.356 19.6-3.217 9.9a2.19 2.19 0 0 0 .793 2.448l27.81 20.207L85.554 62.7c.77-.556 1.094-1.544.805-2.448" fill="#fc6d26"/><path fill="#e24329" d="M57.75 82.89h0l10.575-32.54H47.18z"/><path fill="#fc6d26" d="M57.75 82.89L47.172 50.35h-14.8z"/><path d="M32.36 50.36h0l-3.217 9.887a2.19 2.19 0 0 0 .793 2.448l27.814 20.2-25.4-32.545z" fill="#fca326"/><path d="M32.365 50.36h14.82l-6.378-19.598a1.1 1.1 0 0 0-2.087 0L32.365 50.36z" fill="#e24329"/><path fill="#fc6d26" d="M57.75 82.89l10.575-32.54H83.15z"/><path d="M83.138 50.36h0l3.217 9.887c.295.902-.025 1.9-.793 2.448L57.75 82.89l25.388-32.53z" fill="#fca326"/><path d="M83.145 50.36H68.328l6.366-19.598a1.1 1.1 0 0 1 2.086 0l6.366 19.598z" fill="#e24329"/></g></g></svg>