<svg xmlns="http://www.w3.org/2000/svg" 
	xmlns:xlink="http://www.w3.org/1999/xlink" width="253" height="253">
	<style><![CDATA[.B{fill-rule:nonzero}]]></style>
	<defs>
		<circle id="A" cx="57.5" cy="57.5" r="57.5"/>
		<filter x="-105.2%" y="-82.6%" width="310.4%" height="310.4%" id="B">
			<feOffset dy="26" in="SourceAlpha"/>
			<feGaussianBlur stdDeviation="36"/>
			<feColorMatrix values="0 0 0 0 0 0 0 0 0 0 0 0 0 0 0 0 0 0 0.1 0"/>
		</filter>
		<linearGradient x1="67.6800148%" y1="40.3276956%" x2="40.820818%" y2="81.6596195%" id="C">
			<stop stop-color="#0052cc" offset="18%"/>
			<stop stop-color="#2684ff" offset="100%"/>
		</linearGradient>
		<linearGradient x1="32.6559851%" y1="59.1664468%" x2="59.3430302%" y2="17.9899763%" id="D">
			<stop stop-color="#0052cc" offset="18%"/>
			<stop stop-color="#2684ff" offset="100%"/>
		</linearGradient>
		<path id="E" d="M23.684 70.284h1.3v1.372c.452-.92 1.24-1.576 2.76-1.482v1.3c-1.716-.177-2.76.344-2.76 1.996v4.608h-1.3v-7.803z"/>
	</defs>
	<g transform="translate(69 69)" fill="none" fill-rule="evenodd">
		<mask id="F" fill="#fff">
			<use xlink:href="#A"/>
		</mask>
		<g class="B">
			<use fill="#000" filter="url(#B)" xlink:href="#A"/>
			<use fill="#fff" xlink:href="#A"/>
		</g>
		<g mask="url(#F)" class="B">
			<g fill="#253858">
				<path d="M17.04 67.838h1.404v7.124c0 1.887-.826 3.2-2.76 3.2-.572.01-1.142-.08-1.684-.266V76.53c.462.18.954.27 1.45.266 1.186 0 1.595-.7 1.595-1.73l-.004-7.218zm3.962-.548a.88.88 0 0 1 .682.254c.18.18.272.428.254.682 0 .517-.42.936-.936.936a.94.94 0 0 1-.936-.936.88.88 0 0 1 .254-.682c.18-.18.428-.272.682-.254h0zm-.686 2.995h1.342v7.798h-1.342v-7.798z"/>
				<use xlink:href="#E"/>
				<path d="M34.04 76.678c-.5 1.03-1.436 1.56-2.635 1.56-2.074 0-3.12-1.762-3.12-4.055 0-2.2 1.092-4.055 3.275-4.055 1.138 0 2.012.514 2.48 1.528v-1.372h1.342v7.798H34.04v-1.404zM31.762 77c1.202 0 2.277-.764 2.277-2.495v-.63c0-1.73-.982-2.495-2.127-2.495-1.514 0-2.293.998-2.293 2.807.007 1.88.755 2.814 2.144 2.814h-.002zm11.558 1.238c-1.98 0-2.9-.4-3.697-.796v-1.434c.952.5 2.417.858 3.773.858 1.544 0 2.127-.608 2.127-1.514s-.562-1.388-2.5-1.856c-2.304-.562-3.337-1.358-3.337-3.04 0-1.595 1.216-2.775 3.603-2.775 1.482 0 2.433.354 3.135.748v1.404a6.3 6.3 0 0 0-3.2-.78c-1.342 0-2.137.468-2.137 1.404 0 .842.656 1.264 2.463 1.716 2.167.546 3.385 1.24 3.385 3.087-.01 1.778-1.07 2.98-3.614 2.98zm4.787-4.07c0-2.34 1.372-4.04 3.7-4.04s3.68 1.7 3.68 4.04-1.358 4.076-3.68 4.076-3.7-1.737-3.7-4.076zm1.3 0c0 1.482.734 2.823 2.4 2.823s2.37-1.342 2.37-2.823-.718-2.784-2.37-2.784-2.394 1.303-2.394 2.784h-.007zm9.507-3.883h2.012v1.24h-2.012v6.557h-1.3v-6.557h-1.27v-1.24H57.6v-.85c0-1.45.812-2.433 2.48-2.433.306-.002.6.04.904.124v1.24a4.43 4.43 0 0 0-.842-.078c-.826 0-1.24.484-1.24 1.186l.012.812zm6.55 6.488a5.04 5.04 0 0 0 .842-.1v1.294a3.22 3.22 0 0 1-.904.124c-1.67 0-2.48-.982-2.48-2.433v-4.115h-1.27v-1.24h1.264v-1.66h1.3v1.654H66.3v1.24h-2.074v4.094c.007.686.413 1.154 1.24 1.154zm1.217-6.488h1.482l2.245 6.612 2.276-6.612h1.28l2.277 6.612 2.247-6.612h1.482l-2.87 7.798h-1.716l-1.342-3.773-.7-2.4-.7 2.4-1.36 3.773H69.55zm19.415 6.394c-.5 1.03-1.436 1.56-2.635 1.56-2.074 0-3.12-1.762-3.12-4.055 0-2.2 1.092-4.055 3.275-4.055 1.138 0 2.012.514 2.48 1.528v-1.372h1.342v7.798H86.1l-.002-1.404zM83.82 77c1.202 0 2.277-.764 2.277-2.495v-.63c0-1.73-.982-2.495-2.127-2.495-1.506.014-2.292 1.005-2.292 2.814 0 1.872.753 2.807 2.143 2.807h-.002z"/>
				<use xlink:href="#E" x="65.782"/>
				<path d="M98.262 78.238c-2.917 0-4.195-1.684-4.195-4.076 0-2.355 1.3-4.04 3.68-4.04 2.4 0 3.367 1.67 3.367 4.04v.608h-5.69c.188 1.326 1.046 2.183 2.885 2.183a6.91 6.91 0 0 0 2.371-.422v1.24c-.64.346-1.623.466-2.42.466zM95.41 73.63h4.347c-.078-1.45-.734-2.277-2.074-2.277-1.416-.007-2.134.916-2.274 2.268v.01z"/>
			</g>
			<path d="M71.513 42.084L57.43 28 43.346 42.084a1.18 1.18 0 0 0 0 1.67L57.43 57.837l14.084-14.084a1.18 1.18 0 0 0 0-1.67zM57.43 47.33l-4.41-4.41 4.41-4.41 4.41 4.41-4.41 4.41z" fill="#2684ff"/>
			<path d="M57.43 38.508a7.43 7.43 0 0 1-.032-10.472l-9.653 9.65 5.254 5.254 4.43-4.43z" fill="url(#C)"/>
			<path d="M61.852 42.907L57.43 47.33a7.43 7.43 0 0 1 0 10.508h0l9.677-9.677-5.254-5.254z" fill="url(#D)"/>
		</g>
	</g>
</svg>