<svg xmlns="http://www.w3.org/2000/svg" xmlns:xlink="http://www.w3.org/1999/xlink" width="253" height="253"><defs><circle id="A" cx="57.5" cy="57.5" r="57.5"/><filter x="-105.2%" y="-82.6%" width="310.4%" height="310.4%" id="B"><feOffset dy="26" in="SourceAlpha"/><feGaussianBlur stdDeviation="36"/><feColorMatrix values="0 0 0 0 0 0 0 0 0 0 0 0 0 0 0 0 0 0 0.1 0"/></filter></defs><g transform="translate(69 69)" fill="none" fill-rule="evenodd"><mask id="C" fill="#fff"><use xlink:href="#A"/></mask><g fill-rule="nonzero"><use fill="#000" filter="url(#B)" xlink:href="#A"/><use fill="#232f3e" xlink:href="#A"/></g><g mask="url(#C)"><path d="M42.795 56.16c0 .858.093 1.553.255 2.063.185.5.417 1.066.742 1.67.116.185.162.37.162.533 0 .232-.14.464-.44.695l-1.46.974c-.21.14-.417.21-.603.21-.232 0-.464-.116-.695-.325a7.17 7.17 0 0 1-.834-1.089l-.72-1.368c-1.808 2.132-4.08 3.2-6.815 3.2-1.947 0-3.5-.556-4.636-1.67s-1.715-2.596-1.715-4.45c0-1.97.695-3.57 2.11-4.775s3.29-1.808 5.68-1.808c.788 0 1.6.07 2.457.185s1.738.3 2.666.5V49.02c0-1.762-.37-3-1.09-3.71-.742-.72-1.993-1.066-3.778-1.066-.81 0-1.646.093-2.503.3a18.47 18.47 0 0 0-2.503.788 6.65 6.65 0 0 1-.811.301c-.162.046-.278.07-.37.07-.325 0-.487-.232-.487-.72V43.85c0-.37.046-.65.162-.81s.325-.325.65-.487c.81-.417 1.785-.765 2.92-1.043 1.136-.3 2.34-.44 3.616-.44 2.758 0 4.775.626 6.073 1.877C42.1 44.2 42.748 46.1 42.748 48.65v7.5h.046zm-9.41 3.523c.765 0 1.553-.14 2.387-.417s1.576-.788 2.202-1.483c.37-.44.65-.927.788-1.483s.232-1.228.232-2.017v-.974c-.672-.162-1.39-.3-2.132-.394s-1.46-.14-2.18-.14c-1.553 0-2.69.3-3.454.927s-1.136 1.507-1.136 2.666c0 1.09.278 1.9.858 2.457.556.58 1.368.858 2.434.858zm18.613 2.503c-.417 0-.695-.07-.88-.232-.185-.14-.348-.464-.487-.904l-5.447-17.917c-.14-.464-.21-.765-.21-.927 0-.37.185-.58.556-.58H47.8c.44 0 .742.07.904.232.185.14.325.464.464.904l3.894 15.344 3.616-15.344c.116-.464.255-.765.44-.904s.5-.232.927-.232H59.9c.44 0 .742.07.927.232.185.14.348.464.44.904l3.662 15.53 4-15.53c.14-.464.3-.765.464-.904.185-.14.487-.232.904-.232h2.156c.37 0 .58.185.58.58 0 .116-.023.232-.046.37s-.07.325-.162.58l-5.586 17.917c-.14.464-.3.765-.487.904s-.487.232-.88.232h-1.993c-.44 0-.742-.07-.927-.232s-.348-.464-.44-.927L58.927 46.1l-3.57 14.927c-.116.464-.255.765-.44.927s-.5.232-.927.232h-1.993zm29.785.626a15.34 15.34 0 0 1-3.57-.417c-1.16-.278-2.063-.58-2.666-.927-.37-.21-.626-.44-.72-.65s-.14-.44-.14-.65v-1.182c0-.487.185-.72.533-.72.14 0 .278.023.417.07s.348.14.58.232a12.61 12.61 0 0 0 2.55.811 13.92 13.92 0 0 0 2.758.278c1.46 0 2.596-.255 3.384-.765s1.205-1.252 1.205-2.202c0-.65-.21-1.182-.626-1.623s-1.205-.834-2.34-1.205l-3.36-1.043c-1.692-.533-2.944-1.32-3.71-2.364-.765-1.02-1.16-2.156-1.16-3.36 0-.974.21-1.83.626-2.573a5.96 5.96 0 0 1 1.669-1.901c.695-.533 1.483-.927 2.41-1.205s1.9-.394 2.92-.394c.5 0 1.043.023 1.553.093l1.507.255 1.32.37c.417.14.742.278.974.417.325.185.556.37.695.58.14.185.21.44.21.765v1.09c0 .487-.185.742-.533.742-.185 0-.487-.093-.88-.278-1.32-.603-2.805-.904-4.45-.904-1.32 0-2.364.21-3.083.65s-1.09 1.113-1.09 2.063c0 .65.232 1.205.695 1.646s1.32.88 2.55 1.275l3.29 1.043c1.67.533 2.874 1.275 3.593 2.225s1.066 2.04 1.066 3.245c0 .997-.21 1.9-.603 2.69-.417.788-.974 1.483-1.692 2.04-.72.58-1.576.997-2.573 1.298-1.043.325-2.132.487-3.315.487z" fill="#fcfdfd" fill-rule="nonzero"/><g fill="#f90"><path d="M86.162 74.076C78.536 79.708 67.457 82.7 57.93 82.7c-13.35 0-25.38-4.937-34.467-13.142-.72-.65-.07-1.53.788-1.02 9.828 5.702 21.95 9.156 34.5 9.156 8.46 0 17.755-1.762 26.308-5.377 1.275-.58 2.364.834 1.113 1.762zm3.176-3.616c-.974-1.252-6.444-.603-8.924-.3-.742.093-.858-.556-.185-1.043 4.358-3.06 11.52-2.18 12.354-1.16.834 1.043-.232 8.205-4.3 11.636-.626.533-1.228.255-.95-.44.927-2.295 3-7.464 2.017-8.692z"/></g></g></g></svg>