<svg xmlns="http://www.w3.org/2000/svg" xmlns:xlink="http://www.w3.org/1999/xlink" width="253" height="253"><defs><circle id="A" cx="57.5" cy="57.5" r="57.5"/><filter x="-105.2%" y="-82.6%" width="310.4%" height="310.4%" id="B"><feOffset dy="26" in="SourceAlpha"/><feGaussianBlur stdDeviation="36"/><feColorMatrix values="0 0 0 0 0 0 0 0 0 0 0 0 0 0 0 0 0 0 0.1 0"/></filter></defs><g transform="translate(69 69)" fill="none" fill-rule="evenodd"><mask id="C" fill="#fff"><use xlink:href="#A"/></mask><g fill-rule="nonzero"><use fill="#000" filter="url(#B)" xlink:href="#A"/><use fill="#24292e" xlink:href="#A"/><g mask="url(#C)" fill="#fff"><path d="M57.998 29.167c-14.265 0-25.832 11.86-25.832 26.5 0 11.7 7.4 21.628 17.668 25.132 1.292.242 1.763-.576 1.763-1.278l-.035-4.504c-7.185 1.6-8.702-3.55-8.702-3.55-1.175-3.06-2.87-3.873-2.87-3.873-2.345-1.644.178-1.61.178-1.61 2.593.19 3.957 2.73 3.957 2.73 2.304 4.047 6.045 2.878 7.518 2.202.235-1.712.9-2.88 1.64-3.54-5.736-.668-11.767-2.94-11.767-13.09 0-2.89 1.007-5.255 2.66-7.107-.266-.67-1.153-3.363.252-7 0 0 2.17-.712 7.105 2.715 2.06-.59 4.27-.88 6.467-.893 2.193.01 4.404.304 6.467.893 4.932-3.428 7.097-2.715 7.097-2.715 1.4 3.647.523 6.34.257 7 1.656 1.852 2.656 4.216 2.656 7.107 0 10.176-6.04 12.415-11.795 13.07.928.818 1.754 2.434 1.754 4.906l-.032 7.265c0 .71.465 1.533 1.776 1.275 10.256-3.51 17.652-13.43 17.652-25.13 0-14.63-11.567-26.5-25.835-26.5"/></g></g></g></svg>