<svg xmlns="http://www.w3.org/2000/svg" xmlns:xlink="http://www.w3.org/1999/xlink" width="253" height="253"><defs><circle id="A" cx="57.5" cy="57.5" r="57.5"/><filter x="-105.2%" y="-82.6%" width="310.4%" height="310.4%" id="B"><feOffset dy="26" in="SourceAlpha"/><feGaussianBlur stdDeviation="36"/><feColorMatrix values="0 0 0 0 0 0 0 0 0 0 0 0 0 0 0 0 0 0 0.1 0"/></filter><linearGradient x1="99.140087%" y1="65.7068123%" x2="33.8589812%" y2="46.9329228%" id="C"><stop stop-color="#0052cc" offset="18%"/><stop stop-color="#2684ff" offset="100%"/></linearGradient><linearGradient x1="0.92569163%" y1="34.3043893%" x2="66.1800713%" y2="53.0862751%" id="D"><stop stop-color="#0052cc" offset="18%"/><stop stop-color="#2684ff" offset="100%"/></linearGradient><path id="E" d="M44.89 78.243h-1.36V73.47c0-1.423-.57-2.056-1.865-2.056-1.258 0-2.135.837-2.135 2.435v4.395h-1.36v-7.906h1.36v1.297a2.77 2.77 0 0 1 2.498-1.455c1.818 0 2.862 1.258 2.862 3.432v4.632z"/></defs><g transform="translate(69 69)" fill="none" fill-rule="evenodd"><mask id="F" fill="#fff"><use xlink:href="#A"/></mask><g fill-rule="nonzero"><use fill="#000" filter="url(#B)" xlink:href="#A"/><use fill="#fff" xlink:href="#A"/></g><g mask="url(#F)"><g fill="#253858" fill-rule="nonzero"><path d="M28.095 77.78c-.65.428-1.676.616-2.75.616-3.414 0-5.344-2.056-5.344-5.328 0-3.162 1.93-5.376 5.313-5.376 1.012 0 2.023.2 2.767.72v1.376c-.744-.474-1.565-.72-2.767-.72-2.435 0-3.9 1.617-3.9 4s1.502 3.97 3.97 3.97c.936.01 1.86-.208 2.695-.632l.007 1.375zm.995-3.506c0-2.372 1.4-4.095 3.763-4.095s3.732 1.723 3.732 4.095-1.376 4.133-3.732 4.133-3.763-1.76-3.763-4.133zm1.328 0c0 1.502.744 2.862 2.435 2.862s2.404-1.36 2.404-2.862-.72-2.83-2.402-2.83-2.433 1.328-2.433 2.83h-.004z"/><use xlink:href="#E"/><path d="M48.675 70.337h2.04v1.258h-2.04v6.648h-1.328v-6.648h-1.28v-1.258h1.28v-.87c0-1.47.823-2.467 2.516-2.467a3.27 3.27 0 0 1 .916.126v1.258a4.49 4.49 0 0 0-.854-.079c-.837 0-1.258.5-1.258 1.202l.007.83zm5.622 7.963c-1.297 0-2.12-.616-2.12-2.072v-9.186h1.36v9.027c0 .72.474.965 1.06.965a3.47 3.47 0 0 0 .395-.016v1.218a2.87 2.87 0 0 1-.697.063zm1.85-7.963h1.36v4.774c0 1.423.57 2.056 1.865 2.056 1.258 0 2.135-.837 2.135-2.435v-4.395h1.364v7.906H61.5v-1.297a2.77 2.77 0 0 1-2.498 1.455c-1.818 0-2.862-1.258-2.862-3.43l-.004-4.634zM68.7 78.4c-2.958 0-4.253-1.707-4.253-4.133 0-2.388 1.328-4.095 3.732-4.095 2.435 0 3.414 1.693 3.414 4.095v.616h-5.77c.2 1.344 1.06 2.214 2.925 2.214a7.01 7.01 0 0 0 2.404-.428v1.258c-.65.345-1.646.473-2.453.473zm-2.893-4.672h4.4c-.08-1.47-.744-2.3-2.102-2.3-1.44-.01-2.167.924-2.3 2.3v.01z"/><use xlink:href="#E" x="35.038"/><path d="M87.408 78.036c-.474.253-1.202.36-1.93.36-2.814 0-4.133-1.707-4.133-4.133 0-2.388 1.312-4.095 4.133-4.095a4.18 4.18 0 0 1 1.881.379v1.258c-.558-.263-1.17-.393-1.786-.38-2.056 0-2.893 1.297-2.893 2.83s.854 2.848 2.924 2.848a5 5 0 0 0 1.797-.284l.007 1.216zm5.328.364c-2.958 0-4.253-1.707-4.253-4.133 0-2.388 1.328-4.095 3.732-4.095 2.435 0 3.414 1.693 3.414 4.095v.616h-5.772c.2 1.344 1.06 2.214 2.925 2.214a7.01 7.01 0 0 0 2.404-.428v1.258c-.65.345-1.644.473-2.45.473zm-2.893-4.672h4.4c-.08-1.47-.744-2.3-2.102-2.3-1.44-.01-2.167.924-2.3 2.3v.01z"/></g><path d="M44.92 52.64l-.81 1.322a.81.81 0 0 0 .271 1.1l5.256 3.234a.81.81 0 0 0 1.12-.275l.776-1.298c2.082-3.437 4.176-3.016 7.953-1.213l5.21 2.478a.81.81 0 0 0 1.088-.404l2.503-5.66a.81.81 0 0 0-.404-1.059l-5.256-2.5c-7.083-3.44-13.103-3.218-17.708 4.273z" fill="url(#C)" fill-rule="nonzero"/><path d="M68.488 39.794l.81-1.322a.81.81 0 0 0-.271-1.1l-5.256-3.234a.81.81 0 0 0-1.152.267l-.776 1.298c-2.082 3.437-4.176 3.016-7.953 1.213l-5.195-2.466a.81.81 0 0 0-1.088.404l-2.503 5.66a.81.81 0 0 0 .404 1.059l5.256 2.5c7.1 3.437 13.12 3.206 17.724-4.277z" fill="url(#D)" fill-rule="nonzero"/></g></g></svg>