<svg xmlns="http://www.w3.org/2000/svg" xmlns:xlink="http://www.w3.org/1999/xlink" width="253" height="253"><style><![CDATA[.B{fill-rule:nonzero}]]></style><defs><circle id="A" cx="57.5" cy="57.5" r="57.5"/><filter x="-105.2%" y="-82.6%" width="310.4%" height="310.4%" id="B"><feOffset dy="26" in="SourceAlpha"/><feGaussianBlur stdDeviation="36"/><feColorMatrix values="0 0 0 0 0 0 0 0 0 0 0 0 0 0 0 0 0 0 0.1 0"/></filter></defs><g transform="translate(69 69)" fill="none" fill-rule="evenodd"><mask id="C" fill="#fff"><use xlink:href="#A"/></mask><g class="B"><use fill="#000" filter="url(#B)" xlink:href="#A"/><use fill="#4a154b" xlink:href="#A"/></g><g mask="url(#C)" class="B"><g fill="#e01e5a"><path d="M42.663 63.587c0 2.868-2.343 5.2-5.2 5.2s-5.2-2.343-5.2-5.2 2.343-5.2 5.2-5.2h5.2v5.2zm2.627 0c0-2.868 2.343-5.2 5.2-5.2s5.2 2.343 5.2 5.2v13.047c0 2.868-2.343 5.2-5.2 5.2s-5.2-2.343-5.2-5.2V63.587z"/></g><g fill="#36c5f0"><path d="M50.5 42.663c-2.868 0-5.2-2.343-5.2-5.2s2.343-5.2 5.2-5.2 5.2 2.343 5.2 5.2v5.2h-5.2zm0 2.627c2.868 0 5.2 2.343 5.2 5.2s-2.343 5.2-5.2 5.2H37.453c-2.868 0-5.2-2.343-5.2-5.2s2.343-5.2 5.2-5.2H50.5z"/></g><g fill="#2eb67d"><path d="M71.423 50.5c0-2.868 2.343-5.2 5.2-5.2s5.2 2.343 5.2 5.2-2.343 5.2-5.2 5.2h-5.2v-5.2zm-2.626 0c0 2.868-2.343 5.2-5.2 5.2s-5.2-2.343-5.2-5.2V37.453c0-2.868 2.343-5.2 5.2-5.2s5.2 2.343 5.2 5.2V50.5z"/></g><g fill="#ecb22e"><path d="M63.587 71.423c2.868 0 5.2 2.343 5.2 5.2s-2.343 5.2-5.2 5.2-5.2-2.343-5.2-5.2v-5.2h5.2zm0-2.626c-2.868 0-5.2-2.343-5.2-5.2s2.343-5.2 5.2-5.2h13.047c2.868 0 5.2 2.343 5.2 5.2s-2.343 5.2-5.2 5.2H63.587z"/></g></g></g></svg>