<svg xmlns="http://www.w3.org/2000/svg" xmlns:xlink="http://www.w3.org/1999/xlink" width="253" height="253"><defs><circle id="A" cx="57.5" cy="57.5" r="57.5"/><filter x="-105.2%" y="-82.6%" width="310.4%" height="310.4%" id="B"><feOffset dy="26" in="SourceAlpha"/><feGaussianBlur stdDeviation="36"/><feColorMatrix values="0 0 0 0 0 0 0 0 0 0 0 0 0 0 0 0 0 0 0.1 0"/></filter><path id="C" d="M28.687 57.548c-.24.195-.494.377-.758.536l-.88.532c-.552.067-1.032.204-1.06.212-.016.005-.032.01-.046.02-.043.025-.075.066-.09.115l-.897 2.956-4.794 1.066-1.5-1.058-.44-3.56 3.382-.494-.427.557-.82 1.177 1.194-.796c.018-.012.778-.513 2.022-1.12l4.072-.153 1.052.01zm-7.463 4.01c.34-.184.726-.157 1.328-.156h.2l.182-.003c.62-.006 1.137.053 1.128-.922S23.62 58.713 23 58.72s-1.22.804-1.184 1.778c.01.254.047.437.107.57-.54.136-.7.47-.698.49h0z"/><path id="D" d="M36.997 58.356l-.432 3.026-1.523 1.066-4.788-.544-.893-2.942c-.02-.065-.07-.116-.137-.135-.03-.01-.623-.178-1.25-.232l.115-.008c.1-.007 1.75-.2 3.723-.89l5.186.658zm-3.06 2.8c-.006-.023-.137-.415-.714-.346.067-.145.096-.34.075-.608-.076-.972-.642-1.745-1.262-1.724s-1.017.828-.983 1.803.555.967 1.175.945c.833-.016 1.29-.272 1.71-.07h0z"/></defs><g transform="translate(69 69)" fill="none" fill-rule="evenodd"><mask id="E" fill="#fff"><use xlink:href="#A"/></mask><g fill-rule="nonzero"><use fill="#000" filter="url(#B)" xlink:href="#A"/><use fill="#3eaaaf" xlink:href="#A"/></g><g mask="url(#E)"><g fill="#b93346"><path d="M18.903 55.508s-4.496 3.164-4.672 4.37l.337-.07s5.384-3.57 9.65-4.004l.097-.542-5.414.245m7.06-.452l-3.54 2.512.2.154c.144-.116 6.3-1.993 6.3-1.993l1.296-.812c-.87.108-4.236.14-4.236.14"/><path d="M29.038 58.093c2.515 0 6.284-2.463 6.284-2.463l-1.218-.232c-.06.06-1.965-.067-1.965-.067l-.904-.25-2.16 2.46-.176.427c.155-.063.14.124.14.124m-10.616 9.33l-.052-.024-.3-.25.343.275zm18.82-1.474l-.777.22-3.6-.078-2.245-1.746-2.714.68-3.14-.272-1.758 1.92-3.298.985-1.647-.5-.083-.072.74 1.8s1.674 1.795 2.6 2.006 2.624-.015 3.892-.2 2.278-.65 2.685-1.387l.467-.95s1.207 1.704 2.248 1.9 4.133-.86 4.133-.86 1.886-.513 2.217-1.16S38.2 65.45 38.2 65.45l-.947.503z"/></g><path d="M40.293 53.126l-.03-.3-.03-.206a5.91 5.91 0 0 0-.86-.588 11.43 11.43 0 0 0-1.034-.529l-1.078-.463-.55-.214-.554-.206 1.158.25.743.213c-1.75-4.573-5.934-7.552-10.502-7.552s-8.752 2.978-10.5 7.552a15.54 15.54 0 0 1 .742-.213 13.52 13.52 0 0 1 1.158-.251l-.555.206-.55.214c-.364.147-.725.297-1.078.463a11.55 11.55 0 0 0-1.034.529c-.307.176-.6.37-.86.588l-.03.206c-.012.096-.022.193-.03.3-.017.195-.024.4-.026.587a8.56 8.56 0 0 0 .072 1.172c.054.39.125.775.23 1.15a6.23 6.23 0 0 0 .179.55c.034.09.072.177.1.262.02.043.04.084.06.125l.025.047.088.043.174.083.342.157.018-.016-.323-1.23a27.12 27.12 0 0 1 1.738-.378c-.085-.016-.17-.035-.256-.055-.24-.06-.478-.133-.708-.226-.114-.048-.227-.1-.334-.16s-.213-.13-.294-.224c1.16.38 3.56.207 5.692-.013 1.95-.2 3.905-.33 5.87-.335 1.965.004 3.92.134 5.87.335 2.133.22 4.532.392 5.693.013a1.14 1.14 0 0 1-.294.224c-.107.06-.22.113-.334.16-.23.093-.467.166-.708.226-.036.01-.072.016-.107.024 1.16.215 1.833.39 1.905.41l-.31 1.172.186-.083.174-.083.088-.043.024-.047a2.34 2.34 0 0 0 .061-.125 4.55 4.55 0 0 0 .11-.262c.068-.18.127-.363.18-.55.106-.373.177-.76.23-1.15a8.56 8.56 0 0 0 .072-1.172c-.002-.196-.01-.392-.026-.587" fill="#f4eeaa"/><g fill="#e1c8a5"><path d="M28.873 69.4l-.46.054-.297.015h-.035l.277-.627.515.557"/><path d="M29.207 69.73c.477.473 1.07.743 1.72.79a9.49 9.49 0 0 1-2.918.669c-.79.053-1.594-.04-2.38-.256l.172-.027c.065-.008 1.475-.192 2.1-1.137l.06.001.156-.001.303-.013a6.29 6.29 0 0 0 .705-.101l.073.074"/></g><g fill="#5f655d"><path d="M30.56 55.58l-.15.194c-.28.353-.667.805-1.126 1.246l-1.648-.026-2.678.066a21.33 21.33 0 0 1 4.205-1.277l1.398-.203m-7.03.537a10.71 10.71 0 0 0-1.382 1.152l-3.116.406a23.62 23.62 0 0 1 4.498-1.558M38.22 58.6l-.5 3.42-2.342 1.64-6.1-.694-.92-3.028a.2.2 0 0 0-.16-.14 3.76 3.76 0 0 0-.593-.055c-.166 0-.367.02-.595.055-.075.012-.137.067-.16.14l-.897 2.955-6.075 1.352-2.407-1.686-.47-3.84.314-.175.502-.102.447 3.623a.2.2 0 0 0 .085.14l1.656 1.16c.034.023.075.036.115.036a.21.21 0 0 0 .044-.005l4.995-1.1a.23.23 0 0 0 .05-.018.21.21 0 0 0 .1-.12l.9-2.96c.24-.062.86-.206 1.402-.206s1.16.144 1.4.206l.9 2.96a.21.21 0 0 0 .17.14l4.995.567c.048.005.098-.007.137-.035l1.657-1.16c.045-.032.075-.082.083-.137l.443-3.095.828.17m.614-2.146l-.43 1.63c-.88-.194-2.8-.574-5.44-.83.86-.366 1.734-.826 2.533-1.4l3.337.6"/></g><g fill="#e0c59b"><use xlink:href="#C"/><use xlink:href="#D"/></g><g fill="#bfac91"><use xlink:href="#C"/><use xlink:href="#D"/></g><g fill="#e1c8a5"><path d="M39.087 59.687c.073.06.132.217.066.947-.08.894-.457 2.463-.7 2.716-.257.05-.795-.01-1.124-.086l.12-.563.574-.402a.2.2 0 0 0 .084-.136l.4-2.812.57.336m-21.173 3.67l.1.304c-.3.1-.938.178-1.223.128-.236-.238-.676-1.873-.772-2.742-.078-.704-.023-.856.048-.915.083-.07.394-.247.664-.4l.364 2.954c.007.057.037.107.085.14l.745.522m11.607.04l-.022.2s-.662.614-1.727.75-1.903-.517-1.903-.517c.035.114.085.37.326.6a7.65 7.65 0 0 0-.912-.057l-.347.01c-.656.034-1.578 1.026-2.227 2.025l-2.465.757a13.03 13.03 0 0 1-1.657-3.17h.001l-.064-.183.276.193.91.638a.2.2 0 0 0 .115.037.23.23 0 0 0 .044-.004l6.275-1.397a.2.2 0 0 0 .148-.137l.895-2.946c.154-.02.3-.032.407-.032s.252.01.407.032l.92 3.034a.2.2 0 0 0 .169.141l.43.05"/><path d="M36.695 63.236l.203-.142-.108.418c-.282.903-.614 1.7-.983 2.406l-.26.01a9.94 9.94 0 0 1-.898-.054l-1.726-.185-1.754-1.39-.073-.06c-.12-.102-.258-.22-.537-.22-.253 0-.623.092-1.516.362.464-.347.467-.795.467-.795l.022-.19 5.887.67c.048.005.098-.007.138-.035l1.138-.797"/></g><g fill="#e7d193"><path d="M32.362 50.85c.018.524.005 1.473-.24 2.36-.01.034-.008.07 0 .102l-.93-.085c.348-.73.424-1.508.44-1.782a8.16 8.16 0 0 0 .729-.596m-8.88.597c.016.274.092 1.05.44 1.78l-.93.086c.008-.032.01-.066 0-.1-.244-.887-.256-1.837-.24-2.36a7.88 7.88 0 0 0 .73.596"/></g><path d="M31.988 59.73c.175-.004.314-.148.31-.323s-.147-.315-.323-.31-.314.147-.31.323.147.314.323.31zm1.95 1.427c-.418-.202-.875.054-1.71.07-.62.022-1.14.03-1.175-.945s.363-1.78.983-1.803 1.186.75 1.262 1.724c.02.268-.01.463-.075.608.577-.07.708.323.714.346h0z" fill="#292c2d"/><path d="M32.3 59.407c.003.175-.137.32-.31.323s-.32-.137-.323-.31.136-.32.31-.323.32.136.323.31" fill="#eef7f8"/><path d="M23.103 59.965c.175-.004.313-.15.308-.325s-.15-.314-.325-.31-.314.15-.31.325.15.314.326.31zm.958.5c.01.975-.507.916-1.128.922l-.182.003h-.2c-.602-.001-.987-.028-1.328.156.008-.02.158-.356.698-.49-.06-.132-.097-.315-.107-.57-.037-.974.563-1.773 1.184-1.778s1.053.782 1.062 1.756h0z" fill="#292c2d"/><path d="M23.41 59.64c.005.175-.134.32-.308.325s-.32-.133-.326-.31.134-.32.31-.325.32.133.325.31" fill="#eef7f8"/><g fill="#ead698"><path d="M19.155 53.96l-.072-.136-.003-.356.188-2.124 3.26-.8.203 2.74c-.158-.214-.395-.7-.54-1.365-.078-.355-.33-.457-.62-.457-.253 0-.535.077-.755.13-.474.113-1.094.27-1.196.52-.197.48-.293 1.737-.293 1.737l-.17.102m16.83-.001l-.17-.102s-.096-1.256-.293-1.737c-.102-.248-.722-.406-1.196-.52-.22-.053-.503-.13-.756-.13-.3 0-.542.1-.62.457-.146.665-.383 1.15-.54 1.365l.203-2.74 3.26.8.16 1.8-.006.73-.04.078"/></g><g fill="#ead799"><path d="M30.887 53.468l-6.57-.012-.34-.767-.243-1.314-.536-.426-.012-3.06.754-2.23s.124 6.57 1.66 6.57h3.992c1.535 0 1.62-6.572 1.62-6.572l.998 3.684-.726 2.072-.037.584-.256.925-.304.548m6.683 1.17l-.37-.18.37.18m-.372-.182l-1.17-.353.002-.225.06-.114-.054-.615.01-1.37s.316 2.267 1.152 2.676"/></g><path fill="#e9d294" d="M36.028 53.882l.006-.73.054.615-.06.114"/><path d="M17.542 54.64l.372-.182-.372.182m.372-.182c.836-.41 1.152-2.676 1.152-2.676l.013 1.684-.027.3.03.056.002.283-1.17.353" fill="#ead799"/><path fill="#e9d294" d="M19.082 53.824l-.03-.056.027-.3.003.356"/><g fill="#292c2d"><path d="M22.63 53.35l-.014-.036c-.285-1.038-.273-2.127-.247-2.63l-2.964.843c-.2 1.298-.106 2.25-.086 2.427l.74-.185 1.236-.237 1.246-.172.088-.01zm1.3-.125c-.348-.73-.424-1.506-.44-1.78l-.73-.596c-.017.525-.005 1.475.24 2.36.01.034.008.068 0 .1l.93-.086zm8.203-.014c.244-.9.257-1.838.24-2.36a8.16 8.16 0 0 1-.729.596c-.016.274-.092 1.052-.44 1.782l.93.086c-.008-.033-.01-.067 0-.102zm3.67.744c.02-.174.114-1.128-.086-2.427l-2.965-.843c.027.502.038 1.6-.247 2.63l-.015.037.088.01 2.483.4.74.185zm.476.14c.398.13.798.268 1.16.48-.194-.077-.394-.132-.596-.182l-.607-.133-1.226-.2-1.235-.134-1.24-.094-4.97-.13-4.97.13-1.24.094-1.235.133-1.228.192-.608.133a4.7 4.7 0 0 0-.596.182c.362-.212.763-.35 1.162-.48l.102-.03-.006-.026c-.007-.046-.154-1.136.102-2.694.012-.075.066-.135.14-.155l.42-.12c.1-3.27 1.438-4.806 1.48-4.854-1.203 1.935-1.192 4.23-1.17 4.766l2.625-.746.033-.005h.01c.013-.001.028.001.043.004l.008.002.033.01.012.007.026.016.007.005.005.005.008.006.182.175c-.026-.863.015-3.34 1.194-5.4a15.15 15.15 0 0 0-.638 5.872l.322.238c.052.036.084.095.084.157.001.01.023.987.455 1.818.006.012.01.026.015.04l3.223-.103 3.223.105c.004-.014.01-.028.016-.04.43-.83.454-1.808.454-1.818.001-.063.033-.122.085-.157l.32-.238a15.15 15.15 0 0 0-.637-5.872c1.178 2.052 1.22 4.527 1.194 5.4l.182-.175.008-.006.005-.005.007-.005.026-.017.012-.006.034-.012.007-.002a.16.16 0 0 1 .043-.004h.01l.033.005.006.001 2.62.744c.02-.535.032-2.83-1.17-4.766.042.047 1.388 1.585 1.48 4.854l.422.12c.072.02.127.08.14.155.257 1.558.1 2.648.102 2.694l-.006.026.102.03zm-6.113-6.417v-1.414h-5.1v1.414h.696v-.72h1.44v4.367H26.6v.8h2.003v-.8h-.592V46.96h1.44v.72h.696zm-5.612-1.937h6.136v2.46h-1.744v-.72h-.393v3.32h.594v1.857h-3.05V50.8h.6v-3.32h-.392v.72h-1.742v-2.46z"/></g><path fill="#b93346" d="M30.156 46.264v1.414h-.696v-.72h-1.44v4.367h.592v.8H26.6v-.8h.592V46.96h-1.44v.72h-.696v-1.414h5.09"/><path d="M16.435 56.453l1.02-.212-.9.664-.12-.452" fill="#5f655d"/><g fill="#bfac91"><path d="M25.74 63.195s.07.457-.57.653l-5.155 1.338c-.462-.065-1.635-.85-1.635-.85l-.284-1.012 1.736 1.082 5.908-1.213m3.632-.087s-.05.46.597.628l5.208 1.113c.46-.085 1.597-.92 1.597-.92l.24-1.023-1.596.952-6.047-.75"/><path d="M16.105 62.354s.562 1.123 1.47.734l.648.238-.065.475-1.36.173-.367-.216-.324-1.404m23-.31s-.918 1.172-1.825.784l-.292.188.065.475 1.36.173.367-.216.324-1.404M24.9 70.87s3.327 1.678 7.095-.605l-1.2-.083s-2.64 1.045-4.73.467l-1.155.22"/></g><path d="M17.453 56.24l-1.02.212.12.452.9-.664zm.55 7.42l-.1-.304-.746-.522a.2.2 0 0 1-.085-.14l-.363-2.954-.663.39c-.072.06-.126.21-.05.915.096.868.536 2.504.773 2.742.284.05.914-.037 1.223-.128zm4.457-7.83l1.707-.404-2.513.117-1.454.096-.723.064-.205.023c-.63.378-3.052 1.898-4.714 3.885 1.615-1.123 4.43-2.81 7.903-3.782zm-.312 1.438c.47-.466.954-.85 1.382-1.15-1.65.383-3.167.945-4.497 1.557l3.115-.406zm6.33-1.9l-1.002-.01-1.472.016-.906.43-.013.007c-.136.066-1.325.666-2.444 1.737a25 25 0 0 1 4.212-1.75l1.625-.43zm-.55 2.714c.264-.16.517-.342.758-.536l-1.05-.01-4.073.153a19.45 19.45 0 0 0-2.022 1.121l-1.195.797.82-1.177.427-.557-3.382.494.44 3.56 1.5 1.058 4.794-1.066.898-2.957c.015-.05.048-.1.09-.114.014-.01.03-.016.046-.02.028-.007.507-.144 1.06-.212l.88-.532zm.485 11.36l.46-.055-.515-.557-.277.627h.035c.095 0 .2-.01.298-.015zm2.514 1.078a2.69 2.69 0 0 1-1.72-.791l-.073-.074a6.45 6.45 0 0 1-.705.102l-.302.012-.156.002-.06-.002c-.635.945-2.046 1.13-2.1 1.137l-.172.027c.786.216 1.59.31 2.38.256s1.824-.225 2.918-.67zm-.518-14.75l.15-.194-1.397.203c-1.562.292-3.005.78-4.206 1.277l2.68-.066 1.648.025c.46-.44.847-.893 1.126-1.246zm4.316-.134l-.004-.002-1.42-.094-1.975-.097-.227.322c-.358.485-1.07 1.374-1.98 2.128 1.3-.23 3.527-.803 5.462-2.153l.144-.104zm2.172 7.454l-.203.142-1.138.797c-.04.028-.1.04-.138.035l-6.315-.718a.2.2 0 0 1-.169-.141l-.92-3.034c-.154-.02-.29-.032-.406-.032s-.253.01-.407.032l-.895 2.946a.2.2 0 0 1-.148.137l-6.275 1.397c-.015.003-.03.004-.044.004-.04 0-.08-.012-.115-.037l-.228-.16-.683-.478v-.002l-.276-.193.064.183h-.001c.053.158.582 1.68 1.657 3.168l2.464-.756c.648-1 1.57-2 2.227-2.025l.347-.01c.32 0 .628.023.912.057-.24-.22-.29-.477-.326-.6 0 0 .837.654 1.903.518s1.728-.752 1.728-.752-.003.448-.467.795c.893-.27 1.263-.363 1.515-.363.28 0 .417.117.537.22l.073.06 1.754 1.39 1.726.185.898.054.26-.01c.37-.705.702-1.504.984-2.406l.108-.42zm-.333-1.71l.432-3.026c-1.22-.222-3.002-.49-5.186-.658-1.972.68-3.623.882-3.723.89l-.115.008c.63.054 1.22.223 1.25.232.065.02.116.07.136.135l.894 2.942 4.788.544 1.523-1.066zm1.166.637l.49-3.42-.828-.17-.442 3.095c-.008.055-.038.105-.083.136l-1.657 1.16c-.04.028-.09.04-.137.035l-4.995-.568c-.08-.01-.147-.064-.17-.14l-.9-2.962a6.22 6.22 0 0 0-1.401-.206c-.544 0-1.162.144-1.403.206l-.9 2.962a.2.2 0 0 1-.099.119c-.015.008-.032.014-.05.018l-4.995 1.11c-.016.003-.03.005-.044.005-.04 0-.08-.012-.114-.036l-1.657-1.16c-.046-.032-.077-.083-.084-.14l-.447-3.622-.503.102-.314.175.474 3.838 2.408 1.687 6.075-1.35.897-2.954a.2.2 0 0 1 .16-.141c.227-.037.426-.055.595-.055s.366.02.593.055c.076.012.138.067.16.14l.92 3.028 6.11.695 2.342-1.64zm.676-3.935l.43-1.63-3.337-.6c-.8.574-1.673 1.034-2.533 1.4 2.63.256 4.56.637 5.44.83zm.746 2.55c.066-.73.008-.887-.066-.947s-.325-.204-.568-.336l-.402 2.812a.2.2 0 0 1-.084.136l-.575.402-.118.564c.328.076.867.136 1.123.086.233-.253.61-1.822.69-2.717zm1.733-6.94c.02.42.01.843-.037 1.262s-.123.832-.234 1.243l-.203.606-.13.3-.076.148-.04.074-.05.083-.043.066-.067.034-.194.094-.187.085-.38.154-.24.097-.21.793-.185-.046-.01.083.837.492c.3.257.332.663.263 1.422-.035.4-.165 1.148-.344 1.844-.3 1.2-.474 1.34-.687 1.394-.108.028-.274.055-.435.055-.327 0-.773.01-1.073-.063a11.48 11.48 0 0 1-.732 1.873l.063-.03 1.613-.75.815-.354-.417.785-1.453 2.8c-.544 1.09-1.565 1.326-2.177 1.467l-.25.06-2.11.523-.028.006c-.482.298-1.008.563-1.583.782-2.105.797-4.323.752-6.335.013l-1.328.158a6.54 6.54 0 0 1-.72.042c-1.916 0-2.932-.973-3.673-1.926-.794-1.02-1.764-2.535-1.805-2.598l-.562-.878.95.428 2.197 1.01.093-.027c-.644-.918-1.172-1.966-1.545-3.126-.317.096-.806.17-1.186.17-.14 0-.263-.01-.36-.033-.213-.05-.455-.253-.785-1.415-.19-.675-.334-1.41-.376-1.8-.082-.74-.067-1.136.24-1.392.185-.155.81-.483.94-.55l-.028-.228c-1.987 1.167-3.177 2.2-3.2 2.22L12 62.403l1.012-1.596c.8-1.265 1.726-2.287 2.577-3.075l-.103-.043-.188-.085-.194-.094-.067-.034-.043-.066-.05-.083-.042-.074-.075-.148-.13-.3c-.08-.2-.145-.402-.203-.606-.11-.41-.2-.825-.234-1.243s-.058-.84-.037-1.262l.06-.63.052-.313.075-.32.022-.08.058-.046c.33-.26.69-.457 1.052-.63l.912-.378c.86-2.383 2.335-4.496 4.275-5.97C22.74 43.805 25.1 43 27.556 43s4.816.805 6.822 2.327c1.94 1.473 3.417 3.586 4.275 5.968l.912.38c.363.174.72.37 1.052.63l.058.046.022.08.075.32.052.313.06.63zM17.85 51.05l-1.078.464-1.034.53a5.93 5.93 0 0 0-.86.589l-.03.205-.03.3-.026.586c-.004.392.023.784.072 1.172a8.56 8.56 0 0 0 .23 1.149l.18.55.1.263.06.125.025.047.087.043.174.083.342.158.018-.016-.322-1.23c.068-.02.682-.177 1.738-.378l-.257-.055c-.24-.06-.478-.133-.707-.226l-.334-.162c-.107-.06-.213-.13-.294-.224 1.16.38 3.56.207 5.692-.013l5.87-.336c1.965.004 3.92.135 5.87.336 2.134.22 4.533.392 5.693.013-.082.093-.187.162-.294.224a3.28 3.28 0 0 1-.333.162 5.34 5.34 0 0 1-.708.226l-.107.024 1.905.41-.31 1.17.186-.083.175-.083.087-.043.024-.047.06-.125.11-.263c.068-.178.127-.363.18-.55.106-.373.177-.76.23-1.15a8.52 8.52 0 0 0 .073-1.172l-.025-.586-.03-.3-.03-.205c-.26-.22-.553-.412-.86-.59-.332-.194-.68-.367-1.034-.53l-1.078-.464-.55-.213-.554-.205 1.158.25.743.214c-1.75-4.574-5.934-7.552-10.5-7.552s-8.752 2.978-10.5 7.552c.246-.077.494-.15.742-.214a13.64 13.64 0 0 1 1.159-.251l-.555.205c-.183.068-.366.14-.55.213zm10.42 16.73l.23.274a20.58 20.58 0 0 0 1.142 1.236c.416.412.918.62 1.494.62.197 0 .403-.025.612-.076l.62-.15 2.086-.517a5.68 5.68 0 0 1 .278-.068c.568-.13 1.348-.312 1.76-1.14l1.04-2.017a17.61 17.61 0 0 0-.752.364c-.31.162-.713.24-1.236.24a10.71 10.71 0 0 1-.954-.056 92.8 92.8 0 0 1-1.83-.198l-.088-.01-.07-.055c-.01-.007-1.012-.806-1.82-1.442l-.1-.074c-.085-.073-.085-.073-.136-.073-.26 0-1.014.234-2.667.747l-.1.032-.1-.038c-.01-.004-1.096-.406-2.396-.406-.106 0-.212.003-.316.008-.13.007-.86.354-1.795 1.832l-.06.095-.107.034a114.96 114.96 0 0 1-3.329 1.012l-.11.03-.105-.05c-.01-.004-.678-.314-1.313-.606a32.94 32.94 0 0 0 1.179 1.65c.68.877 1.54 1.687 3.183 1.687.206 0 .426-.013.65-.038 1.673-.19 2.104-.265 2.336-.306.078-.013.14-.025.22-.034.013-.002 1.383-.18 1.767-1.04l.48-1.105.14-.373s.017-.097.046-.127v.001l.003.002a.68.68 0 0 1 .109.13h0z" fill="#292c2d"/><g fill="#fffffe"><path d="M48.886 53.737h-3.362v-1.743h8.77v1.743H50.95v9.9h-2.063v-9.9m5.223 1.156h1.7l.142 1.548h.07c.623-1.138 1.548-1.76 2.473-1.76.445 0 .73.053.996.178l-.356 1.78a2.83 2.83 0 0 0-.907-.142c-.694 0-1.53.48-2.063 1.797v5.337H54.1v-8.734m9.053 7.343c.7 0 1.263-.356 1.903-.96v-1.957c-2.366.303-3.148.925-3.148 1.797 0 .783.516 1.12 1.245 1.12zm1.903-4.198c-.018-.925-.4-1.708-1.583-1.708-.872 0-1.7.4-2.455.854l-.747-1.37c.96-.605 2.188-1.138 3.575-1.138 2.188 0 3.255 1.334 3.255 3.77v5.177h-1.67l-.16-.96h-.053c-.783.658-1.672 1.174-2.704 1.174-1.53 0-2.597-1.032-2.597-2.56 0-1.868 1.565-2.846 5.14-3.238h0zm2.63-3.15h2.08l1.387 4.536.73 2.633h.07l.747-2.633 1.387-4.536h1.975l-2.97 8.734H70.74l-3.042-8.734m9.376 8.734h2.046v-8.734h-2.046v8.734zm-.23-11.42c0-.694.534-1.174 1.263-1.174s1.263.48 1.263 1.174c0 .676-.534 1.156-1.263 1.156s-1.263-.48-1.263-1.156h0zm4.408 9.108c.783.605 1.53.978 2.42.978.943 0 1.388-.445 1.388-1.05 0-.73-.943-1.05-1.868-1.405-1.156-.427-2.455-1.085-2.455-2.544 0-1.53 1.227-2.615 3.184-2.615 1.2 0 2.188.498 2.9 1.05l-.943 1.245c-.605-.445-1.227-.747-1.92-.747-.872 0-1.28.4-1.28.96 0 .676.872.96 1.814 1.298C85.684 58.93 87 59.5 87 61.135c0 1.494-1.192 2.704-3.398 2.704-1.192 0-2.455-.516-3.3-1.2l.96-1.316M97.03 51.78c1.423 0 2.58.694 3.3 1.476l-1.14 1.28c-.605-.587-1.263-.96-2.152-.96-1.903 0-3.273 1.6-3.273 4.216 0 2.65 1.263 4.25 3.202 4.25 1.032 0 1.797-.427 2.455-1.156l1.14 1.263c-.943 1.085-2.153 1.7-3.63 1.7-2.953 0-5.283-2.134-5.283-5.995 0-3.807 2.384-6.066 5.372-6.066m4.8 11.84h2.063V51.994h-2.063z"/></g></g></g></svg>