<svg xmlns="http://www.w3.org/2000/svg" xmlns:xlink="http://www.w3.org/1999/xlink" width="253" height="253"><defs><circle id="A" cx="57.5" cy="57.5" r="57.5"/><filter x="-105.2%" y="-82.6%" width="310.4%" height="310.4%" id="B"><feOffset dy="26" in="SourceAlpha"/><feGaussianBlur stdDeviation="36"/><feColorMatrix values="0 0 0 0 0 0 0 0 0 0 0 0 0 0 0 0 0 0 0.1 0"/></filter></defs><g transform="translate(69 69)" fill="none" fill-rule="evenodd"><mask id="C" fill="#fff"><use xlink:href="#A"/></mask><g fill-rule="nonzero"><use fill="#000" filter="url(#B)" xlink:href="#A"/><use fill="#fff" xlink:href="#A"/></g><g mask="url(#C)" fill-rule="nonzero"><path d="M64.658 31.093h1.664l4.743-4.743.233-2.014c-8.827-7.792-22.3-6.95-30.092 1.877-2.165 2.45-3.734 5.37-4.592 8.526.527-.216 1.114-.252 1.664-.098l9.486-1.566s.48-.8.734-.75c4.22-4.635 11.32-5.175 16.194-1.232h-.033z" fill="#ea4335"/><path d="M77.822 34.74a21.35 21.35 0 0 0-6.44-10.383l-6.656 6.656c2.8 2.296 4.412 5.758 4.343 9.388v1.182c3.272 0 5.925 2.653 5.925 5.925s-2.653 5.925-5.925 5.925H57.22l-1.182 1.2v7.108l1.182 1.182h11.85c8.5.066 15.464-6.78 15.53-15.3.04-5.17-2.506-10.003-6.777-12.892z" fill="#4285f4"/><path d="M45.352 62.846h11.85V53.36h-11.85a5.9 5.9 0 0 1-2.447-.534l-1.664.518-4.776 4.743-.416 1.664c2.676 2.024 5.945 3.112 9.302 3.095z" fill="#34a853"/><path d="M45.352 32.076c-8.513.05-15.37 7-15.32 15.503.03 4.753 2.247 9.227 6.017 12.123l6.872-6.872a5.93 5.93 0 0 1-2.961-7.838 5.93 5.93 0 0 1 7.838-2.961 5.94 5.94 0 0 1 2.961 2.961l6.872-6.872c-2.922-3.826-7.468-6.063-12.28-6.043z" fill="#fbbc05"/><g fill="#5f6368"><path d="M24.3 81.476a5.16 5.16 0 0 1-3.74-1.534 4.97 4.97 0 0 1-1.57-3.69 4.98 4.98 0 0 1 1.57-3.69c.982-1.008 2.333-1.573 3.74-1.562 1.34-.018 2.634.502 3.588 1.444L26.9 73.47a3.64 3.64 0 0 0-2.579-1.019 3.6 3.6 0 0 0-2.664 1.132c-.716.7-1.1 1.68-1.094 2.688a3.69 3.69 0 0 0 1.094 2.654 3.81 3.81 0 0 0 5.306.062c.445-.486.717-1.105.776-1.76h-3.402V75.78h4.813a4.68 4.68 0 0 1 .057.883 4.53 4.53 0 0 1-1.242 3.34 4.83 4.83 0 0 1-3.645 1.476zm11.2-.962c-1.342 1.284-3.46 1.284-4.802 0a3.22 3.22 0 0 1-.98-2.405c-.025-.903.33-1.775.98-2.405a3.48 3.48 0 0 1 4.802 0 3.22 3.22 0 0 1 .98 2.405 3.23 3.23 0 0 1-.986 2.405h.006zm-3.742-.945a1.84 1.84 0 0 0 2.596.085l.085-.085a2.02 2.02 0 0 0 .567-1.46 2.02 2.02 0 0 0-.567-1.466 1.87 1.87 0 0 0-2.637-.056l-.056.056a2.02 2.02 0 0 0-.567 1.466c-.015.544.192 1.07.572 1.46h.007zm11.122.945c-1.342 1.284-3.46 1.284-4.802 0a3.22 3.22 0 0 1-.98-2.405c-.025-.903.33-1.775.98-2.405 1.342-1.284 3.46-1.284 4.802 0a3.22 3.22 0 0 1 .98 2.405 3.22 3.22 0 0 1-.981 2.405zm-3.74-.945a1.84 1.84 0 0 0 2.596.085l.085-.085a2.02 2.02 0 0 0 .567-1.46 2.02 2.02 0 0 0-.567-1.466c-.713-.742-1.893-.767-2.636-.056l-.056.056a2.02 2.02 0 0 0-.567 1.466c-.015.544.192 1.07.572 1.46h.006zm8.593 4.93c-.68.02-1.345-.2-1.888-.6a3.47 3.47 0 0 1-1.1-1.392l1.292-.538a2.15 2.15 0 0 0 .64.843c.3.24.675.368 1.06.356a1.7 1.7 0 0 0 1.32-.51c.34-.4.5-.94.47-1.47V80.7h-.05a2.16 2.16 0 0 1-1.774.764 3.08 3.08 0 0 1-2.267-.985c-.634-.625-.984-1.48-.97-2.37a3.29 3.29 0 0 1 .969-2.388 3.12 3.12 0 0 1 2.267-1c.36-.001.717.08 1.043.232.282.123.533.306.737.538h.05v-.538h1.406v6.027a3.51 3.51 0 0 1-.901 2.632c-.62.6-1.45.908-2.307.878zm.103-4.346a1.65 1.65 0 0 0 1.281-.566 2.09 2.09 0 0 0 .515-1.449c.02-.54-.163-1.067-.515-1.477-.32-.37-.8-.577-1.28-.566-.503-.01-.986.196-1.326.566a2.06 2.06 0 0 0-.567 1.466c-.01.54.192 1.06.567 1.45a1.76 1.76 0 0 0 1.326.577zm5.606-8.772v9.892h-1.48V71.38h1.48zm4.06 10.096a3.22 3.22 0 0 1-2.386-.968 3.27 3.27 0 0 1-.958-2.4 3.32 3.32 0 0 1 .924-2.423 3.05 3.05 0 0 1 2.267-.946c.4-.004.774.07 1.133.22a2.67 2.67 0 0 1 .867.566 3.93 3.93 0 0 1 .567.685 4.11 4.11 0 0 1 .335.662l.153.385-4.534 1.862a1.7 1.7 0 0 0 1.632 1.019c.68.002 1.3-.353 1.66-.933l1.133.764A3.72 3.72 0 0 1 59.216 81a3.09 3.09 0 0 1-1.705.474zm-1.893-3.47l3.016-1.25a1.05 1.05 0 0 0-.47-.515 1.54 1.54 0 0 0-.776-.198 1.75 1.75 0 0 0-1.218.538 1.79 1.79 0 0 0-.55 1.426zm12.198 3.37a4.63 4.63 0 0 1-4.707-4.548v-.187a4.63 4.63 0 0 1 4.519-4.735l.187-.001a4.19 4.19 0 0 1 3.33 1.482l-.8.786c-.607-.764-1.542-1.192-2.516-1.152a3.44 3.44 0 0 0-2.5 1 3.51 3.51 0 0 0-1.017 2.618 3.51 3.51 0 0 0 1.017 2.618 3.43 3.43 0 0 0 2.499.999 3.57 3.57 0 0 0 2.808-1.314l.8.8a4.42 4.42 0 0 1-1.555 1.185 4.76 4.76 0 0 1-2.067.44zm5.796-.202H72.45v-9.072h1.163zm1.9-5.46a3.25 3.25 0 0 1 4.583 0 3.29 3.29 0 0 1 .899 2.359 3.29 3.29 0 0 1-.899 2.359 3.25 3.25 0 0 1-4.583 0 3.29 3.29 0 0 1-.899-2.359 3.28 3.28 0 0 1 .9-2.36zm.864 4a1.96 1.96 0 0 0 2.771.076l.076-.076a2.25 2.25 0 0 0 .601-1.628 2.24 2.24 0 0 0-.601-1.628 1.96 1.96 0 0 0-2.771-.076l-.076.076a2.25 2.25 0 0 0-.601 1.628c-.023.6.196 1.185.607 1.623l-.006.006zm11.06 1.47h-1.123v-.86h-.033c-.2.326-.483.594-.82.775a2.29 2.29 0 0 1-1.152.308c-.665.045-1.314-.216-1.763-.708a2.81 2.81 0 0 1-.601-1.898v-3.82h1.163v3.606c0 1.157.5 1.736 1.533 1.736a1.43 1.43 0 0 0 1.18-.562 2.11 2.11 0 0 0 .455-1.342v-3.438h1.163l-.001 6.2zm3.95.202a2.73 2.73 0 0 1-2.078-.95 3.37 3.37 0 0 1-.871-2.354 3.37 3.37 0 0 1 .871-2.354 2.73 2.73 0 0 1 2.078-.95 2.64 2.64 0 0 1 1.269.303 2.14 2.14 0 0 1 .842.758h.05l-.05-.86V72.1h1.163v9.072h-1.123v-.86h-.05a2.14 2.14 0 0 1-.842.758c-.387.203-.82.308-1.258.303zm.2-1.06a1.85 1.85 0 0 0 1.398-.607c.395-.45.597-1.037.562-1.635a2.28 2.28 0 0 0-.562-1.635 1.9 1.9 0 0 0-2.682-.126l-.126.126a2.25 2.25 0 0 0-.562 1.628 2.25 2.25 0 0 0 .562 1.628 1.85 1.85 0 0 0 1.409.62z"/></g></g></g></svg>