<svg xmlns="http://www.w3.org/2000/svg" width="43" height="43" fill-rule="nonzero"><circle fill="#3e29df" cx="21.5" cy="21.5" r="21.5"/><g fill="#fff"><path d="M31.056 11.945v14.95c0 2.584-4.3 5.02-9.236 6.457h0l-.32.092-.285-.082-.676-.204c-4.66-1.456-8.594-3.79-8.594-6.263h0v-14.95h19.11z"/><path d="M21.472 31.048l.03.01.03-.01c2.76-.826 7.138-2.83 7.138-4.696V14.334H14.334V26.35c0 1.866 4.378 3.87 7.138 4.697z"/></g><path d="M21.5 17.47a2.09 2.09 0 0 1 2.09 2.09c0 .54-.205 1.032-.54 1.402l.54 4.868H19.4l.54-4.868c-.336-.37-.54-.863-.54-1.402a2.09 2.09 0 0 1 2.09-2.09z" fill="#6c5ce7"/></svg>