<svg xmlns="http://www.w3.org/2000/svg" xmlns:xlink="http://www.w3.org/1999/xlink" width="43" height="43"><defs><path d="M18.018 5.482a1.7 1.7 0 0 1 2.369-.048 1.62 1.62 0 0 1 .049 2.321L10 18.407a1.7 1.7 0 0 1-2.364.052l-4.13-3.853a1.62 1.62 0 0 1-.058-2.321 1.7 1.7 0 0 1 2.369-.057l2.92 2.725 9.28-9.473z" id="A"/></defs><g fill="none" fill-rule="evenodd"><circle fill="#3e29df" fill-rule="nonzero" cx="21.5" cy="21.5" r="21.5"/><g transform="translate(9.556 7.167)"><path d="M11.944 2.39a11.89 11.89 0 0 1 6.189 1.727L16.42 5.89c-1.335-.71-2.86-1.11-4.476-1.11a9.56 9.56 0 0 0-9.556 9.556 9.56 9.56 0 0 0 9.556 9.556 9.56 9.56 0 0 0 9.556-9.556c0-.524-.042-1.04-.123-1.54l1.967-2.037a11.94 11.94 0 0 1 .545 3.577c0 6.597-5.348 11.944-11.944 11.944S0 20.93 0 14.333 5.348 2.39 11.944 2.39z" fill="#fff" fill-rule="nonzero"/><use fill="#fff" fill-rule="nonzero" xlink:href="#A" transform="translate(2.389)"/></g></g></svg>