<?xml version="1.0" encoding="UTF-8"?>
<svg version="1.1" width="116" height="125" 
	xmlns="http://www.w3.org/2000/svg" 
	xmlns:xlink="http://www.w3.org/1999/xlink">
	<title>character-6</title>
	<desc>Created with Sketch.</desc>
	<defs>
		<polygon id="ay" points="8.1767e-5 0.060732 64.698 0.060732 64.698 64.771 8.1767e-5 64.771"/>
		<path id="an" d="m32.349 0.060712c-17.866 0-32.349 14.486-32.349 32.355s14.483 32.355 32.349 32.355c17.866 0 32.349-14.486 32.349-32.355"/>
		<path id="ac" d="m32.349 0.060712c-17.866 0-32.349 14.486-32.349 32.355s14.483 32.355 32.349 32.355c17.866 0 32.349-14.486 32.349-32.355"/>
		<path id="r" d="m32.349 0.060712c-17.866 0-32.349 14.486-32.349 32.355s14.483 32.355 32.349 32.355c17.866 0 32.349-14.486 32.349-32.355"/>
		<path id="g" d="m32.349 0.060712c-17.866 0-32.349 14.486-32.349 32.355s14.483 32.355 32.349 32.355c17.866 0 32.349-14.486 32.349-32.355"/>
		<path id="ax" d="m32.349 0.060712c-17.866 0-32.349 14.486-32.349 32.355s14.483 32.355 32.349 32.355c17.866 0 32.349-14.486 32.349-32.355"/>
		<path id="aw" d="m32.349 0.060712c-17.866 0-32.349 14.486-32.349 32.355s14.483 32.355 32.349 32.355c17.866 0 32.349-14.486 32.349-32.355"/>
		<path id="av" d="m32.349 0.060712c-17.866 0-32.349 14.486-32.349 32.355s14.483 32.355 32.349 32.355c17.866 0 32.349-14.486 32.349-32.355"/>
		<path id="au" d="m32.349 0.060712c-17.866 0-32.349 14.486-32.349 32.355s14.483 32.355 32.349 32.355c17.866 0 32.349-14.486 32.349-32.355"/>
		<path id="at" d="m32.349 0.060712c-17.866 0-32.349 14.486-32.349 32.355s14.483 32.355 32.349 32.355c17.866 0 32.349-14.486 32.349-32.355"/>
		<path id="as" d="m32.349 0.060712c-17.866 0-32.349 14.486-32.349 32.355s14.483 32.355 32.349 32.355c17.866 0 32.349-14.486 32.349-32.355"/>
		<path id="ar" d="m32.349 0.060712c-17.866 0-32.349 14.486-32.349 32.355s14.483 32.355 32.349 32.355c17.866 0 32.349-14.486 32.349-32.355"/>
		<path id="aq" d="m32.349 0.060712c-17.866 0-32.349 14.486-32.349 32.355s14.483 32.355 32.349 32.355c17.866 0 32.349-14.486 32.349-32.355"/>
		<path id="ap" d="m32.349 0.060712c-17.866 0-32.349 14.486-32.349 32.355s14.483 32.355 32.349 32.355c17.866 0 32.349-14.486 32.349-32.355"/>
		<path id="ao" d="m32.349 0.060712c-17.866 0-32.349 14.486-32.349 32.355s14.483 32.355 32.349 32.355c17.866 0 32.349-14.486 32.349-32.355"/>
		<path id="am" d="m32.349 0.060712c-17.866 0-32.349 14.486-32.349 32.355s14.483 32.355 32.349 32.355c17.866 0 32.349-14.486 32.349-32.355"/>
		<path id="al" d="m32.349 0.060712c-17.866 0-32.349 14.486-32.349 32.355s14.483 32.355 32.349 32.355c17.866 0 32.349-14.486 32.349-32.355"/>
		<path id="ak" d="m32.349 0.060712c-17.866 0-32.349 14.486-32.349 32.355s14.483 32.355 32.349 32.355c17.866 0 32.349-14.486 32.349-32.355"/>
		<path id="aj" d="m32.349 0.060712c-17.866 0-32.349 14.486-32.349 32.355s14.483 32.355 32.349 32.355c17.866 0 32.349-14.486 32.349-32.355"/>
		<path id="ai" d="m32.349 0.060712c-17.866 0-32.349 14.486-32.349 32.355s14.483 32.355 32.349 32.355c17.866 0 32.349-14.486 32.349-32.355"/>
		<path id="ah" d="m32.349 0.060712c-17.866 0-32.349 14.486-32.349 32.355s14.483 32.355 32.349 32.355c17.866 0 32.349-14.486 32.349-32.355"/>
		<path id="ag" d="m32.349 0.060712c-17.866 0-32.349 14.486-32.349 32.355s14.483 32.355 32.349 32.355c17.866 0 32.349-14.486 32.349-32.355s-14.483-32.355-32.349-32.355z"/>
		<path id="af" d="m32.349 0.060712c-17.866 0-32.349 14.486-32.349 32.355s14.483 32.355 32.349 32.355c17.866 0 32.349-14.486 32.349-32.355"/>
		<path id="ae" d="m32.349 0.060712c-17.866 0-32.349 14.486-32.349 32.355s14.483 32.355 32.349 32.355c17.866 0 32.349-14.486 32.349-32.355s-14.483-32.355-32.349-32.355z"/>
		<path id="ad" d="m32.349 0.060712c-17.866 0-32.349 14.486-32.349 32.355s14.483 32.355 32.349 32.355c17.866 0 32.349-14.486 32.349-32.355s-14.483-32.355-32.349-32.355z"/>
		<path id="ab" d="m32.349 0.060712c-17.866 0-32.349 14.486-32.349 32.355s14.483 32.355 32.349 32.355c17.866 0 32.349-14.486 32.349-32.355"/>
		<path id="aa" d="m32.349 0.060712c-17.866 0-32.349 14.486-32.349 32.355s14.483 32.355 32.349 32.355c17.866 0 32.349-14.486 32.349-32.355"/>
		<path id="z" d="m32.349 0.060712c-17.866 0-32.349 14.486-32.349 32.355s14.483 32.355 32.349 32.355c17.866 0 32.349-14.486 32.349-32.355"/>
		<path id="y" d="m32.349 0.060712c-17.866 0-32.349 14.486-32.349 32.355s14.483 32.355 32.349 32.355c17.866 0 32.349-14.486 32.349-32.355"/>
		<path id="x" d="m32.349 0.060712c-17.866 0-32.349 14.486-32.349 32.355s14.483 32.355 32.349 32.355c17.866 0 32.349-14.486 32.349-32.355"/>
		<path id="w" d="m32.349 0.060712c-17.866 0-32.349 14.486-32.349 32.355s14.483 32.355 32.349 32.355c17.866 0 32.349-14.486 32.349-32.355"/>
		<path id="v" d="m32.349 0.060712c-17.866 0-32.349 14.486-32.349 32.355s14.483 32.355 32.349 32.355c17.866 0 32.349-14.486 32.349-32.355"/>
		<path id="u" d="m32.349 0.060712c-17.866 0-32.349 14.486-32.349 32.355s14.483 32.355 32.349 32.355c17.866 0 32.349-14.486 32.349-32.355"/>
		<path id="t" d="m32.349 0.060712c-17.866 0-32.349 14.486-32.349 32.355s14.483 32.355 32.349 32.355c17.866 0 32.349-14.486 32.349-32.355"/>
		<path id="s" d="m32.349 0.060712c-17.866 0-32.349 14.486-32.349 32.355s14.483 32.355 32.349 32.355c17.866 0 32.349-14.486 32.349-32.355"/>
		<path id="q" d="m32.349 0.060712c-17.866 0-32.349 14.486-32.349 32.355s14.483 32.355 32.349 32.355c17.866 0 32.349-14.486 32.349-32.355"/>
		<path id="p" d="m32.349 0.060712c-17.866 0-32.349 14.486-32.349 32.355s14.483 32.355 32.349 32.355c17.866 0 32.349-14.486 32.349-32.355"/>
		<path id="o" d="m32.349 0.060712c-17.866 0-32.349 14.486-32.349 32.355s14.483 32.355 32.349 32.355c17.866 0 32.349-14.486 32.349-32.355"/>
		<path id="n" d="m32.349 0.060712c-17.866 0-32.349 14.486-32.349 32.355s14.483 32.355 32.349 32.355c17.866 0 32.349-14.486 32.349-32.355"/>
		<path id="m" d="m32.349 0.060712c-17.866 0-32.349 14.486-32.349 32.355s14.483 32.355 32.349 32.355c17.866 0 32.349-14.486 32.349-32.355"/>
		<path id="l" d="m32.349 0.060712c-17.866 0-32.349 14.486-32.349 32.355s14.483 32.355 32.349 32.355c17.866 0 32.349-14.486 32.349-32.355"/>
		<path id="k" d="m32.349 0.060712c-17.866 0-32.349 14.486-32.349 32.355s14.483 32.355 32.349 32.355c17.866 0 32.349-14.486 32.349-32.355"/>
		<path id="j" d="m32.349 0.060712c-17.866 0-32.349 14.486-32.349 32.355s14.483 32.355 32.349 32.355c17.866 0 32.349-14.486 32.349-32.355"/>
		<path id="i" d="m32.349 0.060712c-17.866 0-32.349 14.486-32.349 32.355s14.483 32.355 32.349 32.355c17.866 0 32.349-14.486 32.349-32.355"/>
		<path id="h" d="m32.349 0.060712c-17.866 0-32.349 14.486-32.349 32.355s14.483 32.355 32.349 32.355c17.866 0 32.349-14.486 32.349-32.355"/>
		<path id="f" d="m32.349 0.060712c-17.866 0-32.349 14.486-32.349 32.355s14.483 32.355 32.349 32.355c17.866 0 32.349-14.486 32.349-32.355"/>
		<path id="e" d="m32.349 0.060712c-17.866 0-32.349 14.486-32.349 32.355s14.483 32.355 32.349 32.355c17.866 0 32.349-14.486 32.349-32.355"/>
		<path id="d" d="m32.349 0.060712c-17.866 0-32.349 14.486-32.349 32.355s14.483 32.355 32.349 32.355c17.866 0 32.349-14.486 32.349-32.355"/>
		<path id="c" d="m32.349 0.060712c-17.866 0-32.349 14.486-32.349 32.355s14.483 32.355 32.349 32.355c17.866 0 32.349-14.486 32.349-32.355"/>
		<path id="b" d="m32.349 0.060712c-17.866 0-32.349 14.486-32.349 32.355s14.483 32.355 32.349 32.355c17.866 0 32.349-14.486 32.349-32.355"/>
		<path id="a" d="m55.44 0c7.9529 3.1543e-16 14.4 6.4471 14.4 14.4v20.16c0 7.9529-6.4471 14.4-14.4 14.4l-25.471-9.99e-4 -14.849 10.801-9.997e-4 -10.801-0.719 9.99e-4c-7.9529 0-14.4-6.4471-14.4-14.4v-20.16c-9.7395e-16 -7.9529 6.4471-14.4 14.4-14.4h41.04z"/>
		<filter id="cx" x="-45.8%" y="-51.9%" width="191.6%" height="207.1%">
			<feOffset dx="0" dy="1" in="SourceAlpha" result="shadowOffsetOuter1"/>
			<feGaussianBlur in="shadowOffsetOuter1" result="shadowBlurOuter1" stdDeviation="10.5"/>
			<feColorMatrix in="shadowBlurOuter1" values="0 0 0 0 0   0 0 0 0 0   0 0 0 0 0  0 0 0 0.1 0"/>
		</filter>
	</defs>
	<g fill="none" fill-rule="evenodd">
		<g transform="translate(-1328 -6312)">
			<g transform="translate(0 5486)">
				<g transform="translate(489 284)">
					<g transform="translate(839 562)">
						<g transform="translate(0 40)">
							<g transform="translate(0 .1437)">
								<mask id="cq" fill="white">
									<use xlink:href="#ay"/>
								</mask>
								<path d="m64.698 32.416c0 17.869-14.483 32.355-32.349 32.355-17.866 0-32.349-14.486-32.349-32.355s14.483-32.355 32.349-32.355c17.866 0 32.349 14.486 32.349 32.355" fill="#E3E8F3" mask="url(#cq)"/>
							</g>
							<g transform="translate(0 .1437)">
								<mask id="cf" fill="white">
									<use xlink:href="#an"/>
								</mask>
								<path d="m31.879 30.065c-4.9626 0.44624-7.8545 5.2756-8.0374 11.044-0.1574 4.9583 1.1597 4.591 0.9442 8.7887-0.20871 4.0695-4.2445 6.8343-5.1155 10.231-0.72118 2.8136 0.5969 5.4305 1.3379 6.8469-0.4722-0.99694-1.1411-3.6333 0.22302-5.9287 1.724-2.9009 5.8988-6.6106 6.4929-9.8899 1.2592-6.952-2.7809-16.029 4.155-21.092" fill="#4C62A1" mask="url(#cf)"/>
								<mask id="bu" fill="white">
									<use xlink:href="#ac"/>
								</mask>
								<path d="m29.534 33.193c-2.3647 0.2455-4.5646 3.7185-3.8563 7.4765s2.2429 6.2568 2.2429 10.034c0 5.8304-6.1779 8.5323-6.1779 13.359 0 5.4303 6.2435 9.2079 7.024 12.533 0.51697 2.2024 0.2361 4.7416-2.184 5.5877 1.6527-0.019828 6.0795-2.9512 4.8927-8.2267-1.9436-8.638-3.3185-7.3755-2.6102-11.901 1.2042-7.694 4.0924-6.729 3.4912-11.686-0.72977-6.017-4.7112-11.924-2.8224-17.178" fill="#4C62A1" mask="url(#bu)"/>
								<mask id="bj" fill="white">
									<use xlink:href="#r"/>
								</mask>
								<path d="m34.182 44.821c4.2104 2.3414 5.1893 7.2012 4.3236 9.444-0.8655 2.2431-3.6202 4.6826-3.6202 8.3028s3.4628 6.8077 3.4628 10.349c0 3.5417-2.3608 6.2764-5.0957 7.0043 1.5542-1.1609 2.2625-3.3447 1.2198-6.1975-1.0427-2.8528-4.3874-4.4465-4.3874-8.8931 0-4.7811 7.7715-10.664 4.0971-20.01" fill="#4C62A1" mask="url(#bj)"/>
								<mask id="cw" fill="white">
									<use xlink:href="#g"/>
								</mask>
								<path d="m33.6 29.331c-0.35977-1.047-6.9518 1.7839-6.9518 7.7388 0 5.9551 4.9843 8.08 4.9843 14.822 0 5.5354-5.7713 8.4473-5.7713 13.091s6.4949 5.9812 7.0043 12.33c0.35037 4.3669-4.2169 5.1214-5.0237 5.2858 0.787 0.10507 9.6478-0.36713 7.8831-9.2472-0.5415-2.7249-2.8332-4.7482-3.2531-8.8406-0.58606-5.7151 4.6172-8.9982 4.9945-14.462 0.45871-6.6476-5.9651-8.1507-5.9125-12.82 0.052535-4.6695 2.3348-7.0569 2.0462-7.8962" fill="#4C62A1" mask="url(#cw)"/>
								<mask id="cu" fill="white">
									<use xlink:href="#ax"/>
								</mask>
								<path d="m35.738 30.039c-1.085-1.2555-5.2553 0.49837-3.3819 5.0632 1.8735 4.5646 7.6973 9.9686 7.6973 14.035 0 4.066-1.3641 5.4301-1.3641 8.5522 0 4.3678 4.8999 7.3841 5.509 10.205 0.24918 1.1541-0.039452 2.4528-0.99694 3.2003 0.55376 0.082993 2.3089-1.2549 2.02-3.9089-0.38042-3.4957-3.8302-5.7715-3.8302-9.1031 0-4.7482 4.886-6.473 4.7484-10.729-0.1574-4.8592-7.8439-7.5291-9.3655-13.956-0.51145-2.1611-0.44665-2.6758-1.0362-3.3579" fill="#4C62A1" mask="url(#cu)"/>
								<mask id="ct" fill="white">
									<use xlink:href="#aw"/>
								</mask>
								<path d="m33.836 29.772c-5.6795 2.3786-4.3549 8.8974-1.6265 12.544 0.94359 1.2608 4.5147 4.954 4.4598 8.7881-0.066231 4.6172-2.331 6.5873-1.9939 9.6014 0.41987 3.7514 3.9741 6.1895 5.4238 9.3195 1.0818 2.3353 0.94134 4.8997-1.4101 6.368 1.4691 0 4.7192-2.6364 3.5153-7.0828-1.2854-4.7484-4.4939-5.5076-4.0399-8.9718 0.7083-5.4042 5.3328-5.0043 5.1681-10.756-0.20319-7.083-13.13-12.159-9.4966-19.811" fill="#4C62A1" mask="url(#ct)"/>
								<mask id="cs" fill="white">
									<use xlink:href="#av"/>
								</mask>
								<path d="m44.905 48.099c1.1077-0.096484 2.1858 0.55479 2.5838 1.6494l5.6249 15.479c2.7737 7.6319 4.537 15.604 5.2406 23.695l1.4272 16.407c0.12061 1.3855-0.90495 2.6067-2.2907 2.7273-1.3855 0.1204-2.6067-0.90536-2.7271-2.2907l-1.4272-16.407c-0.66558-7.6521-2.3332-15.192-4.9567-22.411l-5.6251-15.479c-0.47506-1.307 0.19971-2.7521 1.507-3.2271 0.21239-0.077065 0.42825-0.12388 0.6433-0.14248" fill="#FF9395" mask="url(#cs)"/>
								<mask id="cr" fill="white">
									<use xlink:href="#au"/>
								</mask>
								<path d="m56.226 70.124c-0.5969-0.25981-0.81991-0.99183-0.46934-1.5401l0.0012265-0.0022486c0.35057-0.54824 0.12796-1.2799-0.46832-1.5399l-0.2083-0.090761c-0.25368-0.11079-0.45237-0.31582-0.55601-0.56971-0.17028-0.49387-0.34444-0.9861-0.5229-1.4771l-5.6245-15.479c-0.53537-1.4704-1.9963-2.4031-3.5534-2.2676-0.30131 0.026165-0.59874 0.092396-0.88471 0.19542-1.7948 0.65311-2.7238 2.6439-2.0716 4.4381l5.6245 15.479c0.082993 0.22833 0.16496 0.45708 0.24591 0.68623h-4.088e-4c0.091579 0.29579 0.049264 0.61652-0.11611 0.87817l-0.12142 0.19236c-0.3473 0.55008-0.12061 1.2803 0.47711 1.537l0.0022486 0.0010221c0.59812 0.25695 0.82482 0.98794 0.4767 1.5382-0.34833 0.55049-0.12122 1.2821 0.47793 1.5384l0.20135 0.086264c0.28537 0.12224 0.50266 0.36325 0.59465 0.65965l6.7241-1.6578 0.0091987-0.002453c-0.015331-0.057032-0.031071-0.11386-0.046402-0.1711-0.03148-0.24489 0.023304-0.4951 0.15863-0.70626l0.11836-0.18438c0.3516-0.54865 0.12878-1.2815-0.46852-1.5415" fill="#A6CBE0" mask="url(#cr)"/>
								<mask id="cp" fill="white">
									<use xlink:href="#at"/>
								</mask>
								<path d="m19.792 48.099c-1.1077-0.096484-2.1858 0.55479-2.5838 1.6494l-5.6249 15.479c-2.7735 7.6319-4.537 15.604-5.2406 23.695l-1.4272 16.407c-0.12061 1.3855 0.90516 2.6067 2.2907 2.7273 1.3855 0.1204 2.6067-0.90536 2.7271-2.2907l1.4272-16.407c0.66558-7.6521 2.3334-15.192 4.9569-22.411l5.6249-15.479c0.47506-1.307-0.19971-2.7521-1.507-3.2271-0.21239-0.077065-0.42825-0.12388-0.6433-0.14248" fill="#FF9395" mask="url(#cp)"/>
								<mask id="co" fill="white">
									<use xlink:href="#as"/>
								</mask>
								<path d="m8.4722 70.124c0.5969-0.25981 0.81991-0.99183 0.46934-1.5401l-0.0012265-0.0022486c-0.35057-0.54824-0.12796-1.2799 0.46832-1.5399l0.2083-0.090761c0.25368-0.11079 0.45237-0.31582 0.55622-0.56971 0.17007-0.49387 0.34424-0.9861 0.52269-1.4771l5.6245-15.479c0.53537-1.4704 1.9963-2.4031 3.5534-2.2676 0.30151 0.026165 0.59874 0.092396 0.88471 0.19542 1.7948 0.65311 2.7238 2.6439 2.0716 4.4381l-5.6245 15.479c-0.082993 0.22833-0.16476 0.45708-0.24591 0.68623h4.089e-4c-0.091579 0.29579-0.04906 0.61652 0.11611 0.87817l0.12122 0.19236c0.34751 0.55008 0.12081 1.2803-0.4769 1.537l-0.0022485 0.0010221c-0.59812 0.25695-0.82462 0.98794-0.4767 1.5382 0.34833 0.55049 0.12122 1.2821-0.47793 1.5384l-0.20155 0.086264c-0.28516 0.12224-0.50246 0.36325-0.59424 0.65965l-6.7243-1.6578-0.0091987-0.002453c0.015331-0.057032 0.030867-0.11386 0.046403-0.1711 0.03148-0.24489-0.023303-0.4951-0.15863-0.70626l-0.11836-0.18438c-0.3516-0.54865-0.12878-1.2815 0.46852-1.5415" fill="#A6CBE0" mask="url(#co)"/>
								<mask id="cn" fill="white">
									<use xlink:href="#ar"/>
								</mask>
								<path d="m38.369 42.05c-0.03659-0.24469-0.21239-0.43929-0.45094-0.50634-0.76002-0.2128-2.6075-0.62224-5.5689-0.62224s-4.8089 0.40945-5.5689 0.62224c-0.23855 0.067049-0.41435 0.26165-0.45094 0.50634-0.13042 0.87347-0.51922 2.9677-1.2825 3.2609l0.88124 0.47057c4.0125 2.1431 8.8298 2.1431 12.842 0l0.88103-0.47057c-0.76309-0.29313-1.1519-2.3874-1.2823-3.2609" fill="#A6CBE0" mask="url(#cn)"/>
								<mask id="cm" fill="white">
									<use xlink:href="#aq"/>
								</mask>
								<path d="m35.815 44.962c0 1.9123-1.5503 3.4628-3.4628 3.4628s-3.4628-1.5505-3.4628-3.4628 1.5503-3.4628 3.4628-3.4628 3.4628 1.5505 3.4628 3.4628" fill="#FF9395" mask="url(#cm)"/>
								<mask id="cl" fill="white">
									<use xlink:href="#ap"/>
								</mask>
								<path d="m32.349 51.982c-2.1877 0-3.961-1.7733-3.961-3.9608v-11.257c0-2.1877 1.7733-3.9616 3.961-3.9616s3.9614 1.7739 3.9614 3.9616v11.257c0 2.1875-1.7737 3.9608-3.9614 3.9608" fill="#FF9395" mask="url(#cl)"/>
								<mask id="ck" fill="white">
									<use xlink:href="#ao"/>
								</mask>
								<path d="m32.349 32.802c-2.1877 0-3.961 1.7739-3.961 3.9616v5.7934c1.2612 0.4352 2.5887 0.67273 3.961 0.67273s2.6999-0.23774 3.9614-0.67294v-5.7932c0-2.1877-1.7737-3.9616-3.9614-3.9616" fill="#FF9395" mask="url(#ck)"/>
								<mask id="cj" fill="white">
									<use xlink:href="#am"/>
								</mask>
								<path d="m47.639 50.607c0 1.3908-1.1276 2.5184-2.5184 2.5184-1.3911 0-2.5184-1.1276-2.5184-2.5184s1.1274-2.5184 2.5184-2.5184c1.3908 0 2.5184 1.1276 2.5184 2.5184" fill="#FF9395" mask="url(#cj)"/>
								<mask id="ci" fill="white">
									<use xlink:href="#al"/>
								</mask>
								<path d="m22.092 50.607c0 1.3908-1.1276 2.5184-2.5184 2.5184-1.3911 0-2.5184-1.1276-2.5184-2.5184s1.1274-2.5184 2.5184-2.5184c1.3908 0 2.5184 1.1276 2.5184 2.5184" fill="#FF9395" mask="url(#ci)"/>
								<mask id="ch" fill="white">
									<use xlink:href="#ak"/>
								</mask>
								<path d="m44.759 56.842c-0.014105-1.6646 0.71648-3.2535 1.9877-4.3279 0.24203-0.20462 0.44869-0.4581 0.60364-0.75532 0.64105-1.2287 0.17478-2.7414-1.0507-3.3886-0.21464-0.11345-5.3586-2.7788-13.951-2.7788-8.5924 0-13.737 2.6654-13.951 2.7788-1.2255 0.64718-1.692 2.1599-1.0509 3.3886 0.15495 0.29722 0.36161 0.5507 0.60364 0.75532 1.2713 1.0744 2.0018 2.6633 1.9877 4.3279-0.010221 1.2077 0.014514 2.4745 0.014514 3.7809 0 2.5151 0.51288 4.8841 1.4148 6.9669 1.9103 6.2051 2.5391 11.163-0.95606 18.958-0.79518 1.7733-2.9882 4.3919-2.9882 9.3179 0 13.328 0.86039 14.929 14.925 14.929 14.065 0 14.925-1.6016 14.925-14.929 0-4.926-2.193-7.5446-2.988-9.3179-3.4953-7.7952-2.8665-12.753-0.95626-18.958 0.90189-2.0828 1.4148-4.4518 1.4148-6.9669 0-1.3064 0.024734-2.5732 0.014514-3.7809" fill="#FF9395" mask="url(#ch)"/>
								<mask id="cg" fill="white">
									<use xlink:href="#aj"/>
								</mask>
								<path d="m45.557 62.661c0 3.0703-2.4888 5.5589-5.5589 5.5589h-15.292c-3.0701 0-5.5589-2.4886-5.5589-5.5589 0-3.0701 2.4888-5.5587 5.5589-5.5587h15.292c3.0701 0 5.5589 2.4886 5.5589 5.5587" fill="#FF9395" mask="url(#cg)"/>
								<mask id="ce" fill="white">
									<use xlink:href="#ai"/>
								</mask>
								<path d="m41.378 65.702h-18.052c-1.5801 0-3.0029-0.66231-4.0149-1.7208 0.59322 2.4319 2.7801 4.239 5.3945 4.239h15.292c2.6147 0 4.8015-1.807 5.3948-4.239-1.0121 1.0585-2.435 1.7208-4.0149 1.7208" fill="#FF9395" mask="url(#ce)"/>
								<mask id="cd" fill="white">
									<use xlink:href="#ah"/>
								</mask>
								<path d="m31.474 65.198c0.60139 0.88758 0.87919 1.6456 0.87919 2.0192 0-0.36488 0.26472-1.0961 0.83709-1.9569-0.30111-0.92805-0.36182-1.9808-0.29334-2.8788 0.098529-1.2944 0.52821-2.4432 1.3318-3.4571-0.85691 0.70708-1.4569 1.5458-1.8808 2.5738-0.42376-1.0278-1.0243-1.8671-1.8806-2.5738 1.3819 1.7439 1.7091 4.1828 1.0068 6.2735" fill="#FF9395" mask="url(#cd)"/>
								<mask id="cc" fill="white">
									<use xlink:href="#ag"/>
								</mask>
								<path d="m21.258 84.486h22.183c-2.4618-6.51-1.8688-11.075-0.21034-16.56-0.94154 0.58218-2.0458 0.92458-3.232 0.92458h-15.292c-1.1895 0-2.2962-0.34424-3.2394-0.92907 1.6595 5.4876 2.2535 10.053-0.20891 16.565zm1.7361-18.154c-0.80049 0-1.5611-0.16006-2.2531-0.44522-0.50716-1.6384-0.78741-3.4109-0.78741-5.2637 0-0.69093-0.0063369-1.3688-0.011447-2.0346 0.64677-1.3874 1.0131-2.9313 1.0131-4.563 0-2.2126-0.66415-4.2696-1.8038-5.9837-0.0038839-0.0059281-0.0036795-0.013083-0.007359-0.019215 0.93071-0.40311 2.7114-1.0765 5.2341-1.6145 0.0089944 0.038226 0.028618 0.071341 0.030458 0.11222 0.47547 10.715 5.2425 18.093 7.9406 18.093 2.6983 0 7.4651-7.3774 7.9408-18.093 0.0016353-0.040883 0.021464-0.073999 0.030458-0.11222 2.5205 0.53782 4.2999 1.2101 5.2314 1.6133-0.0036795 0.0061325-0.003475 0.013287-0.0075634 0.01942-1.14 1.714-1.8044 3.7717-1.8044 5.9847 0 1.6341 0.36795 3.1807 1.0166 4.5697-0.004906 0.66374-0.011243 1.3393-0.011243 2.0278 0 1.8539-0.28046 3.6272-0.78823 5.2658-0.69011 0.28393-1.4483 0.44317-2.2465 0.44317h-18.716z" fill="#E3E8F3" mask="url(#cc)"/>
								<mask id="cb" fill="white">
									<use xlink:href="#af"/>
								</mask>
								<path d="m40.289 46.52c-0.024326 0.54824-0.062551 1.0855-0.10855 1.6155h5.3042c0.020442-0.031071 0.038226-0.064187 0.058668-0.095258 0.0040884-0.0061325 0.0038839-0.013083 0.0075634-0.019215-0.93153-0.40331-2.711-1.0756-5.2314-1.6135-0.0089943 0.03843-0.028823 0.071546-0.030458 0.11243" fill="#4C62A1" mask="url(#cb)"/>
								<mask id="ca" fill="white">
									<use xlink:href="#ae"/>
								</mask>
								<path d="m39.847 50.847c-0.10016 0.62183-0.21402 1.2275-0.34035 1.8164h4.325c0.078087-0.62286 0.20299-1.2314 0.38267-1.8164h-4.3674z" fill="#4C62A1" mask="url(#ca)"/>
								<mask id="bz" fill="white">
									<use xlink:href="#ad"/>
								</mask>
								<path d="m25.192 52.663c-0.12633-0.58892-0.24019-1.1946-0.34035-1.8164h-4.3708c0.17948 0.58524 0.30438 1.1936 0.38267 1.8164h4.3285z" fill="#4C62A1" mask="url(#bz)"/>
								<mask id="by" fill="white">
									<use xlink:href="#ab"/>
								</mask>
								<path d="m24.408 46.52c-0.0018397-0.040883-0.021464-0.073999-0.030458-0.11243-2.5227 0.53823-4.3034 1.2116-5.2341 1.6147 0.0036795 0.0061325 0.003475 0.013083 0.0073589 0.019011 0.020442 0.030867 0.037817 0.063574 0.05785 0.094236h5.3079c-0.045994-0.53005-0.08422-1.0673-0.10855-1.6155" fill="#4C62A1" mask="url(#by)"/>
								<mask id="bx" fill="white">
									<use xlink:href="#aa"/>
								</mask>
								<path d="m20.481 67.917c-0.12776-0.2083-0.32441-0.52842-0.45237-0.73672-1.1331-1.1707-1.8316-2.7647-1.8316-4.5192 0-1.1359 0.29313-2.2046 0.80724-3.1351-0.0012265-0.17498-0.0026574-0.34976-0.0040883-0.5229-0.0055193-0.70094-0.010834-1.3874-0.0065414-2.0558 0.0094032-1.424-0.58954-2.8003-1.6703-3.7273-0.33443-0.287-0.60793-0.63165-0.81317-1.0245-0.87879-1.6846-0.22936-3.7752 1.4467-4.6607 0.17866-0.094236 3.6388-1.889 9.542-2.601-0.78721 1.8254-1.9599 4.9683-2.4009 8.3439-0.54661 4.1862-0.4536 5.3275-0.59015 9.0148-0.11877 3.2073-0.54743 8.2337-0.54743 10.227v9.0113c0 0.69542-0.56358 1.2592-1.2592 1.2592h-1.4068c-0.21198 0-0.35896-0.2081-0.2962-0.41047 1.629-5.2639 1.0775-9.2691-0.51717-14.463" fill="#A6CBE0" mask="url(#bx)"/>
								<mask id="bw" fill="white">
									<use xlink:href="#z"/>
								</mask>
								<path d="m27.954 43.925c0.17784-0.37613 0.080744-0.82339-0.23365-1.0957l-1.0002-0.86591s-0.26165-0.20646 0.062756-0.41946c-0.24019 0.067253-0.41701 0.26288-0.4538 0.50941-0.13083 0.8749-0.51963 2.9653-1.2821 3.2582l1.8878 1.0084c0.39923-1.0405 0.77126-1.8704 1.0192-2.3949" fill="#A6CBE0" mask="url(#bw)"/>
								<mask id="bv" fill="white">
									<use xlink:href="#y"/>
								</mask>
								<path d="m22.209 65.653h2.1208c-0.058872 0.94788-0.12245 1.9142-0.17989 2.8283h-0.39125c-1.3009 0-2.5074-0.39861-3.5059-1.0799-0.86448-0.81153-1.5078-1.8557-1.8285-3.0319 1.0499 0.80397 2.3602 1.2835 3.7848 1.2835" fill="#4C62A1" mask="url(#bv)"/>
								<mask id="bt" fill="white">
									<use xlink:href="#x"/>
								</mask>
								<path d="m27.671 44.541c-0.77699 1.7418-2.0989 5.1047-2.5732 8.7368-0.54681 4.1864-0.4536 5.3277-0.59035 9.015-0.066231 1.7911-0.22915 4.149-0.35998 6.2294 0.14514-5.7259-3.5295-8.9232-5.1744-10.064-0.48426-0.33586-0.65924-0.96321-0.43888-1.5098 1.8588-4.6104 8.574-11.166 9.1368-12.408" fill="#A6CBE0" mask="url(#bt)"/>
								<mask id="bs" fill="white">
									<use xlink:href="#w"/>
								</mask>
								<path d="m44.217 67.917c0.12776-0.2083 0.32441-0.52842 0.45237-0.73672 1.1331-1.1707 1.8316-2.7647 1.8316-4.5192 0-1.1359-0.29313-2.2046-0.80724-3.1351 0.0012265-0.17498 0.0026574-0.34976 0.0038839-0.5229 0.0057237-0.70094 0.011038-1.3874 0.0067457-2.0558-0.0091987-1.424 0.58954-2.8003 1.6703-3.7273 0.33443-0.287 0.60793-0.63165 0.81317-1.0245 0.87858-1.6846 0.22936-3.7752-1.4467-4.6607-0.17866-0.094236-3.6388-1.889-9.542-2.601 0.78721 1.8254 1.9599 4.9683 2.4009 8.3439 0.54661 4.1862 0.4536 5.3275 0.59015 9.0148 0.11877 3.2073 0.54722 8.2337 0.54722 10.227v9.0113c0 0.69542 0.56378 1.2592 1.2592 1.2592h1.407c0.21198 0 0.35896-0.2081 0.2962-0.41047-1.629-5.2639-1.0775-9.2691 0.51717-14.463" fill="#A6CBE0" mask="url(#bs)"/>
								<mask id="br" fill="white">
									<use xlink:href="#v"/>
								</mask>
								<path d="m37.978 41.963-1.0002 0.8657c-0.31439 0.27228-0.41129 0.71975-0.23365 1.0959 0.24796 0.52453 0.62 1.3543 1.0192 2.3947l1.8878-1.0082c-0.76247-0.29313-1.1513-2.3833-1.2821-3.2584-0.036795-0.24653-0.21362-0.44215-0.4538-0.50941 0.32461 0.213 0.062756 0.41967 0.062756 0.41967" fill="#A6CBE0" mask="url(#br)"/>
								<mask id="bq" fill="white">
									<use xlink:href="#u"/>
								</mask>
								<path d="m42.489 65.653h-2.1208c0.058872 0.94788 0.12245 1.9142 0.17989 2.8283h0.39125c1.3009 0 2.5074-0.39861 3.5059-1.0799 0.86448-0.81153 1.5078-1.8557 1.8283-3.0319-1.0497 0.80397-2.3602 1.2835-3.7846 1.2835" fill="#4C62A1" mask="url(#bq)"/>
								<mask id="bp" fill="white">
									<use xlink:href="#t"/>
								</mask>
								<path d="m37.027 44.541c0.77699 1.7418 2.0989 5.1047 2.5732 8.7368 0.54681 4.1864 0.4538 5.3277 0.59035 9.015 0.066231 1.7911 0.22915 4.149 0.36018 6.2294-0.14534-5.7259 3.5295-8.9232 5.1742-10.064 0.48426-0.33586 0.65924-0.96321 0.43909-1.5098-1.8588-4.6104-8.5742-11.166-9.137-12.408" fill="#A6CBE0" mask="url(#bp)"/>
								<mask id="bo" fill="white">
									<use xlink:href="#s"/>
								</mask>
								<path d="m18.115 18.307c0.32931-5.4134 3.3483-12.523 14.724-12.272 6.0397 0.13308 15.693 5.5391 13.534 14.221 0.85099 1.8986 1.0617 4.1546-0.40515 6.9964 0.10282 3.7715-1.1231 9.3228-8.3422 8.1963-1.3596 0.69665-3.2061 1.1484-5.7466 1.1484-1.887 0-3.619-0.51206-5.0622-1.1668-3.266 0.84731-6.2042-0.30622-6.933-4.9037-0.44256-0.3238-0.85691-0.71035-1.2377-1.1699-2.6255-4.201-2.0932-8.0276-0.53107-11.05" fill="#4C62A1" mask="url(#bo)"/>
								<mask id="bn" fill="white">
									<use xlink:href="#q"/>
								</mask>
								<path d="m45.721 23.132c-0.98754-0.17723-2.0928 1.3761-2.4685 3.47-0.37592 2.0936 0.11979 3.9344 1.1071 4.1116 0.98754 0.17702 2.0928-1.3765 2.4687-3.47 0.37572-2.0932-0.11999-3.9346-1.1073-4.1116" fill="#FF9395" mask="url(#bn)"/>
								<mask id="bm" fill="white">
									<use xlink:href="#p"/>
								</mask>
								<path d="m18.977 23.132c0.98754-0.17723 2.0928 1.3761 2.4683 3.47 0.37613 2.0936-0.11979 3.9344-1.1071 4.1116-0.98733 0.17702-2.0928-1.3765-2.4685-3.47-0.37592-2.0932 0.11999-3.9346 1.1073-4.1116" fill="#FF9395" mask="url(#bm)"/>
								<mask id="bl" fill="white">
									<use xlink:href="#o"/>
								</mask>
								<path d="m45.223 24.773c0-9.0389-2.3205-16.365-12.874-16.365s-12.874 7.3263-12.874 16.365c0 9.0387 5.7641 16.367 12.874 16.367 7.1094 0 12.874-7.3281 12.874-16.367" fill="#FF9395" mask="url(#bl)"/>
								<mask id="bk" fill="white">
									<use xlink:href="#n"/>
								</mask>
								<path d="m36.721 32.988c-0.048651 0.055397-1.2238 1.3588-4.3686 1.3588-0.0010221 0-0.0018398 6.133e-4 -0.0030663 6.133e-4 -0.0010221 0-0.0020441-6.133e-4 -0.0030662-6.133e-4 -3.127 0-4.3081-1.2911-4.3678-1.3588-0.22404-0.26186-0.61775-0.29702-0.88287-0.075021-0.26717 0.22261-0.30295 0.61979-0.080131 0.88655 0.061734 0.073794 1.5507 1.8066 5.3308 1.8066 0.0010221 0 0.0020441-8.177e-4 0.0030662-8.177e-4 0.0012265 0 0.0020442 8.177e-4 0.0030663 8.177e-4 3.7827 0 5.2701-1.7335 5.3314-1.807 0.22057-0.26451 0.18479-0.65495-0.077678-0.87879-0.26268-0.22506-0.65822-0.19236-0.88512 0.067662" fill="#4C62A1" mask="url(#bk)"/>
								<mask id="bi" fill="white">
									<use xlink:href="#m"/>
								</mask>
								<path d="m39.762 28.152h0.0018398c0.56828 0 1.0292-0.46096 1.0292-1.0292v-0.64555c0-0.56869-0.46096-1.0292-1.0292-1.0292s-1.0292 0.46055-1.0292 1.0292v0.64739c0 0.56746 0.45994 1.0274 1.0274 1.0274" fill="#4C62A1" mask="url(#bi)"/>
								<mask id="bh" fill="white">
									<use xlink:href="#l"/>
								</mask>
								<path d="m23.905 26.478v0.64412c0 0.56889 0.46137 1.0298 1.0303 1.0298 0.56869 0 1.0298-0.46096 1.0298-1.0298v-0.64412c0-0.56869-0.46116-1.0298-1.0298-1.0298-0.56889 0-1.0303 0.46116-1.0303 1.0298" fill="#4C62A1" mask="url(#bh)"/>
								<mask id="bg" fill="white">
									<use xlink:href="#k"/>
								</mask>
								<path d="m42.442 23.868c-1.6296-1.8058-4.664-1.3083-4.7934-1.2862-0.2222 0.038226-0.37163 0.24959-0.33361 0.4722 0.037817 0.22241 0.25123 0.36999 0.472 0.33443 0.027392-0.004906 2.7214-0.44215 4.0474 1.0282 0.080949 0.089534 0.19215 0.13512 0.30376 0.13512 0.097916 0 0.19583-0.034955 0.27433-0.10589 0.16783-0.15106 0.18111-0.41006 0.029436-0.57789" fill="#4C62A1" mask="url(#bg)"/>
								<mask id="bf" fill="white">
									<use xlink:href="#j"/>
								</mask>
								<path d="m26.911 23.389c0.22384 0.036182 0.43438-0.11202 0.472-0.33463 0.038021-0.22261-0.111-0.43398-0.33361-0.472-0.12817-0.022281-3.1613-0.52024-4.7936 1.2862-0.15168 0.16721-0.13839 0.42621 0.029232 0.57789 0.078292 0.070932 0.17621 0.10568 0.27433 0.10568 0.11161 0 0.22302-0.04538 0.30376-0.13512 1.3279-1.4695 4.0209-1.0329 4.0479-1.028" fill="#4C62A1" mask="url(#bf)"/>
								<mask id="be" fill="white">
									<use xlink:href="#i"/>
								</mask>
								<path d="m38.681 29.202c-0.6803-0.19092-1.3866 0.1942-1.5875 0.87265-0.20094 0.67846 0.18786 1.3931 0.86509 1.5989 0.41435 0.12572 0.94113 0.44317 1.0256 0.6803 0.16067 0.45012 0.54559 0.75552 0.98426 0.83504 0.21423 0.038839 0.44093 0.023712 0.66067-0.054579 0.66967-0.23855 1.0192-0.97486 0.78067-1.6443-0.57911-1.6253-2.5106-2.2247-2.7288-2.288" fill="#FF9395" mask="url(#be)"/>
								<mask id="bd" fill="white">
									<use xlink:href="#h"/>
								</mask>
								<path d="m26.017 29.202c0.6803-0.19092 1.3866 0.1942 1.5875 0.87265 0.20094 0.67846-0.18786 1.3931-0.86509 1.5989-0.41435 0.12572-0.94113 0.44317-1.0256 0.6803-0.16067 0.45012-0.54559 0.75552-0.98426 0.83504-0.21423 0.038839-0.44093 0.023712-0.66067-0.054579-0.66967-0.23855-1.0192-0.97486-0.78046-1.6443 0.57891-1.6253 2.5104-2.2247 2.7286-2.288" fill="#FF9395" mask="url(#bd)"/>
								<mask id="bc" fill="white">
									<use xlink:href="#f"/>
								</mask>
								<path d="m19.66 17.491c0-4.6615 4.5477-9.9612 13.178-9.9612 8.6309 0 12.564 6.063 12.564 11.02 0 0-6.0055-3.7265-12.564-3.7265-6.5583 0-13.178 2.6678-13.178 2.6678" fill="#4C62A1" mask="url(#bc)"/>
								<mask id="bb" fill="white">
									<use xlink:href="#e"/>
								</mask>
								<path d="m42.014 12.377c-4.7155-6.3943-15.142-1.9479-17.583-0.68868-2.2833 1.1776-11.49 8.5389-5.7844 17.668 7.988-12.513 23.367-16.979 23.367-16.979" fill="#4C62A1" mask="url(#bb)"/>
								<mask id="ba" fill="white">
									<use xlink:href="#d"/>
								</mask>
								<path d="m41.994 13.984c1.7183 3.3316 8.034 6.9714 3.3514 14.35-0.30192-4.053-6.08-8.1258-3.3514-14.35" fill="#4C62A1" mask="url(#ba)"/>
								<mask id="az" fill="white">
									<use xlink:href="#c"/>
								</mask>
								<path d="m42.029 14.278c-1.5423 5.9982-10.826 10.433-16.463 10.204 3.6944-0.40106 6.441-4.2183 9.0763-6.9269 2.5174-2.5875 4.582-5.1413 7.387-3.2774" fill="#4C62A1" mask="url(#az)"/>
								<mask id="cv" fill="white">
									<use xlink:href="#b"/>
								</mask>
								<path d="m42.014 12.377c0.537 6.1726-15.919 7.2801-20.44 15.04-5.0744 8.7096-1.4323 15.45-1.0125 16.263-2.9644-3.3843-3.8563-7.2404-3.9614-10.231-0.16456-4.6973 2.0284-9.8935 4.2762-12.592 4.4951-5.3962 11.004-5.6398 21.138-8.4798" fill="#4C62A1" mask="url(#cv)"/>
							</g>
							<circle cx="12.96" cy="58.32" r="6.48" fill="#10FF08"/>
						</g>
						<g transform="translate(25)">
							<g fill-rule="nonzero">
								<use fill="black" filter="url(#cx)" xlink:href="#a"/>
								<use fill="#FFFFFF" xlink:href="#a"/>
							</g>
							<text fill="#414141" font-family="AppleColorEmoji, Apple Color Emoji" font-size="21.6">
								<tspan x="24.4799995" y="33.0799998">🔧</tspan>
							</text>
						</g>
					</g>
				</g>
			</g>
		</g>
	</g>
</svg>
