<svg xmlns="http://www.w3.org/2000/svg" xmlns:xlink="http://www.w3.org/1999/xlink" width="116" height="125"><style><![CDATA[.B{fill:#fff}.C{fill:#4c62a1}.D{fill:#ff9395}.E{fill:#e3e8f3}.F{fill-opacity:.5}]]></style><defs><path d="M32.24.04C14.424.1 0 14.563 0 32.397h0c0 17.87 14.483 32.355 32.35 32.355h0c17.866 0 32.35-14.486 32.35-32.355h0C64.698 14.563 50.274.1 32.458.04h0-.218z" id="A"/><path d="M32.24.04C14.424.1 0 14.563 0 32.397h0c0 17.87 14.483 32.355 32.35 32.355h0c17.866 0 32.35-14.486 32.35-32.355h0C64.698 14.563 50.274.1 32.458.04h0" id="B"/><path d="M55.44 0c7.953 0 14.4 6.447 14.4 14.4v20.16c0 7.953-6.447 14.4-14.4 14.4H29.97l-14.85 10.8v-10.8h-.72C6.447 48.96 0 42.513 0 34.56V14.4C0 6.447 6.447 0 14.4 0h41.04z" id="C"/><filter x="-45.8%" y="-51.9%" width="191.6%" height="207.1%" id="D"><feOffset dy="1" in="SourceAlpha"/><feGaussianBlur stdDeviation="10.5"/><feColorMatrix values="0 0 0 0 0 0 0 0 0 0 0 0 0 0 0 0 0 0 0.1 0"/></filter><path id="E" d="M47.64 49.892a2.52 2.52 0 0 1-2.518 2.518 2.52 2.52 0 0 1-2.518-2.518 2.52 2.52 0 0 1 2.518-2.518 2.52 2.52 0 0 1 2.518 2.518"/></defs><g transform="translate(0 20)" fill="none" fill-rule="evenodd"><g transform="translate(0 40)"><path d="M64.698 32.56c0 17.87-14.483 32.355-32.35 32.355S0 50.43 0 32.56 14.483.205 32.35.205s32.35 14.486 32.35 32.355" class="E"/><g transform="translate(0 .163)"><mask id="F" class="B"><use xlink:href="#A"/></mask><path d="M43.36 52.55l-.63.02s.183-.655.19-1.6c-.516.623-1.17 1.202-2.015 1.56-.05.025-.1.05-.15.063-.044.02-.088.03-.138.044-.693.252-1.505.34-2.45.195-1.04-.164-2.852-1.568-2.758-3.098.252-3.86 5.383-2.902 3.86-11.874-1.77 1.44-3.834 2.342-6.05 2.524-.284.025-.573.038-.863.038-1.914 0-3.74-.535-5.37-1.492-.5 3.13-2.078 16.892 9.658 16.892a15.41 15.41 0 0 0 .774-.019c.837-.038 1.568-.132 2.216-.265 3.796-.806 4.565-3.022 4.565-3.022l-.837.03z" mask="url(#F)" class="C"/><mask id="G" class="B"><use xlink:href="#B"/></mask><path d="M42.92 50.97c-.516.623-1.17 1.203-2.015 1.56 1.127-.54 1.58-2.292 1.826-3.21a6.94 6.94 0 0 1 .189 1.65" mask="url(#G)" class="C"/><mask id="H" class="B"><use xlink:href="#C" href="#B"/></mask><path d="M40.616 52.64c-.693.252-1.505.34-2.45.195-1.04-.164-2.852-1.568-2.758-3.098.252-3.86 5.383-2.902 3.86-11.874a10.97 10.97 0 0 0 .957-.857c2.62 4.798.087 8.77-.957 10.055-1.653 2.035-1.26 5.352.63 5.616.265.038.504.02.718-.038" mask="url(#H)" class="C"/><mask id="I" class="B"><use xlink:href="#D" href="#B"/></mask><path d="M43.36 52.55c-.66 1.26-1.807 2.474-3.727 2.99-.63.17-1.34.265-2.147.265h-.07c-6.32-.082-8.525-7.5-5.547-11.63 1.108-1.536 1.34-2.927 1.348-3.8 2.216-.183 4.28-1.083 6.05-2.524 1.524 8.972-3.608 8.015-3.86 11.874-.094 1.53 1.72 2.934 2.758 3.098.944.145 1.757.057 2.45-.195.05-.013.094-.025.138-.044.05-.013.1-.038.15-.063.844-.36 1.498-.938 2.015-1.56.598-.718 1-1.486 1.278-2.02.076.384 0 2.02-.837 3.6" mask="url(#I)" class="C"/><mask id="J" class="B"><use xlink:href="#E" href="#B"/></mask><path d="M32.35 42.095c-2.452 0-5.895.98-7.164 2.794 0 0 1.978 3.056 7.164 3.056s7.163-3.056 7.163-3.056c-1.268-1.814-4.712-2.794-7.163-2.794" mask="url(#J)" class="C"/><mask id="K" class="B"><use xlink:href="#F" href="#B"/></mask><path d="M44.905 47.383a2.52 2.52 0 0 1 2.584 1.649l5.625 15.48c2.774 7.632 4.537 15.604 5.24 23.694l1.427 16.407a2.52 2.52 0 0 1-2.291 2.727 2.52 2.52 0 0 1-2.727-2.291l-1.427-16.407C52.67 81 51.004 73.45 48.38 66.23l-5.625-15.48a2.52 2.52 0 0 1 1.507-3.227 2.51 2.51 0 0 1 .643-.143" mask="url(#K)" class="D"/><mask id="L" class="B"><use xlink:href="#G" href="#A"/></mask><path d="M54.097 65.418l-.39-1.122-5.625-15.48c-.487-1.337-1.814-2.185-3.23-2.062-.274.024-.544.084-.804.178-1.63.593-2.476 2.403-1.883 4.034l5.625 15.48.376 1.08 5.932-2.108z" mask="url(#L)" class="C"/><mask id="M" class="B"><use xlink:href="#H" href="#B"/></mask><path d="M19.792 47.383a2.52 2.52 0 0 0-2.584 1.649l-5.625 15.48C8.8 72.143 7.047 80.115 6.343 88.205l-1.427 16.407a2.52 2.52 0 0 0 2.291 2.727 2.52 2.52 0 0 0 2.727-2.291l1.427-16.407c.666-7.652 2.333-15.192 4.957-22.41l5.625-15.48a2.52 2.52 0 0 0-1.507-3.227 2.51 2.51 0 0 0-.643-.143" mask="url(#M)" class="D"/><mask id="N" class="B"><use xlink:href="#I" href="#A"/></mask><path d="M10.6 65.418l.39-1.122 5.625-15.48c.487-1.337 1.814-2.185 3.23-2.062.274.024.544.084.804.178 1.63.593 2.476 2.403 1.883 4.034l-5.625 15.48-.376 1.08-5.932-2.108z" mask="url(#N)" class="C"/><mask id="O" class="B"><use xlink:href="#J" href="#B"/></mask><use xlink:href="#E" mask="url(#O)" class="D"/><mask id="P" class="B"><use xlink:href="#K" href="#B"/></mask><use xlink:href="#E" x="-25.548" mask="url(#P)" class="D"/><mask id="Q" class="B"><use xlink:href="#L" href="#B"/></mask><path d="M44.76 56.126a5.61 5.61 0 0 1 1.988-4.328 2.5 2.5 0 0 0 .604-.755c.64-1.23.175-2.74-1.05-3.39-.215-.113-5.36-2.78-13.95-2.78s-13.737 2.665-13.95 2.78c-1.225.647-1.692 2.16-1.05 3.39a2.5 2.5 0 0 0 .604.755 5.61 5.61 0 0 1 1.988 4.328l.015 3.78c0 2.515.513 4.884 1.415 6.967h0c1.9 6.205 2.54 11.163-.956 18.958-.795 1.773-2.988 4.392-2.988 9.318 0 13.328.86 14.93 14.925 14.93s14.925-1.602 14.925-14.93c0-4.926-2.193-7.545-2.988-9.318-3.495-7.795-2.866-12.753-.956-18.958h0c.902-2.083 1.415-4.452 1.415-6.967l.015-3.78" mask="url(#Q)" class="D"/><mask id="R" class="B"><use xlink:href="#M" href="#B"/></mask><path d="M45.557 61.946a5.56 5.56 0 0 1-5.559 5.559H24.706a5.56 5.56 0 0 1-5.559-5.559 5.56 5.56 0 0 1 5.559-5.559h15.292a5.56 5.56 0 0 1 5.559 5.559" mask="url(#R)" class="D"/><mask id="S" class="B"><use xlink:href="#N" href="#B"/></mask><path d="M41.378 64.986H23.326c-1.58 0-3.003-.662-4.015-1.72.593 2.432 2.78 4.24 5.395 4.24h15.292c2.614 0 4.8-1.807 5.395-4.24-1.012 1.06-2.435 1.72-4.015 1.72" mask="url(#S)" class="D"/><mask id="T" class="B"><use xlink:href="#O" href="#B"/></mask><path d="M35.815 44.246c0 1.912-1.55 3.463-3.463 3.463s-3.463-1.55-3.463-3.463 1.55-3.463 3.463-3.463 3.463 1.55 3.463 3.463" mask="url(#T)" class="D"/><mask id="U" class="B"><use xlink:href="#P" href="#B"/></mask><path d="M32.35 51.266a3.96 3.96 0 0 1-3.961-3.961V36.048a3.96 3.96 0 0 1 3.961-3.961c2.188 0 3.96 1.774 3.96 3.96v11.257a3.96 3.96 0 0 1-3.961 3.961" mask="url(#U)" class="D"/><mask id="V" class="B"><use xlink:href="#Q" href="#B"/></mask><path d="M32.35 32.087a3.96 3.96 0 0 0-3.961 3.961v5.793c1.26.435 2.59.673 3.96.673a12.1 12.1 0 0 0 3.961-.673v-5.793c0-2.187-1.774-3.96-3.96-3.96" mask="url(#V)" class="D"/><mask id="W" class="B"><use xlink:href="#R" href="#B"/></mask><path d="M38.154 50.534c-.32-1.92-.765-3.785-1.405-5.418-1.343-.15-2.813-.24-4.4-.24s-3.053.09-4.395.24c-.64 1.637-1.087 3.507-1.407 5.432.868 2.694 2.565 5.156 5.802 7.84 3.24-2.687 4.94-5.153 5.805-7.85" mask="url(#W)" class="D"/><mask id="X" class="B"><use xlink:href="#S" href="#B"/></mask><path d="M33.152 59.355l-.804.667-.804-.667c-2.587-2.145-4.267-4.193-5.34-6.35l-.633 8.922c-.08 1.228-.04 2.454.066 3.688h13.427c.106-1.234.147-2.46.066-3.688l-.634-8.932c-1.073 2.16-2.753 4.21-5.345 6.36" mask="url(#X)" class="E"/><mask id="Y" class="B"><use xlink:href="#T" href="#B"/></mask><path d="M32.35 58.386c-3.237-2.683-4.934-5.145-5.802-7.84l-.342 2.46c1.073 2.156 2.753 4.204 5.34 6.35l.804.667.804-.667c2.59-2.148 4.272-4.2 5.345-6.36l-.343-2.462c-.866 2.7-2.564 5.164-5.805 7.85" mask="url(#Y)" class="E"/><mask id="Z" class="B"><use xlink:href="#U" href="#B"/></mask><path d="M26.828 76.88c-.024-5.354-1.575-10.14-1.26-14.952.21-3.22.315-8.27 1.23-12.766-1.187.907-3.533 2.37-6.553 2.633 2.318-2.45 3.344-4.886 4.928-6.904-4.393.816-6.92 2.127-7.07 2.207-1.524.805-2.114 2.705-1.315 4.237a3.13 3.13 0 0 0 .755.945c1.134.958 1.765 2.358 1.765 3.842 0 1.93-.188 2.988-.496 3.94a6.12 6.12 0 0 0-.296 1.885 6.17 6.17 0 0 0 2.095 4.628c2.122 6.726 2.63 11.41-.775 19-.156.348-.375.74-.628 1.194-.962 1.723-2.415 4.326-2.415 8.382l.022 2.818a.6.6 0 0 0 .386.55c1.52.585 2.965 2.736 8.224 3.798-.81-12.496 1.43-19.002 1.402-25.436" mask="url(#Z)" class="C"/><mask id="a" class="B"><use xlink:href="#V" href="#B"/></mask><path d="M47.882 97.964l.022-2.814c0-4.055-1.453-6.658-2.415-8.38l-.628-1.195c-3.403-7.6-2.898-12.273-.78-18.99 1.288-1.135 2.107-2.79 2.107-4.638 0-.662-.106-1.3-.3-1.898-.31-.95-.497-1.997-.497-3.927 0-1.483.63-2.883 1.765-3.842.31-.263.565-.58.755-.945.8-1.53.21-3.432-1.315-4.237-.15-.08-2.676-1.4-7.067-2.206 1.584 2.018 2.61 4.452 4.927 6.903-3.023-.264-5.37-1.73-6.556-2.636.917 4.496 1.02 9.55 1.23 12.77.316 4.814-1.235 9.6-1.26 14.952-.03 6.434 2.213 12.94 1.402 25.436 5.256-1.06 6.702-3.21 8.22-3.797.232-.1.385-.307.39-.555" mask="url(#a)" class="C"/><mask id="b" class="B"><use xlink:href="#W" href="#B"/></mask><path d="M37.898 49.16c1.186.907 3.534 2.372 6.556 2.636-2.318-2.45-3.344-4.886-4.927-6.903l-2.312-.354c-.333-.04-.58.294-.457.607.48 1.233.85 2.596 1.14 4.015" mask="url(#b)" class="C"/><mask id="c" class="B"><use xlink:href="#X" href="#B"/></mask><path d="M25.167 44.9c-1.567 2-2.6 4.41-4.867 6.837-.018.02-.002.053.024.05 2.975-.28 5.287-1.72 6.466-2.62.3-1.433.67-2.794 1.15-4.024.122-.313-.124-.647-.457-.607l-2.297.352c-.007.001-.014.005-.018.01" mask="url(#c)" class="C"/><mask id="d" class="B"><use xlink:href="#Y" href="#A"/></mask><path d="M22.85 65.616c-1.58 0-3-.66-4.013-1.72a6.2 6.2 0 0 0 1.775 2.676c1.095.974 2.527 1.56 4.093 1.56h1.216l-.287-2.518H22.85z" mask="url(#d)" class="C"/><mask id="e" class="B"><use xlink:href="#Z" href="#A"/></mask><path d="M39.998 68.135a6.15 6.15 0 0 0 4.079-1.542c.814-.724 1.44-1.646 1.79-2.693a5.55 5.55 0 0 1-4.015 1.718h-2.79l-.287 2.518h1.223z" mask="url(#e)" class="C"/><mask id="f" class="B"><use xlink:href="#a" href="#B"/></mask><path d="M45.727 22.414c-.988-.177-2.093 1.376-2.47 3.47s.12 3.935 1.107 4.112 2.093-1.376 2.47-3.47-.12-3.934-1.107-4.112" mask="url(#f)" class="D"/><mask id="g" class="B"><use xlink:href="#b" href="#B"/></mask><path d="M18.983 22.414c.988-.177 2.093 1.376 2.468 3.47s-.12 3.935-1.107 4.112-2.093-1.376-2.47-3.47.12-3.934 1.107-4.112" mask="url(#g)" class="D"/><mask id="h" class="B"><use xlink:href="#c" href="#B"/></mask><path d="M45.227 24.056c0-9.04-2.32-16.365-12.874-16.365S19.48 15.017 19.48 24.056s5.764 16.367 12.874 16.367 12.874-7.328 12.874-16.367" mask="url(#h)" class="D"/><mask id="i" class="B"><use xlink:href="#d" href="#B"/></mask><path d="M24.943 24.715c-.584 0-1.057.462-1.057 1.033v.645c0 .57.473 1.033 1.057 1.033h.001c.584 0 1.057-.462 1.057-1.033v-.644c0-.57-.474-1.034-1.058-1.034" mask="url(#i)" class="C"/><mask id="j" class="B"><use xlink:href="#e" href="#B"/></mask><path d="M39.76 24.715c-.584 0-1.058.463-1.058 1.034v.643c0 .57.474 1.034 1.058 1.034s1.057-.462 1.057-1.033v-.645c0-.57-.473-1.033-1.057-1.033" mask="url(#j)" class="C"/><mask id="k" class="B"><use xlink:href="#f" href="#B"/></mask><path d="M39.117 28.066c-.63-.333-1.408-.092-1.74.536a1.29 1.29 0 0 0 .537 1.74c.3.158.78.575.808.8.082.65.637 1.125 1.276 1.125.054 0 .11-.003.164-.01a1.29 1.29 0 0 0 1.115-1.44c-.207-1.633-1.835-2.57-2.16-2.742" mask="url(#k)" class="D"/><mask id="l" class="B"><use xlink:href="#g" href="#B"/></mask><path d="M25.58 28.066c-.324.172-1.952 1.11-2.16 2.742a1.29 1.29 0 0 0 1.115 1.44c.055.007.1.01.164.01a1.29 1.29 0 0 0 1.276-1.125c.024-.186.435-.586.815-.794a1.29 1.29 0 0 0 .53-1.737c-.333-.628-1.11-.87-1.74-.536" mask="url(#l)" class="D"/><mask id="m" class="B"><use xlink:href="#h" href="#B"/></mask><path d="M42.442 21.55c-1.604-1.376-4.585-.988-4.71-.97a.41.41 0 0 0-.35.461c.03.224.237.385.46.35.027-.003 2.74-.36 4.068.78.077.066.172.1.266.1a.41.41 0 0 0 .266-.72" mask="url(#m)" class="C"/><mask id="n" class="B"><use xlink:href="#i" href="#B"/></mask><path d="M26.856 21.392c.218.027.43-.127.46-.35a.41.41 0 0 0-.35-.46c-.126-.018-3.106-.406-4.71.97a.41.41 0 0 0 .266.72c.094 0 .19-.033.266-.1 1.325-1.134 4.042-.784 4.068-.78" mask="url(#n)" class="C"/><mask id="o" class="B"><use xlink:href="#j" href="#B"/></mask><path d="M35.704 31.47h-6.7c-.215 0-.42.088-.562.243s-.21.36-.187.565c.234 1.964 1.973 3.47 4.054 3.47h.1c2.08 0 3.82-1.506 4.054-3.47a.71.71 0 0 0-.186-.565c-.143-.154-.347-.243-.562-.243" mask="url(#o)" class="B"/><mask id="p" class="B"><use xlink:href="#k" href="#B"/></mask><path d="M45.23 22.81s.126-3.318-2.097-4.288c-2.997-1.3-12.3.076-17.163-7.316-.145 1.776-1.228 4.514-2.75 5.912l-.006.006c-.22.208-.447.378-.686.517 0 .006-.007.006-.02.012-1.89 1.108-3.01 2.594-2.846 4.13.076.718-.038 1.24-.265 1.467-.12.126-.27.17-.434.12-.02-.006-.044-.02-.07-.03l-.076-.038c-.145-.088-.296-.252-.453-.49-.743-1.14-.107-14.468 7.077-14.6.15-.756 1.234-1.43 2.827-1.838 3.967-1.014 11.08-.403 14.865 4.52 4.533 5.9 2.544 11.327 2.097 11.918" mask="url(#p)" class="C"/><mask id="q" class="B"><use xlink:href="#l" href="#B"/></mask><path d="M22.51 17.652c-.648.548-1.517 1.435-1.55 2.285-.05 1.228.126 3.922-1.505 3.6-.15-.032-.315-.088-.49-.17.164.05.315.006.434-.12.227-.227.34-.75.265-1.467-.164-1.536.957-3.022 2.846-4.13" mask="url(#q)" class="C"/><mask id="r" class="B"><use xlink:href="#m" href="#B"/></mask><path d="M48.033 21.304c0 1.09-1.278 1.05-2.14 2.122-.32.403-.586.97-.7 1.813 0 0-.17-.02-.36-.17-.34-.258-.743-.932-.252-2.67.756-2.688-.554-3.8-2.638-4.073-2.008-.277-12.982.623-15.96-7.096-.006-.013-.012-.02-.012-.025 0 0 .145-.655.202-1.33.02-.17.03-.34.03-.497 1.4 1.574 4.332 4.32 7.467 5.584.34.138.687.258 1.033.36 4.93 1.417 13.33 2.204 13.33 5.98" mask="url(#r)" class="C"/><mask id="s" class="B"><use xlink:href="#n" href="#B"/></mask><path d="M48.033 21.304c0 1.505-2.43.863-2.84 3.935-1.152-1.82.9-2.915 1.24-4.2 1.07-4.092-9.117-2.795-14.563-5.314-3.677-1.7-5.698-4.174-5.887-4.496-.006-.013-.012-.02-.012-.025.025-.265.012-1.85 0-2.084a4.09 4.09 0 0 0 .233.258c1.4 1.574 4.332 4.32 7.467 5.584.34.138.687.258 1.033.36 4.93 1.417 13.33 2.204 13.33 5.98" mask="url(#s)" class="C"/></g><circle fill="#10ff08" cx="12.96" cy="58.32" r="6.48"/></g><g transform="translate(25)"><g fill-rule="nonzero"><use fill="#000" filter="url(#D)" xlink:href="#C"/><use xlink:href="#C" class="B"/></g><g fill="#878c9a" class="F"><circle cx="18.76" cy="24.76" r="5.76"/><circle cx="35.32" cy="24.76" r="5.76"/><circle cx="51.88" cy="24.76" r="5.76"/></g></g></g></svg>