<svg xmlns="http://www.w3.org/2000/svg" 
	xmlns:xlink="http://www.w3.org/1999/xlink" width="116" height="125">
	<style><![CDATA[.B{fill:#fff}.C{fill:#ff9395}.D{fill:#4c62a1}.E{fill:#a6cbe0}.F{fill-opacity:.5}]]></style>
	<defs>
		<path d="M32.35.047C14.483.047 0 14.533 0 32.402h0c0 17.87 14.483 32.355 32.35 32.355h0c17.866 0 32.35-14.486 32.35-32.355h0" id="A"/>
		<path d="M32.35.047C14.483.047 0 14.533 0 32.402h0c0 17.87 14.483 32.355 32.35 32.355h0c17.866 0 32.35-14.486 32.35-32.355h0c0-17.87-14.483-32.355-32.35-32.355z" id="B"/>
		<path d="M55.44 0c7.953 0 14.4 6.447 14.4 14.4v20.16c0 7.953-6.447 14.4-14.4 14.4H29.97l-14.85 10.8v-10.8h-.72C6.447 48.96 0 42.513 0 34.56V14.4C0 6.447 6.447 0 14.4 0h41.04z" id="C"/>
		<filter x="-45.8%" y="-51.9%" width="191.6%" height="207.1%" id="D">
			<feOffset dy="1" in="SourceAlpha"/>
			<feGaussianBlur stdDeviation="10.5"/>
			<feColorMatrix values="0 0 0 0 0 0 0 0 0 0 0 0 0 0 0 0 0 0 0.1 0"/>
		</filter>
	</defs>
	<g transform="translate(0 20)" fill="none" fill-rule="evenodd">
		<g transform="translate(0 40)">
			<path d="M64.698 32.56c0 17.87-14.483 32.355-32.35 32.355S0 50.43 0 32.56 14.483.204 32.35.204 64.698 14.7 64.698 32.56" fill="#e3e8f3"/>
			<g transform="translate(0 .157)">
				<mask id="E" class="B">
					<use xlink:href="#A"/>
				</mask>
				<path d="M35.815 44.67c0 1.913-1.55 3.463-3.463 3.463s-3.463-1.55-3.463-3.463 1.55-3.463 3.463-3.463 3.463 1.55 3.463 3.463" mask="url(#E)" class="C"/>
				<mask id="F" class="B">
					<use xlink:href="#B" href="#A"/>
				</mask>
				<path d="M32.35 51.69a3.96 3.96 0 0 1-3.961-3.961V36.473c0-2.187 1.774-3.96 3.96-3.96s3.96 1.774 3.96 3.96V47.73a3.96 3.96 0 0 1-3.961 3.961" mask="url(#F)" class="C"/>
				<mask id="G" class="B">
					<use xlink:href="#C" href="#A"/>
				</mask>
				<path d="M32.35 32.512a3.96 3.96 0 0 0-3.961 3.961v5.793c1.26.435 2.59.673 3.96.673s2.7-.238 3.962-.673v-5.793c0-2.188-1.774-3.96-3.96-3.96" mask="url(#G)" class="C"/>
				<mask id="H" class="B">
					<use xlink:href="#D" href="#A"/>
				</mask>
				<path d="M47.64 49.687a2.52 2.52 0 0 1-2.518 2.518 2.52 2.52 0 0 1-2.518-2.518 2.52 2.52 0 0 1 2.518-2.518 2.52 2.52 0 0 1 2.518 2.518" mask="url(#H)" class="C"/>
				<mask id="I" class="B">
					<use xlink:href="#E" href="#A"/>
				</mask>
				<path d="M22.092 49.687a2.52 2.52 0 0 1-2.518 2.518 2.52 2.52 0 0 1-2.519-2.518 2.52 2.52 0 0 1 2.519-2.518 2.52 2.52 0 0 1 2.518 2.518" mask="url(#I)" class="C"/>
				<mask id="J" class="B">
					<use xlink:href="#F" href="#A"/>
				</mask>
				<path d="M44.76 55.922a5.61 5.61 0 0 1 1.988-4.328c.242-.205.448-.458.603-.755.64-1.23.175-2.742-1.05-3.39-.214-.113-5.36-2.78-13.95-2.78s-13.736 2.665-13.95 2.78c-1.225.647-1.692 2.16-1.05 3.39a2.5 2.5 0 0 0 .604.755 5.61 5.61 0 0 1 1.988 4.328l.015 3.78c0 2.515.513 4.884 1.415 6.967h0c1.9 6.205 2.54 11.163-.956 18.958-.795 1.773-2.988 4.392-2.988 9.318 0 13.328.86 14.93 14.925 14.93s14.925-1.602 14.925-14.93c0-4.926-2.193-7.545-2.988-9.318-3.495-7.795-2.867-12.753-.956-18.958h0c.902-2.083 1.415-4.452 1.415-6.967l.015-3.78" mask="url(#J)" class="C"/>
				<mask id="K" class="B">
					<use xlink:href="#G" href="#A"/>
				</mask>
				<path d="M45.557 61.74a5.56 5.56 0 0 1-5.559 5.559H24.706a5.56 5.56 0 0 1-5.559-5.559 5.56 5.56 0 0 1 5.559-5.559h15.292a5.56 5.56 0 0 1 5.559 5.559" mask="url(#K)" class="C"/>
				<mask id="L" class="B">
					<use xlink:href="#H" href="#A"/>
				</mask>
				<path d="M41.378 64.782H23.326c-1.58 0-3.003-.662-4.015-1.72.593 2.432 2.78 4.24 5.395 4.24h15.292c2.614 0 4.8-1.807 5.395-4.24a5.54 5.54 0 0 1-4.015 1.721" mask="url(#L)" class="C"/>
				<mask id="M" class="B">
					<use xlink:href="#I" href="#A"/>
				</mask>
				<path d="M44.905 47.178a2.52 2.52 0 0 1 2.584 1.65l5.625 15.48C55.888 71.94 57.65 79.9 58.355 88l1.427 16.407a2.52 2.52 0 0 1-2.291 2.727 2.52 2.52 0 0 1-2.727-2.291l-1.427-16.407a87.95 87.95 0 0 0-4.957-22.411l-5.625-15.48a2.52 2.52 0 0 1 1.507-3.227c.213-.077.428-.124.643-.143" mask="url(#M)" class="C"/>
				<mask id="N" class="B">
					<use xlink:href="#B"/>
				</mask>
				<path d="M58.984 87.947c-.71-8.148-2.483-16.17-5.276-23.856l-5.625-15.48a3.15 3.15 0 0 0-3.23-2.062c-.272.024-.543.084-.804.178-1.63.593-2.476 2.402-1.884 4.034L47.8 66.24a87.33 87.33 0 0 1 4.921 22.251l1.116 12.828a.63.63 0 0 0 .682.573l5.018-.436a.63.63 0 0 0 .573-.682l-1.116-12.827z" mask="url(#N)" class="E"/>
				<mask id="O" class="B">
					<use xlink:href="#K" href="#A"/>
				</mask>
				<path d="M19.792 47.178a2.52 2.52 0 0 0-2.584 1.65l-5.625 15.48a92.97 92.97 0 0 0-5.241 23.695L4.916 104.41a2.52 2.52 0 0 0 2.291 2.727 2.52 2.52 0 0 0 2.727-2.291l1.427-16.407a87.95 87.95 0 0 1 4.957-22.411l5.625-15.48a2.52 2.52 0 0 0-2.15-3.37" mask="url(#O)" class="C"/>
				<mask id="P" class="B">
					<use xlink:href="#L" href="#B"/>
				</mask>
				<path d="M5.717 87.947c.71-8.148 2.483-16.17 5.276-23.856l5.625-15.48a3.15 3.15 0 0 1 4.034-1.883c1.63.593 2.476 2.402 1.884 4.034L16.91 66.24a87.33 87.33 0 0 0-4.921 22.251l-1.116 12.828a.63.63 0 0 1-.682.573l-5.018-.436a.63.63 0 0 1-.573-.682l1.116-12.827z" mask="url(#P)" class="E"/>
				<mask id="Q" class="B">
					<use xlink:href="#M" href="#A"/>
				</mask>
				<path d="M26.132 44.522c.158 2.663 2.904 5.712 4.825 6.86a5.12 5.12 0 0 0 1.301.563.35.35 0 0 0 .181 0 5.12 5.12 0 0 0 1.301-.563c1.922-1.147 4.668-4.197 4.825-6.86l-1.25-.182c-.32-.04-.62.164-.696.477l-.122.474c-.682 2-3.05 4.25-4.03 4.632-.078.03-.16.03-.238 0-.977-.382-3.33-2.624-4.022-4.608l-.147-.502a.63.63 0 0 0-.691-.466l-1.24.176" mask="url(#Q)" class="D"/>
				<mask id="R" class="B">
					<use xlink:href="#N" href="#A"/>
				</mask>
				<path d="M47.186 52.057a3.14 3.14 0 0 0 .723-.91c.392-.743.472-1.595.224-2.4s-.794-1.462-1.537-1.854c-.162-.086-3.04-1.583-8.03-2.373-.157 2.663-2.903 5.714-4.825 6.86-.597.357-1.093.51-1.295.562-.066.017-.128.017-.195 0-.202-.052-.698-.205-1.295-.562-1.922-1.147-4.667-4.196-4.825-6.86-4.983.8-7.867 2.286-8.03 2.372-1.524.805-2.113 2.705-1.314 4.237a3.13 3.13 0 0 0 .746.937c1.13.963 1.786 2.362 1.774 3.847l.006 2.158.006.784c-.512.84-.807 1.83-.807 2.885 0 .463.057.913.164 1.343a5.55 5.55 0 0 0 3.999 1.698H42.02a5.55 5.55 0 0 0 3.999-1.698c.107-.43.164-.88.164-1.343a5.53 5.53 0 0 0-.806-2.884l.006-.782.006-2.153c-.012-1.495.665-2.89 1.796-3.866" mask="url(#R)" class="E"/>
				<mask id="S" class="B">
					<use xlink:href="#O" href="#A"/>
				</mask>
				<path d="M42.02 64.782H22.677a5.55 5.55 0 0 1-3.999-1.698l-.022-.023c.276 1.128.895 2.12 1.74 2.863a5.54 5.54 0 0 0 3.663 1.376h16.58a5.54 5.54 0 0 0 3.664-1.377c.846-.74 1.465-1.734 1.74-2.862l-.022.023a5.55 5.55 0 0 1-3.999 1.698" mask="url(#S)" class="D"/>
				<mask id="T" class="B">
					<use xlink:href="#P" href="#A"/>
				</mask>
				<path d="M20.34 30.383c-.432.077-.887-.176-1.293-.66l.012.515.18 2.2.228 1.69.674 3.652.346 1.473c.03-.327.164-.693.466-1.05.453-.553 1.308-1.107 2.822-1.554-1.5-1.703-2.68-3.845-3.422-6.268" mask="url(#T)" class="D"/>
				<mask id="U" class="B">
					<use xlink:href="#Q" href="#A"/>
				</mask>
				<path d="M45.72 22.805c-.988-.177-2.093 1.376-2.47 3.47s.12 3.935 1.107 4.112 2.093-1.376 2.47-3.47-.12-3.934-1.107-4.112" mask="url(#U)" class="C"/>
				<mask id="V" class="B">
					<use xlink:href="#R" href="#A"/>
				</mask>
				<path d="M18.977 22.805c.988-.177 2.093 1.376 2.468 3.47s-.12 3.935-1.107 4.112-2.093-1.376-2.47-3.47.12-3.934 1.107-4.112" mask="url(#V)" class="C"/>
				<mask id="W" class="B">
					<use xlink:href="#S" href="#A"/>
				</mask>
				<path d="M45.223 24.447c0-9.04-2.32-16.365-12.874-16.365s-12.874 7.326-12.874 16.365S25.24 40.814 32.35 40.814s12.874-7.33 12.874-16.367" mask="url(#W)" class="C"/>
				<mask id="X" class="B">
					<use xlink:href="#T" href="#A"/>
				</mask>
				<path d="M39.117 28.365c-.63-.333-1.408-.092-1.74.536a1.29 1.29 0 0 0 .536 1.74c.3.16.78.575.808.79a1.29 1.29 0 0 0 1.276 1.125c.054 0 .11-.003.164-.01a1.29 1.29 0 0 0 1.115-1.439c-.207-1.633-1.835-2.57-2.16-2.742" mask="url(#X)" class="C"/>
				<mask id="Y" class="B">
					<use xlink:href="#U" href="#A"/>
				</mask>
				<path d="M25.58 28.365c-.324.172-1.952 1.11-2.16 2.742-.1.705.41 1.35 1.115 1.44a1.23 1.23 0 0 0 .164.01 1.29 1.29 0 0 0 1.276-1.125c.024-.186.435-.587.815-.794a1.29 1.29 0 0 0 .53-1.737c-.333-.628-1.11-.87-1.74-.536" mask="url(#Y)" class="C"/>
				<mask id="Z" class="B">
					<use xlink:href="#V" href="#A"/>
				</mask>
				<path d="M42.442 21.85c-1.604-1.376-4.585-.988-4.712-.97a.41.41 0 0 0-.35.461c.03.224.237.385.46.35.027-.003 2.74-.36 4.068.78.077.066.172.1.266.1a.41.41 0 0 0 .267-.72" mask="url(#Z)" class="D"/>
				<mask id="a" class="B">
					<use xlink:href="#W" href="#A"/>
				</mask>
				<path d="M26.856 21.69c.218.027.43-.127.46-.35a.41.41 0 0 0-.35-.46c-.126-.018-3.106-.406-4.71.97a.41.41 0 0 0-.045.577c.08.095.195.143.31.143.094 0 .19-.033.266-.1 1.325-1.134 4.04-.784 4.068-.78" mask="url(#a)" class="D"/>
				<mask id="b" class="B">
					<use xlink:href="#X" href="#A"/>
				</mask>
				<path d="M35.704 31.768h-6.7c-.215 0-.42.088-.562.242a.71.71 0 0 0-.187.565c.234 1.964 1.974 3.47 4.054 3.47h.1c2.08 0 3.82-1.507 4.054-3.47a.71.71 0 0 0-.186-.565c-.143-.154-.347-.243-.562-.243" mask="url(#b)" class="B"/>
				<mask id="c" class="B">
					<use xlink:href="#Y" href="#A"/>
				</mask>
				<path d="M23.807 26.39c0-.363.502-.68 1.074-.68s1.074.32 1.074.68c0 .26.212.472.472.472s.472-.212.472-.472c0-.912-.887-1.626-2.02-1.626s-2.018.714-2.018 1.626c0 .26.21.472.472.472s.472-.212.472-.472" mask="url(#c)" class="D"/>
				<mask id="d" class="B">
					<use xlink:href="#Z" href="#A"/>
				</mask>
				<path d="M39.813 24.766c-1.132 0-2.018.714-2.018 1.626 0 .26.21.472.472.472s.472-.212.472-.472c0-.363.502-.68 1.074-.68s1.075.318 1.075.68c0 .26.21.472.472.472s.472-.212.472-.472c0-.912-.887-1.626-2.02-1.626" mask="url(#d)" class="D"/>
				<mask id="e" class="B">
					<use xlink:href="#a" href="#A"/>
				</mask>
				<path d="M46.763 32.742c-.107-1.133-.283-2.14-.485-2.997l-.174-.695c-.497.906-1.14 1.44-1.742 1.333-.715 2.285-1.81 4.323-3.192 5.977 1.714.37 2.8.854 3.464 1.362.957.737 1.064 1.524.95 2.103.3-.743.686-1.914.944-3.287.227-1.165.353-2.48.233-3.796" mask="url(#e)" class="D"/>
				<mask id="f" class="B">
					<use xlink:href="#b" href="#A"/>
				</mask>
				<path d="M20.893 40.688s-.158-.453-.403-1.435l-.346-1.473-.674-3.652c-.208-1.284-.353-2.588-.41-3.89-.07-1.53-.012-3.066.214-4.584l.195-1.133.415-1.63.49-1.43c.516-1.3 1.26-2.267 2.19-3.318l.787-.818c.844-1.618 2.1-3.23 3.916-4.52 4.898-3.475 9.89-2.745 11.56-2.36a7.26 7.26 0 0 1 .585.157s-.12 1.02-.957 2.544c1.335 1.85 3.545 5.22 5.05 9l.422 1.058 1.196 3.123c.006.012.655 1.24 1.152 3.412a22.32 22.32 0 0 1 .485 2.997c.12 1.316-.006 2.632-.233 3.796-.258 1.373-.655 2.544-.944 3.287v.006c-.17.44-.302.73-.346.83l-.02.038c3.44-.758 4.686-7.52 4.32-8.62.057-1.207-.254-2.55-.58-3.746C45.422 15.36 44.688 6.74 32.565 6.74c-.076 0-.145.006-.22.006s-.15-.006-.226-.006c-12.124 0-12.857 8.623-16.395 21.595-1.654 6.025 1.03 10.307 5.17 12.353" mask="url(#f)" class="D"/>
				<mask id="g" class="B">
					<use xlink:href="#c" href="#A"/>
				</mask>
				<path d="M44.658 27.535c-.245.915-1.008 1.548-1.897 1.574l-4.726.14c-1.57 0-2.894-1.257-3.077-2.924-.08-.733.04-1.256.382-1.648.648-.742 2.162-1.106 4.9-1.18l.442-.006c3.254 0 4.206 1.023 4.256 1.564.046.502-.006 1.417-.29 2.478M26.65 29.25l-4.726-.14c-.89-.027-1.65-.66-1.897-1.574-.284-1.06-.337-1.975-.29-2.478.05-.54 1.002-1.564 4.256-1.564l.442.006c2.748.073 4.262.436 4.9 1.18.342.39.463.915.382 1.647-.183 1.666-1.506 2.923-3.077 2.923m12.85-6.265l-.187.016c-.776.045-1.437.12-2.004.227-3.02.465-4.18 1.252-4.967 1.252s-1.947-.787-4.966-1.252a15.83 15.83 0 0 0-2.004-.227l-.187-.016c-4.707-.336-6.796 1.2-6.796 1.2v1.647a4.02 4.02 0 0 0 .91.853l.207 1c.308 1.147 1.273 1.94 2.4 1.974l4.742.14c1.488 0 2.772-.958 3.332-2.343a7.09 7.09 0 0 0 .526-.933c.296-.674 1.203-.724 1.62-.71h.43c.418-.015 1.323.035 1.62.71.132.3.34.644.526.933.56 1.384 1.843 2.342 3.33 2.342l4.742-.14c1.13-.034 2.094-.827 2.4-1.974.09-.33.154-.663.207-1 .433-.553.9-.853.9-.853v-1.647s-2.088-1.536-6.796-1.2" fill="#e3e8f3" mask="url(#g)"/>
				<path d="M38.83 10.442c-1.668-.384-6.66-1.114-11.56 2.36-1.826 1.29-3.072 2.903-3.916 4.52-1.366 2.613-1.7 5.238-1.782 6.56-.03.554-.02.88-.02.88s.19-.05.542-.176c1.34-.453 5.074-1.9 10.25-5.257 3.425-2.222 5.2-4.514 6.114-6.19.837-1.524.957-2.544.957-2.544s-.208-.07-.585-.157" class="D"/>
			</g>
			<circle fill="#10ff08" cx="12.96" cy="58.32" r="6.48"/>
		</g>
		<g transform="translate(25)">
			<g fill-rule="nonzero">
				<use fill="#000" filter="url(#D)" xlink:href="#C"/>
				<use xlink:href="#C" class="B"/>
			</g>
			<g fill="#878c9a" class="F">
				<circle cx="18.76" cy="24.76" r="5.76"/>
				<circle cx="35.32" cy="24.76" r="5.76"/>
				<circle cx="51.88" cy="24.76" r="5.76"/>
			</g>
		</g>
	</g>
</svg>