<svg xmlns="http://www.w3.org/2000/svg" xmlns:xlink="http://www.w3.org/1999/xlink" width="116" height="125"><style><![CDATA[.B{fill:#fff}.C{fill:#ff9395}.D{fill:#4c62a1}.E{fill:#fcbf75}.F{fill:#a6cbe0}]]></style><defs><path id="A" d="M0 .15h64.698v64.7H0z"/><path d="M32.35.15C14.483.15 0 14.635 0 32.504h0C0 50.374 14.483 64.86 32.35 64.86h0c17.866 0 32.35-14.486 32.35-32.355h0" id="B"/><path d="M32.35.15C14.483.15 0 14.635 0 32.504h0C0 50.374 14.483 64.86 32.35 64.86h0c17.866 0 32.35-14.486 32.35-32.355h0C64.698 14.635 50.215.15 32.35.15z" id="C"/><path d="M55.44 0c7.953 0 14.4 6.447 14.4 14.4v20.16c0 7.953-6.447 14.4-14.4 14.4H29.97l-14.85 10.8v-10.8h-.72C6.447 48.96 0 42.513 0 34.56V14.4C0 6.447 6.447 0 14.4 0h41.04z" id="D"/><filter x="-45.8%" y="-51.9%" width="191.6%" height="207.1%" id="E"><feOffset dy="1" in="SourceAlpha"/><feGaussianBlur stdDeviation="10.5"/><feColorMatrix values="0 0 0 0 0 0 0 0 0 0 0 0 0 0 0 0 0 0 0.1 0"/></filter></defs><g transform="translate(0 20)" fill="none" fill-rule="evenodd"><g transform="translate(0 40)"><g transform="translate(0 .055)"><mask id="F" class="B"><use xlink:href="#A"/></mask><path d="M64.698 32.504c0 17.87-14.483 32.355-32.35 32.355S0 50.374 0 32.504 14.483.15 32.35.15s32.35 14.486 32.35 32.355" mask="url(#F)" class="D"/><mask id="G" class="B"><use xlink:href="#B"/></mask><path d="M21.87 28.202c4.132 9.64 3.306 21.052 2.99 25.62-.48 6.935.157 13.455-.6 16.485 0 0-.184-3.91-2.702-11.805-1.275-3.997-4.853-25.656.302-30.3" mask="url(#G)" class="E"/><mask id="H" class="B"><use xlink:href="#C"/></mask><path d="M21.908 35.442c4.49 17.094.2 18.894 6.99 37.147-.102-2.312.817-5.47 1.485-9.13.76-4.17.93-8.106 1.978-12.553 1.264-5.372 4.17-10.658 4.8-11.972l-15.242-3.492z" mask="url(#H)" class="E"/><mask id="I" class="B"><use xlink:href="#D" href="#C"/></mask><path d="M21.908 35.442c.2 2.95 1.574 16.375-5.535 24.266 1.03-3.014 1.917-9.434 1.912-13.642-.002-1.607-1.2-9.36-1.155-17.466 2.53.335 5.13 2.667 5.13 2.667l-.353 4.174z" mask="url(#I)" class="E"/><mask id="J" class="B"><use xlink:href="#E" href="#B"/></mask><path d="M44.152 29.954c1.19 16.018 1.36 30.634-8.33 44.235 0 0 1.51-5.037 1.38-13.17-.046-2.86-.74-14.126-.655-22.075 2.2-4.303 4.94-7.356 7.605-8.99" mask="url(#J)" class="E"/><mask id="K" class="B"><use xlink:href="#F" href="#B"/></mask><path d="M44.648 26.353c3.174 9.494 4.584 19.374 4.017 25.643-.813 8.985-7.03 17-9.13 18.783 0 0 4.166-6.78 2.367-20.148l-1.707-14.093c.075-3.555 2.934-9.962 4.453-10.185" mask="url(#K)" class="E"/><mask id="L" class="B"><use xlink:href="#G" href="#B"/></mask><path d="M39.865 37.136c.206 7.935.077 16.514-1.886 23.402-1.72 6.036-3.97 10.964-6.503 13.483 0 0 1.398-6.836-.176-15.782-.824-4.683-2.746-9.983-5.133-19.138 3.46-2.714 9.912-3.113 13.698-1.965" mask="url(#L)" class="E"/><mask id="M" class="B"><use xlink:href="#H" href="#B"/></mask><path d="M21.58 19.348c-2.113 8.893-1.212 19.23-2.9 26.56-1.26 5.47-2.656 6.512-3.404 9.562-.35-2.357.288-7.08.846-9.916.474-2.408.67-6.886.472-8.736l-.566-6.15s1.033-6.365 5.552-11.32" mask="url(#M)" class="D"/><mask id="N" class="B"><use xlink:href="#I" href="#B"/></mask><path d="M44.905 49.938a2.52 2.52 0 0 1 2.584 1.65l5.625 15.48c2.774 7.632 4.537 15.604 5.24 23.695l1.427 16.407a2.52 2.52 0 0 1-2.291 2.727 2.52 2.52 0 0 1-2.727-2.291l-1.427-16.407c-.666-7.652-2.333-15.192-4.957-22.41l-5.625-15.48a2.52 2.52 0 0 1 1.507-3.227c.213-.077.428-.124.643-.143" mask="url(#N)" class="C"/><mask id="O" class="B"><use xlink:href="#J" href="#B"/></mask><path d="M56.226 71.964a1.06 1.06 0 0 1-.469-1.54l.001-.002a1.06 1.06 0 0 0-.469-1.54l-.208-.09c-.254-.11-.452-.316-.556-.57l-.523-1.477-5.625-15.48a3.47 3.47 0 0 0-3.553-2.268 3.5 3.5 0 0 0-.885.196 3.47 3.47 0 0 0-2.072 4.438l5.87 16.165a1.06 1.06 0 0 1-.116.878l-.12.192a1.06 1.06 0 0 0 .477 1.537l.002.001a1.06 1.06 0 0 1 .477 1.538 1.06 1.06 0 0 0 .478 1.538l.202.086a1.06 1.06 0 0 1 .594.66l6.733-1.66-.046-.17a1.06 1.06 0 0 1 .159-.706l.118-.185a1.06 1.06 0 0 0-.469-1.542" mask="url(#O)" class="F"/><mask id="P" class="B"><use xlink:href="#K" href="#B"/></mask><path d="M19.792 49.938a2.52 2.52 0 0 0-2.584 1.65l-5.625 15.48a92.97 92.97 0 0 0-5.241 23.695l-1.427 16.407a2.52 2.52 0 0 0 2.291 2.727 2.52 2.52 0 0 0 2.727-2.291l1.427-16.407c.666-7.652 2.333-15.192 4.957-22.41l5.625-15.48a2.52 2.52 0 0 0-2.15-3.37" mask="url(#P)" class="C"/><mask id="Q" class="B"><use xlink:href="#L" href="#B"/></mask><path d="M8.472 71.964a1.06 1.06 0 0 0 .469-1.54l-.001-.002a1.06 1.06 0 0 1 .469-1.54l.208-.09c.254-.11.452-.316.556-.57l.523-1.477 5.625-15.48a3.47 3.47 0 0 1 3.553-2.268c.302.026.6.092.885.196a3.47 3.47 0 0 1 2.072 4.438l-5.87 16.165a1.06 1.06 0 0 0 .116.878l.12.192a1.06 1.06 0 0 1-.477 1.537l-.002.001a1.06 1.06 0 0 0-.477 1.538 1.06 1.06 0 0 1-.478 1.538l-.2.086a1.06 1.06 0 0 0-.595.66l-6.733-1.66.046-.17a1.06 1.06 0 0 0-.159-.706l-.118-.185a1.06 1.06 0 0 1 .469-1.542" mask="url(#Q)" class="F"/><mask id="R" class="B"><use xlink:href="#M" href="#B"/></mask><path d="M38.37 43.9a.62.62 0 0 0-.451-.506c-.76-.213-2.608-.622-5.57-.622s-4.81.4-5.57.622a.62.62 0 0 0-.451.506c-.13.873-.52 2.968-1.283 3.26l.88.47a13.63 13.63 0 0 0 12.842 0l.88-.47c-.763-.293-1.152-2.387-1.282-3.26" mask="url(#R)" class="F"/><mask id="S" class="B"><use xlink:href="#N" href="#B"/></mask><path d="M35.815 46.8c0 1.912-1.55 3.463-3.463 3.463s-3.463-1.55-3.463-3.463 1.55-3.463 3.463-3.463 3.463 1.55 3.463 3.463" mask="url(#S)" class="C"/><mask id="T" class="B"><use xlink:href="#O" href="#B"/></mask><path d="M32.35 53.82a3.96 3.96 0 0 1-3.961-3.961V38.603c0-2.188 1.774-3.962 3.96-3.962s3.96 1.774 3.96 3.962V49.86a3.96 3.96 0 0 1-3.961 3.961" mask="url(#T)" class="C"/><mask id="U" class="B"><use xlink:href="#P" href="#B"/></mask><path d="M32.35 34.642c-2.188 0-3.96 1.774-3.96 3.96v5.793c1.26.435 2.59.673 3.96.673s2.7-.238 3.962-.673v-5.793c0-2.187-1.774-3.96-3.96-3.96" mask="url(#U)" class="C"/><mask id="V" class="B"><use xlink:href="#Q" href="#B"/></mask><path d="M47.64 52.447a2.52 2.52 0 0 1-2.518 2.518 2.52 2.52 0 0 1-2.518-2.518 2.52 2.52 0 0 1 2.518-2.518 2.52 2.52 0 0 1 2.518 2.518" mask="url(#V)" class="C"/><mask id="W" class="B"><use xlink:href="#R" href="#B"/></mask><path d="M22.092 52.447a2.52 2.52 0 0 1-2.518 2.518 2.52 2.52 0 0 1-2.519-2.518 2.52 2.52 0 0 1 2.519-2.518 2.52 2.52 0 0 1 2.518 2.518" mask="url(#W)" class="C"/><mask id="X" class="B"><use xlink:href="#S" href="#B"/></mask><path d="M44.76 58.682a5.61 5.61 0 0 1 1.988-4.328c.242-.205.448-.458.603-.755.64-1.23.175-2.742-1.05-3.39-.215-.113-5.36-2.78-13.95-2.78s-13.736 2.665-13.95 2.78c-1.225.647-1.692 2.16-1.05 3.39.155.297.362.55.604.755a5.61 5.61 0 0 1 1.988 4.328l.015 3.78c0 2.515.513 4.884 1.415 6.967h0c1.9 6.205 2.54 11.163-.956 18.958-.795 1.773-2.988 4.392-2.988 9.318 0 13.328.86 14.93 14.925 14.93s14.925-1.602 14.925-14.93c0-4.926-2.193-7.545-2.988-9.318-3.495-7.795-2.867-12.753-.956-18.958h0c.902-2.083 1.415-4.452 1.415-6.967l.015-3.78" mask="url(#X)" class="C"/><mask id="Y" class="B"><use xlink:href="#T" href="#B"/></mask><path d="M45.557 64.5a5.56 5.56 0 0 1-5.559 5.559H24.706a5.56 5.56 0 0 1-5.559-5.559 5.56 5.56 0 0 1 5.559-5.559h15.292a5.56 5.56 0 0 1 5.559 5.559" mask="url(#Y)" class="C"/><mask id="Z" class="B"><use xlink:href="#U" href="#B"/></mask><path d="M31.474 67.038c.6.888.88 1.646.88 2.02 0-.365.265-1.096.837-1.957-.3-.928-.362-1.98-.294-2.88.1-1.294.528-2.443 1.332-3.457-.857.707-1.457 1.546-1.88 2.574-.424-1.028-1.024-1.867-1.88-2.574 1.382 1.744 1.71 4.183 1.007 6.274" mask="url(#Z)" class="C"/><mask id="a" class="B"><use xlink:href="#V" href="#C"/></mask><path d="M21.258 86.326H43.44c-2.462-6.5-1.87-11.075-.2-16.56-.94.582-2.046.925-3.232.925H24.706c-1.19 0-2.296-.344-3.24-.93 1.66 5.488 2.253 10.053-.21 16.565h0zm1.736-18.154c-.8 0-1.56-.16-2.253-.445a17.79 17.79 0 0 1-.788-5.264l-.01-2.035a10.77 10.77 0 0 0-.791-10.547c-.004-.006-.003-.013-.007-.02.93-.403 2.71-1.077 5.234-1.615.01.038.03.07.03.112.476 10.715 5.243 18.093 7.94 18.093s7.465-7.377 7.94-18.093c.002-.04.02-.074.03-.112 2.52.538 4.3 1.2 5.23 1.613-.004.006-.003.013-.007.02a10.77 10.77 0 0 0-1.805 5.985c0 1.634.368 3.18 1.017 4.57l-.01 2.028a17.8 17.8 0 0 1-.788 5.266c-.7.284-1.448.443-2.247.443H22.994z" fill="#e3e8f3" mask="url(#a)"/><mask id="b" class="B"><use xlink:href="#W" href="#B"/></mask><path d="M40.3 48.36l-.11 1.616h5.304l.06-.095c.004-.006.004-.013.007-.02-.93-.403-2.71-1.076-5.23-1.613-.01.038-.03.07-.03.112" mask="url(#b)" class="D"/><mask id="c" class="B"><use xlink:href="#X" href="#C"/></mask><path d="M36.99 61.74a18.43 18.43 0 0 1-1.07 1.816h8.785l.04-1.095.004-.722h-7.76z" mask="url(#c)" class="D"/><mask id="d" class="B"><use xlink:href="#Y" href="#C"/></mask><path d="M38.807 57.214l-.618 1.816h6.04c-.18-.587-.32-1.192-.398-1.816h-5.024z" mask="url(#d)" class="D"/><mask id="e" class="B"><use xlink:href="#Z" href="#C"/></mask><path d="M39.847 52.686l-.34 1.816h4.325c.078-.623.203-1.23.383-1.816h-4.367z" mask="url(#e)" class="D"/><mask id="f" class="B"><use xlink:href="#a" href="#C"/></mask><path d="M26.508 59.03l-.618-1.816h-5.027c-.08.625-.216 1.23-.397 1.816h6.042z" mask="url(#f)" class="D"/><mask id="g" class="B"><use xlink:href="#b" href="#C"/></mask><path d="M25.192 54.503l-.34-1.816h-4.37c.18.585.304 1.194.383 1.816h4.33z" mask="url(#g)" class="D"/><mask id="h" class="B"><use xlink:href="#c" href="#B"/></mask><path d="M27.71 61.74h-7.76l.004.722.04 1.095h8.784a18.43 18.43 0 0 1-1.07-1.816" mask="url(#h)" class="D"/><mask id="i" class="B"><use xlink:href="#d" href="#B"/></mask><path d="M24.408 48.36c-.002-.04-.02-.074-.03-.112-2.523.538-4.303 1.21-5.234 1.614.004.006.003.013.007.02l.058.094h5.308l-.11-1.616" mask="url(#i)" class="D"/><mask id="j" class="B"><use xlink:href="#e" href="#B"/></mask><path d="M20.48 69.757l-.453-.737a6.48 6.48 0 0 1-1.832-4.519c0-1.136.293-2.205.807-3.135L19 60.843l-.007-2.056c.01-1.424-.59-2.8-1.67-3.727-.335-.287-.608-.632-.813-1.025a3.47 3.47 0 0 1 1.447-4.66c.18-.094 3.64-1.89 9.542-2.6-.787 1.825-1.96 4.968-2.4 8.343-.547 4.186-.454 5.328-.6 9.015-.12 3.207-.547 8.234-.547 10.227v9.01a1.26 1.26 0 0 1-1.259 1.259h-1.407c-.212 0-.36-.208-.296-.4 1.63-5.264 1.077-9.27-.517-14.462" mask="url(#j)" class="F"/><mask id="k" class="B"><use xlink:href="#f" href="#B"/></mask><path d="M27.954 45.765c.178-.376.08-.823-.234-1.096l-1-.866s-.262-.206.063-.42h0c-.24.067-.417.263-.454.51-.13.875-.52 2.965-1.282 3.258l1.888 1.008 1.02-2.395" mask="url(#k)" class="F"/><mask id="l" class="B"><use xlink:href="#g" href="#B"/></mask><path d="M27.67 46.38c-.777 1.742-2.1 5.105-2.573 8.737-.547 4.186-.454 5.328-.6 9.015l-.36 6.23c.145-5.726-3.53-8.923-5.174-10.064-.484-.336-.66-.963-.44-1.5 1.86-4.6 8.574-11.166 9.137-12.408" mask="url(#l)" class="F"/><mask id="m" class="B"><use xlink:href="#h" href="#B"/></mask><path d="M44.217 69.757l.453-.737a6.48 6.48 0 0 0 1.832-4.519c0-1.136-.293-2.205-.807-3.135l.004-.523.007-2.056c-.01-1.424.6-2.8 1.67-3.727.335-.287.608-.632.813-1.025a3.47 3.47 0 0 0-1.447-4.66c-.18-.094-3.64-1.89-9.542-2.6.787 1.825 1.96 4.968 2.4 8.343.547 4.186.454 5.328.6 9.015.12 3.207.547 8.234.547 10.227v9.01a1.26 1.26 0 0 0 1.259 1.259h1.407c.212 0 .36-.208.296-.4-1.63-5.264-1.077-9.27.517-14.462" mask="url(#m)" class="F"/><mask id="n" class="B"><use xlink:href="#i" href="#B"/></mask><path d="M37.978 43.803l-1 .866c-.314.272-.41.72-.234 1.096l1.02 2.395 1.888-1.008c-.763-.293-1.15-2.383-1.282-3.258-.037-.247-.214-.442-.454-.51.324.213.063.42.063.42" mask="url(#n)" class="F"/><mask id="o" class="B"><use xlink:href="#j" href="#B"/></mask><path d="M37.027 46.38c.777 1.742 2.1 5.105 2.573 8.737.547 4.186.454 5.328.6 9.015l.36 6.23c-.145-5.726 3.53-8.923 5.174-10.064.484-.336.66-.963.44-1.5-1.86-4.6-8.574-11.166-9.137-12.408" mask="url(#o)" class="F"/><mask id="p" class="B"><use xlink:href="#k" href="#B"/></mask><path d="M45.724 24.934c-.988-.177-2.093 1.376-2.47 3.47s.12 3.934 1.107 4.112 2.093-1.376 2.47-3.47-.12-3.934-1.107-4.112" mask="url(#p)" class="C"/><mask id="q" class="B"><use xlink:href="#l" href="#B"/></mask><path d="M18.98 24.934c.988-.177 2.093 1.376 2.468 3.47s-.12 3.934-1.107 4.112-2.093-1.376-2.47-3.47.12-3.934 1.107-4.112" mask="url(#q)" class="C"/><mask id="r" class="B"><use xlink:href="#m" href="#B"/></mask><path d="M45.226 26.575c0-9.04-2.32-16.365-12.874-16.365s-12.874 7.326-12.874 16.365 5.764 16.367 12.874 16.367 12.874-7.328 12.874-16.367" mask="url(#r)" class="C"/><mask id="s" class="B"><use xlink:href="#n" href="#B"/></mask><path d="M39.765 29.953h.002a1.03 1.03 0 0 0 1.029-1.029v-.646a1.03 1.03 0 0 0-1.029-1.029 1.03 1.03 0 0 0-1.029 1.029v.647a1.03 1.03 0 0 0 1.027 1.027" mask="url(#s)" class="D"/><mask id="t" class="B"><use xlink:href="#o" href="#B"/></mask><path d="M23.908 28.28v.644a1.03 1.03 0 1 0 2.06 0v-.644a1.03 1.03 0 1 0-2.06 0" mask="url(#t)" class="D"/><mask id="u" class="B"><use xlink:href="#p" href="#B"/></mask><path d="M39.116 30.46c-.63-.333-1.408-.092-1.74.536a1.29 1.29 0 0 0 .536 1.74c.3.16.78.575.808.79.083.65.637 1.125 1.276 1.125a1.27 1.27 0 0 0 .164-.01 1.29 1.29 0 0 0 1.115-1.44c-.207-1.633-1.835-2.57-2.16-2.742" mask="url(#u)" class="C"/><mask id="v" class="B"><use xlink:href="#q" href="#B"/></mask><path d="M25.58 30.46c-.324.172-1.952 1.11-2.16 2.742a1.29 1.29 0 0 0 1.115 1.44c.055.007.1.01.164.01a1.29 1.29 0 0 0 1.276-1.125c.024-.186.435-.587.815-.794a1.29 1.29 0 0 0 .53-1.737c-.333-.628-1.11-.87-1.74-.536" mask="url(#v)" class="C"/><mask id="w" class="B"><use xlink:href="#r" href="#B"/></mask><path d="M42.174 24.854c-.142 0-.28-.052-.39-.145-.76-.652-2.023-.79-2.948-.79-.517 0-.9.044-.97.053-.027.004-.057.007-.087.007-.294 0-.546-.223-.586-.518-.022-.158.02-.316.117-.443a.59.59 0 0 1 .396-.23c.002-.001.46-.066 1.123-.066 1.13 0 2.697.187 3.737 1.08a.6.6 0 0 1-.39 1.052" mask="url(#w)" class="D"/><mask id="x" class="B"><use xlink:href="#s" href="#B"/></mask><path d="M22.52 24.854a.6.6 0 0 1-.454-.209.59.59 0 0 1-.142-.435c.012-.16.086-.304.208-.408 1.04-.892 2.606-1.08 3.736-1.08.65 0 1.104.063 1.123.066a.59.59 0 0 1 .511.672c-.04.295-.297.518-.598.518a2.91 2.91 0 0 1-.073-.004c-.007-.001-.405-.053-.967-.053-.928 0-2.194.137-2.955.788a.6.6 0 0 1-.389.145" mask="url(#x)" class="D"/><mask id="y" class="B"><use xlink:href="#t" href="#B"/></mask><path d="M35.703 33.863h-6.7c-.215 0-.42.088-.562.242a.71.71 0 0 0-.187.565c.234 1.964 1.974 3.47 4.054 3.47h.1c2.08 0 3.82-1.506 4.054-3.47a.71.71 0 0 0-.186-.566c-.143-.154-.347-.243-.562-.243" mask="url(#y)" class="B"/><mask id="z" class="B"><use xlink:href="#u" href="#B"/></mask><path d="M34.768 17.873c-5.043-2.577-10.852.203-12.16 12.356 0 0-3.037-16.953 11.785-16.953 11.543 0 8.46 15.45 7.218 19.254-.116-3.638 1.872-16.88-6.844-14.656" mask="url(#z)" class="E"/><mask id="AA" class="B"><use xlink:href="#v" href="#B"/></mask><path d="M37.84 10.2c11.547-2.076 11.735 23.373 12.033 28.725.34 6.135 2.15 9.61 1.784 15.4 0 0-1.06-5.692-2.204-8.584-1.24-3.136-1.805-5.457-1.805-5.457s.585 5.942 1.844 9.615c-1.128-.61-5.024-4.532-6.52-8.86 0 0 .708 7.332 1.692 9.214 0 0-2.484-2.042-3.17-8.867-.543-5.41.82-14.374.61-19.02s-3.948-7.5-7.34-4.506c0 0-2.322-4.407-6.886-2.46s-4.784 9.05-4.658 14.54-.19 16.743-9.108 20.31c0 0 5.02-5.554 5.37-11.33 0 0-4.552 6.11-5.977 6.6 2.982-9.582-.247-31.855 10.666-36.898C33.78 4.198 37.84 10.2 37.84 10.2" mask="url(#AA)" class="E"/><mask id="AB" class="B"><use xlink:href="#w" href="#B"/></mask><path d="M45.99 22.01c.674 4.57.84 12.27 2.63 18.4 1.193 4.077 3.58 7.142 5.03 12.566-.17-3.004-.613-4.676-2.816-12.024-1.696-5.656-4.844-18.93-4.844-18.93" mask="url(#AB)" class="E"/><mask id="AC" class="B"><use xlink:href="#x" href="#B"/></mask><path d="M27.94 9.235c-7.964 1.333-9.722 10.333-11.09 19.37-.488 3.223-.948 6.268-1.653 8.78a37.9 37.9 0 0 1-.552 1.795c-.254 2.422-.592 4.602-1.138 6.356 1.426-.492 5.977-6.6 5.977-6.6-.15 2.472-1.155 4.905-2.257 6.878 1.72-2.19 2.897-4.562 3.752-7.06 1.286-3.76 1.425-12.886 2.243-20.1.63-5.562 4.717-9.418 4.717-9.418" mask="url(#AC)" class="E"/><mask id="AD" class="B"><use xlink:href="#y" href="#B"/></mask><path d="M10.312 50.264s3.928-4.797 6.1-12.54c2.715-9.68 1.89-26.876 11.53-28.5 0 0 .455.446 1.102 2.282-1.07 2.262-5.293 3.725-6.61 13.005-1.423 10.02-2.007 19.4-12.12 25.742" mask="url(#AD)" class="E"/><mask id="AE" class="B"><use xlink:href="#z" href="#B"/></mask><path d="M35.72 15.243c.236-2.112.935-4.805 2.12-5.033s4.153-.557 6.735 2.894c-1.746-1.56-4.448-2.098-5.668-1.81s-1.8 2.073-3.187 3.948" mask="url(#AE)" class="E"/><mask id="AF" class="B"><use xlink:href="#AA" href="#B"/></mask><path d="M34.768 17.873c.698-2.963 1.755-5.12 2.84-5.7 1.045-.558 3.174.2 4.027 1.758 0 0-1.997-1.128-3.843-.105-1.342.744-3.023 4.046-3.023 4.046" mask="url(#AF)" class="E"/></g><circle fill="#10ff08" cx="12.96" cy="58.32" r="6.48"/></g><g transform="translate(25)"><g fill-rule="nonzero"><use fill="#000" filter="url(#E)" xlink:href="#D"/><use xlink:href="#D" class="B"/></g><path d="M28.76 19h12.48a5.76 5.76 0 0 1 0 11.52H28.76a5.76 5.76 0 0 1 0-11.52z" fill-opacity=".5" fill="#878c9a"/></g></g></svg>