<svg xmlns="http://www.w3.org/2000/svg" xmlns:xlink="http://www.w3.org/1999/xlink" width="116" height="125"><style><![CDATA[.B{mask:url(#V)}.C{fill:#fff}.D{fill:#4c62a1}.E{fill:#ff9395}.F{fill:#e3e8f3}]]></style><defs><path d="M32.322.102C14.506.16.082 14.624.082 32.457h0c0 17.87 14.483 32.355 32.35 32.355h0c17.866 0 32.35-14.486 32.35-32.355h0C64.78 14.624 50.356.16 32.54.102h0" id="A"/><path d="M32.322.102C14.506.16.082 14.624.082 32.457h0c0 17.87 14.483 32.355 32.35 32.355h0c17.866 0 32.35-14.486 32.35-32.355h0C64.78 14.624 50.356.16 32.54.102h0-.218z" id="B"/><path d="M55.44 0c7.953 0 14.4 6.447 14.4 14.4v20.16c0 7.953-6.447 14.4-14.4 14.4H29.97l-14.85 10.8v-10.8h-.72C6.447 48.96 0 42.513 0 34.56V14.4C0 6.447 6.447 0 14.4 0h41.04z" id="C"/><filter x="-45.8%" y="-51.9%" width="191.6%" height="207.1%" id="D"><feOffset dy="1" in="SourceAlpha"/><feGaussianBlur stdDeviation="10.5"/><feColorMatrix values="0 0 0 0 0 0 0 0 0 0 0 0 0 0 0 0 0 0 0.1 0"/></filter></defs><g transform="translate(0 20)" fill="none" fill-rule="evenodd"><g transform="translate(0 40)"><path d="M64.78 32.56c0 17.87-14.483 32.355-32.35 32.355S.082 50.43.082 32.56 14.565.204 32.43.204 64.78 14.7 64.78 32.56" fill="#a6cbe0"/><g transform="translate(0 .103)"><mask id="E" class="C"><use xlink:href="#A"/></mask><path d="M60.773 118.498c-1.563.07-2.886-1.142-2.955-2.706l-.774-17.563a93.75 93.75 0 0 0-4.258-24.089l-5.293-16.763c-.47-1.493.357-3.084 1.85-3.555s3.084.357 3.555 1.848l5.293 16.764a99.42 99.42 0 0 1 4.515 25.546l.774 17.563c.07 1.563-1.142 2.886-2.706 2.955" mask="url(#E)" class="E"/><mask id="F" class="C"><use xlink:href="#B"/></mask><path d="M54.095 55.29a4.1 4.1 0 0 0-5.134-2.666c-2.15.68-3.347 2.983-2.666 5.134l5.29 16.764c2.432 7.7 3.85 15.7 4.205 23.763l.428 9.712a.63.63 0 0 0 .657.601l6.92-.305a.63.63 0 0 0 .601-.657l-.428-9.712a100.8 100.8 0 0 0-4.575-25.87L54.095 55.29z" mask="url(#F)" class="D"/><mask id="G" class="C"><use xlink:href="#C" href="#A"/></mask><path d="M4.09 118.498c1.563.07 2.886-1.142 2.955-2.706L7.82 98.23a93.75 93.75 0 0 1 4.258-24.089l5.293-16.763c.47-1.493-.357-3.084-1.85-3.555s-3.084.357-3.555 1.848L6.673 72.434A99.42 99.42 0 0 0 2.158 97.98l-.774 17.563c-.07 1.563 1.142 2.886 2.706 2.955" mask="url(#G)" class="E"/><mask id="H" class="C"><use xlink:href="#D" href="#B"/></mask><path d="M10.768 55.29a4.1 4.1 0 0 1 5.134-2.666c2.15.68 3.347 2.983 2.666 5.134L13.28 74.52c-2.432 7.7-3.85 15.7-4.205 23.763l-.428 9.712a.63.63 0 0 1-.657.601l-6.92-.305a.63.63 0 0 1-.601-.657l.428-9.712a100.8 100.8 0 0 1 4.575-25.87l5.295-16.763z" mask="url(#H)" class="D"/><mask id="I" class="C"><use xlink:href="#E" href="#A"/></mask><path d="M38.116 44.674H26.714c-2.412 0-9.425.737-9.425 4.388 0 .44.177.9.498 1.373.164.24.37.485.604.73 3.08 3.212 11.683 6.523 14.015 6.523h.02c2.305 0 10.768-3.247 13.927-6.428a5.47 5.47 0 0 0 .63-.743c.36-.497.56-.988.56-1.454 0-3.65-7.014-4.388-9.425-4.388" mask="url(#I)" class="D"/><mask id="J" class="C"><use xlink:href="#F" href="#A"/></mask><path d="M36.2 51.158a3.78 3.78 0 0 1-3.778 3.778 3.78 3.78 0 0 1-3.778-3.778 3.78 3.78 0 0 1 3.778-3.778 3.78 3.78 0 0 1 3.778 3.778" mask="url(#J)" class="E"/><mask id="K" class="C"><use xlink:href="#G" href="#A"/></mask><path d="M32.416 60.4c-2.735 0-4.952-2.216-4.952-4.95v-14.73c0-2.735 2.217-4.95 4.952-4.95a4.95 4.95 0 0 1 4.951 4.951v14.73a4.95 4.95 0 0 1-4.951 4.951" mask="url(#K)" class="E"/><mask id="L" class="C"><use xlink:href="#H" href="#A"/></mask><path d="M32.416 35.774c-2.735 0-4.952 2.216-4.952 4.95v7.132c1.568.582 3.23.897 4.952.897s3.384-.315 4.952-.897v-7.132a4.95 4.95 0 0 0-4.951-4.951" mask="url(#L)" class="E"/><mask id="M" class="C"><use xlink:href="#I" href="#A"/></mask><path d="M53.02 56.538c0 1.565-1.268 2.833-2.833 2.833s-2.833-1.27-2.833-2.833 1.27-2.833 2.833-2.833 2.833 1.268 2.833 2.833" mask="url(#M)" class="E"/><mask id="N" class="C"><use xlink:href="#J" href="#A"/></mask><path d="M17.49 56.538c0 1.565-1.268 2.833-2.833 2.833s-2.833-1.27-2.833-2.833 1.268-2.833 2.833-2.833 2.833 1.268 2.833 2.833" mask="url(#N)" class="E"/><mask id="O" class="C"><use xlink:href="#K" href="#A"/></mask><path d="M44.49 51.44c-2.913-.543-6.817-.91-12.074-.91s-9.16.368-12.074.91c-2.036.38-6.298 1.59-7.88 3.3-.85 1.017-1.04 2.833.165 3.996 1.242 1.2 2.15 2.37 2.613 4.3l4.5 17.73c1.688 6.556 1.425 13.476-.73 19.894-.632 1.867-.83 3.185-.812 8.933-.1 7.096.675 9.765 14.215 9.765h.002c13.54 0 14.305-2.67 14.215-9.765.017-5.3-.098-6.826-.812-8.933-2.153-6.418-2.416-13.338-.728-19.894v-.001l4.5-17.728c.464-1.922 1.37-3.092 2.613-4.292 1.204-1.163 1.015-2.98.165-3.996-1.583-1.71-5.845-2.92-7.88-3.3" mask="url(#O)" class="E"/><mask id="P" class="C"><use xlink:href="#L" href="#B"/></mask><path d="M32.43 50.053c-2.578-.016-5.157.068-7.574.256a.52.52 0 0 0-.025.094c-.02.132.038.27.145.37 2.962.687 5.225 1.04 7.454 1.053v-1.775z" mask="url(#P)" class="E"/><mask id="Q" class="C"><use xlink:href="#M" href="#B"/></mask><path d="M32.406 57.688c-.308 0-.73-.057-1.234-.17v43.713h2.487V57.518c-.504.113-.925.17-1.234.17h-.02z" mask="url(#Q)" class="D"/><mask id="R" class="C"><use xlink:href="#N" href="#A"/></mask><path d="M32.43 54.798h-.03l-1.228-.44v3.16c.504.113.926.17 1.234.17h.02c.308 0 .73-.057 1.234-.17v-3.16l-1.228.44" mask="url(#R)" class="D"/><mask id="S" class="C"><use xlink:href="#O" href="#B"/></mask><path d="M31.172 101.23V57.518c-3.286-.705-10.11-3.57-12.78-6.353-.233-.246-.44-.49-.604-.73-2.638.61-4.533 1.51-5.824 2.827-1.85 1.882-1.882 4.873-.063 6.806 1.064 1.133 1.442 2.52 1.807 4.004 1.04 4.237 1.643 8.097 2.405 11.597.17 1.788.724 8.374.082 12.3-.466 2.87-1.7 6.14-2.55 8.16l.006.006 3.98-9.532c.088-.208.315-.315.535-.246l.34.113 1.353.44a.41.41 0 0 1 .265.246c.025.05.038.113.038.17 0 .063-.02.126-.05.19l-5.906 11.767 2.342 1.958h14.626z" mask="url(#S)" class="D"/><mask id="T" class="C"><use xlink:href="#P" href="#A"/></mask><path d="M18.39 51.165c2.67 2.783 9.494 5.647 12.78 6.353v-3.16c-2.814-1.064-4.445-1.977-6.183-3.57-.12-.113-.176-.252-.157-.384.006-.03.013-.063.025-.094-.01.001-.02.002-.03.003v-.003-.604a.27.27 0 0 0-.294-.269c-2.257.19-4.62.5-6.748 1 .164.24.37.485.604.73.473-.098.473-.098 0 0" mask="url(#T)" class="D"/><mask id="U" class="C"><use xlink:href="#Q" href="#A"/></mask><path d="M32.403 108.42c-.26 0-.472-.21-.472-.472v-53.15c0-.26.212-.472.472-.472s.472.21.472.472v53.15c0 .26-.212.472-.472.472" mask="url(#U)" class="D"/><mask id="V" class="C"><use xlink:href="#R" href="#B"/></mask><g class="F B"><path d="M32.055 57.216h.696v-.405h-.696z"/><path d="M32.858 60.7v1.126c0 .087-.07.157-.157.157h-.596c-.086 0-.157-.07-.157-.157V60.7c0-.086.07-.157.157-.157h.596c.087 0 .157.07.157.157h0zm-.856-3.474a.4.4 0 0 0-.401.401v4.278a.4.4 0 0 0 .401.401h.803a.4.4 0 0 0 .402-.401v-4.278a.4.4 0 0 0-.402-.401h-.803zm.802-.416a.4.4 0 0 0 .402-.401v-.906a.4.4 0 0 0-.402-.402H32a.4.4 0 0 0-.401.402v.906a.4.4 0 0 0 .401.401h.803z"/></g><path d="M27.117 54.78c.07-.27-.29-.6-.856-.843v1.184c.46.006.8-.113.856-.34" class="B D"/><path d="M26.26 53.935c-.126-.05-.258-.094-.403-.132a2.66 2.66 0 0 0-.667-.094v19.89c.157-.094.34-.145.535-.145s.377.05.535.145V53.935z" class="B F"/><path d="M24.278 54.042c-.076.283.315.636.913.863V53.71c-.485-.025-.85.1-.913.334" class="B D"/><g class="E B"><path d="M32.43 51.828c-2.23-.015-4.492-.367-7.44-1.04 1.744 1.593 3.38 2.506 6.206 3.57l1.235.44v-2.97z"/><path d="M32.428 50.053l7.546.256a.52.52 0 0 1 .025.094c.02.132-.038.27-.145.37-2.95.687-5.205 1.04-7.426 1.053v-1.775z"/></g><g class="D B"><path d="M33.66 101.23V57.518c3.287-.705 10.11-3.57 12.78-6.353.233-.246.44-.49.604-.73 2.638.61 4.533 1.51 5.824 2.827 1.85 1.882 1.882 4.873.063 6.806-1.064 1.133-1.442 2.52-1.807 4.004-1.04 4.237-1.643 8.097-2.405 11.597-.17 1.788-.724 8.374-.082 12.3.466 2.87 1.7 6.14 2.55 8.16l-.006.006-3.98-9.532c-.088-.208-.315-.315-.535-.246l-.34.113-1.353.44a.41.41 0 0 0-.265.246c-.025.05-.038.113-.038.17 0 .063.02.126.05.19l1.467 2.92 4.44 8.846-2.342 1.958H33.66z"/><path d="M46.44 51.165c-2.67 2.783-9.494 5.647-12.78 6.353v-3.16c2.814-1.064 4.445-1.977 6.183-3.57.12-.113.176-.252.157-.384a.52.52 0 0 0-.025-.094c.01.001.02.002.03.003v-.003-.604a.27.27 0 0 1 .294-.269c2.257.19 4.62.5 6.748 1-.164.24-.37.485-.604.73-.473-.098-.473-.098 0 0"/><path d="M37.713 54.78c-.07-.27.29-.6.856-.843v1.184c-.46.006-.8-.113-.856-.34"/></g><path d="M38.57 53.935c.126-.05.258-.094.403-.132a2.66 2.66 0 0 1 .667-.094v19.89c-.157-.094-.34-.145-.535-.145s-.377.05-.535.145V53.935z" class="B F"/><path d="M40.553 54.042c.076.283-.315.636-.913.863V53.71c.485-.025.85.1.913.334" class="B D"/><g class="E B"><path d="M32.428 51.828c2.22-.015 4.475-.367 7.414-1.04-1.738 1.593-3.368 2.506-6.183 3.57l-1.23.44v-2.97zm14.215-24.526c-1.166-.2-2.47 1.625-2.914 4.096s.142 4.645 1.307 4.854 2.47-1.625 2.914-4.096-.142-4.645-1.307-4.854m-28.413 0c1.166-.2 2.47 1.625 2.914 4.096s-.14 4.645-1.307 4.854-2.47-1.625-2.914-4.096.142-4.645 1.307-4.854"/><path d="M32.442 11.35c-11.148 0-13.864 7.857-13.864 17.548s6.208 17.55 13.864 17.55 13.865-7.857 13.865-17.55S43.6 11.35 32.442 11.35"/></g><path d="M42.863 26.683c-1.7-1.52-4.844-1.096-4.975-1.078a.63.63 0 0 0-.534.711.63.63 0 0 0 .711.536c.742-.105 2.906-.168 3.96.77a.63.63 0 0 0 .889-.052.63.63 0 0 0-.052-.889m-15.866-1.076c-.133-.018-3.267-.443-4.975 1.078a.63.63 0 0 0 .838.941c1.055-.94 3.22-.876 3.962-.772a.63.63 0 0 0 .711-.536.63.63 0 0 0-.534-.711" class="D B"/><path d="M38.98 34.12a.99.99 0 0 0-1.256.608 1 1 0 0 0 .603 1.262c.407.145 1.065.544 1.182.936a.99.99 0 1 0 1.897-.568c-.454-1.516-2.227-2.17-2.427-2.238m-13.076 0c-.2.07-1.974.722-2.427 2.238a.99.99 0 1 0 1.898.568c.117-.392.775-.8 1.182-.936.513-.184.785-.748.603-1.262a.99.99 0 0 0-1.256-.608" class="E B"/><path d="M36.034 36.76h-7.198a.81.81 0 0 0-.804.9 4.38 4.38 0 0 0 4.349 3.866h.106a4.38 4.38 0 0 0 4.349-3.865.81.81 0 0 0-.802-.901" class="B C"/><path d="M23.753 31.198v.677c0 .598.485 1.084 1.084 1.084h.001c.6 0 1.084-.486 1.084-1.084V31.2c0-.6-.486-1.084-1.085-1.084s-1.084.485-1.084 1.084m16.283 1.76c.598 0 1.084-.486 1.084-1.084V31.2c0-.6-.486-1.084-1.084-1.084S38.95 30.6 38.95 31.2v.675c0 .6.486 1.085 1.085 1.085m4.98 3.3c-.625 1.697-1.452 3.25-2.448 4.602 1.9-1.04 3.417-2.73 4.057-5.5-.5.64-1.07.986-1.6.9m-25.198-.002c-.534.096-1.095-.24-1.6-.866.643 2.747 2.167 4.43 4.04 5.46a18.61 18.61 0 0 1-2.433-4.6" class="D B"/><path d="M32.42 10.18h0c3.87 0 9.896 1.072 13.464 3.732-.497-1.8-1.12-3.357-1.866-4.285-1.44-1.867-6.435-3.224-11.598-3.224S22.262 7.76 20.822 9.627c-.746.928-1.37 2.484-1.867 4.285 3.568-2.66 9.593-3.732 13.465-3.732" fill="#fcbf75" class="B"/><g class="D B"><path d="M23.02 18.52l-.275.128.275-.128m20.108.66l-.258-.145.258.145m-1.58-.775l-.285-.12.285.12m1.077.505l-.267-.137.267.137"/><path d="M42.096 18.65l-.275-.128.275.128m-18.516-.366l-.285.12.285-.12m16.8-.324l-.307-.106.307.106m-16.23.102l-.297.113.297-.113"/><path d="M40.98 18.175l-.297-.113.297.113m-19.5 1.138l-.248.153.248-.153"/><path d="M39.774 17.758l-.3-.096.3.096m5.483 2.962l-.2-.178.2.178"/><path d="M44.884 20.388l-.204-.17.204.17m1.026 1.02l-.16-.187.16.187m-1.423-1.337l-.22-.166.22.166m-22.003-1.298l-.267.137.267-.137"/><path d="M44.062 19.763l-.236-.16.236.16m-.454-.297l-.247-.153.247.153m-21.638-.43l-.258.145.258-.145m6.056-1.978l-.3.055.3-.055m-.686.126l-.316.067.316-.067m6.154-.462l-.313-.013.313.013M31.66 16.7l-.313.013.313-.013m-2.933.25l-.293.045.293-.045"/><path d="M29.442 16.86l-.285.035.285-.035m4.823-.097l-.335-.023.335.023"/><path d="M21.015 19.602l-.236.16.236-.16M30.9 16.74l-.335.023.335-.023"/><path d="M30.17 16.8l-.298.03.298-.03m8.326.615l-.325-.08.325.08m.646.168l-.317-.087.317.087m-13.764.09l-.3.096.3-.096m12.44-.412l-.316-.067.316.067m-13.057.604l-.307.106.307-.106m12.355-.74l-.3-.055.3.055m-11.1.373l-.317.087.317-.087"/><path d="M34.97 16.82l-.3-.03.3.03m.714.077l-.285-.035.285.035m.723.098l-.293-.045.293.045m-9.737.33l-.325.08.325-.08m19.524 4.442l-.145-.195.145.195m.25.366l-.127-.2.127.2M20.16 20.217l-.204.17.204-.17m-.918.84l.176-.183-.176.183"/><path d="M19.775 20.54l-.2.178.2-.178m-.983 1.033l-.145.195.145-.195"/><path d="M18.525 21.935l-.127.2.127-.2m2.05-2.03l-.22.166.22-.166"/><path d="M19.1 21.22l-.16.187.16-.187m26.323-.345l.176.183-.176-.183"/></g><path d="M18.387 22.146l.14-.21.122-.167.145-.195.138-.166.16-.188.153-.16.176-.183.166-.156.19-.178.182-.153.204-.17.193-.147.22-.166.204-.14.236-.16.218-.136.248-.153.233-.132.258-.145.247-.127.267-.137.26-.123.275-.128.274-.117.285-.12.283-.11.297-.114.293-.102.307-.106.308-.096.31-.096.637-.176.33-.08.325-.08.67-.142.386-.07.3-.055.408-.063.293-.045.715-.09.728-.07.74-.05.75-.03.76-.01.76.01.75.03.335.023.405.028.73.07.715.09.293.045.408.063.3.055.386.07.316.067.354.076.325.08.33.08.317.087.32.09.31.096.308.096.307.106.293.102.297.114.283.11.285.12.274.117.275.128.262.123.267.137.247.127.258.145.233.132.247.153.218.136.236.16.204.14.22.166.193.147.204.17.182.153.19.178.166.156.176.183.152.16.16.188.14.166.145.195.122.167.127.2c.395.52.81 1.44 1.07 2.403.84-1.924 1.8-5.628.774-7.838-.505-1.077-1.348-2-2.403-2.787-3.568-2.66-9.593-3.732-13.464-3.732h0c-3.87 0-9.897 1.072-13.465 3.732-1.055.786-1.897 1.7-2.403 2.787-1.036 2.208-.07 5.908.772 7.833.262-.96.675-1.88 1.06-2.386" fill="#fcbf75" class="B"/><path d="M46.75 28.482c.413-2.406 1.39-1.293.763-3.945-.262-.962-.676-1.883-1.063-2.39l-.136-.21-.122-.167-.145-.195-.138-.166-.16-.187-.152-.16-.176-.183-.166-.156-.19-.178-.182-.154-.204-.17-.193-.147-.22-.166-.204-.14-.236-.16-.218-.136-.247-.153-.233-.132-.257-.145-.247-.127-.267-.137-.262-.123-.275-.128-.274-.117-.285-.12-.283-.11-.297-.113-.293-.102-.307-.106-.308-.096-.31-.096-.32-.09-.317-.087-.33-.08-.325-.08-.67-.143-.686-.125-.7-.108-.43-.054-.285-.035-.73-.07-.74-.05-.75-.03h-.76-.76l-.75.03-.74.05-.298.03-.43.042-.715.09-.293.045-.408.063-.687.125-.67.143-.325.08-.33.08-.637.176-.31.096-.308.096-.6.207-.58.222-.56.237-.275.128-.26.123-.267.137-.247.127-.257.145-.233.132-.248.153-.217.136-.236.16-.204.14-.22.166-.193.147-.204.17-.182.154-.19.178-.166.156-.176.183-.152.16-.16.187-.138.166-.145.195-.122.167-.127.2c-.398.52-.81 1.437-1.073 2.398v.005c-.626 2.652.35 1.54.763 3.945l.63 3.928-.004.002.212.538c.006.012-.057-2.317.19-5.22.157-1.85.44-3.93.95-5.792l.337-1.305a.87.87 0 0 1 1.222-.573c1.31.632 3.322 1.298 4.277 1.298 3.33 0 3.55-2.43 7.014-2.43 3.457 0 3.533 2.418 8.185 2.953.272.032 1.63.102 3.59.07.037-.001.07-.05.082-.015.504 1.857.787 3.94.944 5.792.252 2.903.19 5.232.19 5.232l.22-.553.63-3.928" class="B D"/></g><circle fill="#10ff08" cx="12.96" cy="58.32" r="6.48"/></g><g transform="translate(25)" fill-rule="nonzero"><use fill="#000" filter="url(#D)" xlink:href="#C"/><use xlink:href="#C" class="C"/><path d="M27.808 28.204c0 1.562-1.276 2.838-2.838 2.838s-2.838-1.276-2.838-2.838 1.276-2.838 2.838-2.838h2.838v2.838zm1.43 0c0-1.562 1.276-2.838 2.838-2.838s2.838 1.276 2.838 2.838V35.3c0 1.562-1.276 2.838-2.838 2.838s-2.838-1.276-2.838-2.838v-7.106z" fill="#e01e5a"/><path d="M32.076 16.808c-1.562 0-2.838-1.276-2.838-2.838s1.276-2.838 2.838-2.838 2.838 1.276 2.838 2.838v2.838h-2.838zm0 1.43c1.562 0 2.838 1.276 2.838 2.838s-1.276 2.838-2.838 2.838H24.97c-1.562 0-2.838-1.276-2.838-2.838s1.276-2.838 2.838-2.838h7.106z" fill="#36c5f0"/><path d="M43.472 21.076c0-1.562 1.276-2.838 2.838-2.838s2.838 1.276 2.838 2.838-1.276 2.838-2.838 2.838h-2.838v-2.838zm-1.43 0c0 1.562-1.276 2.838-2.838 2.838s-2.838-1.276-2.838-2.838V13.97c0-1.562 1.276-2.838 2.838-2.838s2.838 1.276 2.838 2.838v7.106z" fill="#2eb67d"/><path d="M39.204 32.472c1.562 0 2.838 1.276 2.838 2.838s-1.276 2.838-2.838 2.838-2.838-1.276-2.838-2.838v-2.838h2.838zm0-1.43c-1.562 0-2.838-1.276-2.838-2.838s1.276-2.838 2.838-2.838H46.3c1.562 0 2.838 1.276 2.838 2.838s-1.276 2.838-2.838 2.838h-7.106z" fill="#ecb22e"/></g></g></svg>