<svg xmlns="http://www.w3.org/2000/svg" xmlns:xlink="http://www.w3.org/1999/xlink" width="116" height="125"><style><![CDATA[.B{fill:#fff}.C{fill:#ff9395}.D{fill:#4c62a1}.E{fill-opacity:.5}]]></style><defs><path d="M32.43.2C14.564.2.08 14.688.08 32.557h0c0 17.87 14.483 32.355 32.35 32.355h0c17.866 0 32.35-14.486 32.35-32.355h0" id="A"/><path d="M32.43.2C14.564.2.08 14.688.08 32.557h0c0 17.87 14.483 32.355 32.35 32.355h0c17.866 0 32.35-14.486 32.35-32.355h0C64.78 14.688 50.295.2 32.43.2z" id="B"/><path d="M55.44 0c7.953 0 14.4 6.447 14.4 14.4v20.16c0 7.953-6.447 14.4-14.4 14.4H29.97l-14.85 10.8v-10.8h-.72C6.447 48.96 0 42.513 0 34.56V14.4C0 6.447 6.447 0 14.4 0h41.04z" id="C"/><filter x="-45.8%" y="-51.9%" width="191.6%" height="207.1%" id="D"><feOffset dy="1" in="SourceAlpha"/><feGaussianBlur stdDeviation="10.5"/><feColorMatrix values="0 0 0 0 0 0 0 0 0 0 0 0 0 0 0 0 0 0 0.1 0"/></filter></defs><g transform="translate(0 20)" fill="none" fill-rule="evenodd"><g transform="translate(0 40)"><path d="M64.78 32.56c0 17.87-14.483 32.355-32.35 32.355S.08 50.43.08 32.56 14.564.205 32.43.205 64.78 14.69 64.78 32.56" fill="#fcbf75"/><g transform="translate(0 .003)"><mask id="E" class="B"><use xlink:href="#A"/></mask><path d="M36.207 49.302a3.78 3.78 0 0 1-3.778 3.778 3.78 3.78 0 0 1-3.778-3.778 3.78 3.78 0 0 1 3.778-3.777 3.78 3.78 0 0 1 3.778 3.777" mask="url(#E)" class="C"/><mask id="F" class="B"><use xlink:href="#B" href="#A"/></mask><path d="M32.424 58.554c-2.735 0-4.952-2.216-4.952-4.95v-14.73c0-2.735 2.217-4.95 4.952-4.95a4.95 4.95 0 0 1 4.951 4.951v14.73a4.95 4.95 0 0 1-4.951 4.951" mask="url(#F)" class="C"/><mask id="G" class="B"><use xlink:href="#C" href="#A"/></mask><path d="M32.424 33.92c-2.735 0-4.952 2.216-4.952 4.95v7.13c1.568.582 3.23.897 4.952.897s3.384-.315 4.952-.897v-7.13a4.95 4.95 0 0 0-4.951-4.951" mask="url(#G)" class="C"/><mask id="H" class="B"><use xlink:href="#D" href="#A"/></mask><path d="M53.028 54.683c0 1.565-1.27 2.833-2.833 2.833s-2.833-1.268-2.833-2.833 1.268-2.833 2.833-2.833 2.833 1.268 2.833 2.833" mask="url(#H)" class="C"/><mask id="I" class="B"><use xlink:href="#E" href="#A"/></mask><path d="M17.498 54.683c0 1.565-1.268 2.833-2.833 2.833s-2.833-1.268-2.833-2.833 1.27-2.833 2.833-2.833 2.833 1.268 2.833 2.833" mask="url(#I)" class="C"/><mask id="J" class="B"><use xlink:href="#F" href="#A"/></mask><path d="M44.498 49.584c-2.913-.543-6.817-.91-12.074-.91s-9.16.368-12.074.91c-2.036.38-6.298 1.59-7.88 3.3-.85 1.017-1.04 2.833.165 3.996 1.242 1.2 2.15 2.37 2.613 4.3h0l4.5 17.73c1.688 6.556 1.425 13.476-.728 19.894-.632 1.867-.83 3.185-.812 8.933-.1 7.096.675 9.765 14.215 9.765h.002c13.54 0 14.305-2.67 14.215-9.765.017-5.31-.098-6.825-.812-8.933-2.153-6.418-2.416-13.338-.728-19.894h0l4.5-17.728c.464-1.922 1.37-3.092 2.613-4.292 1.204-1.163 1.015-2.98.165-3.996-1.582-1.71-5.845-2.92-7.88-3.3" mask="url(#J)" class="C"/><mask id="K" class="B"><use xlink:href="#G" href="#A"/></mask><path d="M60.77 116.658c-1.563.07-2.886-1.143-2.955-2.706L57.042 96.4c-.36-8.178-1.792-16.284-4.256-24.09l-5.292-16.764c-.47-1.493.357-3.084 1.85-3.555s3.084.357 3.555 1.848L58.2 70.594a99.43 99.43 0 0 1 4.514 25.547l.773 17.563c.07 1.563-1.143 2.886-2.706 2.955" mask="url(#K)" class="C"/><mask id="L" class="B"><use xlink:href="#B"/></mask><path d="M63.332 96.113c-.384-8.727-1.913-17.377-4.542-25.708L53.498 53.64a3.47 3.47 0 0 0-3.453-2.418c-.302.013-.602.067-.892.158a3.47 3.47 0 0 0-2.259 4.345L52.186 72.5c2.448 7.753 3.87 15.803 4.228 23.927l.622 14.128c.008.174.155.308.328.3l6.3-.277c.174-.008.308-.155.3-.328l-.622-14.127z" fill="#b6a7b5" mask="url(#L)"/><mask id="M" class="B"><use xlink:href="#I" href="#A"/></mask><path d="M4.09 116.658c1.563.07 2.886-1.143 2.955-2.706L7.817 96.4c.36-8.178 1.792-16.284 4.256-24.09l5.292-16.764c.47-1.493-.357-3.084-1.85-3.555s-3.084.357-3.555 1.848L6.67 70.594a99.43 99.43 0 0 0-4.514 25.547l-.773 17.563c-.07 1.563 1.143 2.886 2.706 2.955" mask="url(#M)" class="C"/><mask id="N" class="B"><use xlink:href="#J" href="#B"/></mask><path d="M1.527 96.113C1.91 87.386 3.44 78.736 6.07 70.405L11.36 53.64a3.47 3.47 0 0 1 3.453-2.418c.302.013.602.067.892.158a3.47 3.47 0 0 1 2.259 4.345L12.674 72.5c-2.448 7.753-3.87 15.803-4.228 23.927l-.622 14.128c-.008.174-.155.308-.328.3l-6.3-.277c-.174-.008-.308-.155-.3-.328l.622-14.127z" fill="#b6a7b5" mask="url(#N)"/><mask id="O" class="B"><use xlink:href="#K" href="#A"/></mask><path d="M52.84 52.456c-1.734-1.872-6.14-3.102-8.227-3.49-1.314-.245-2.765-.44-4.335-.587-2.407 4.828-7.242 6.04-7.856 6.04s-5.45-1.21-7.856-6.04l-4.333.587c-2.088.39-6.494 1.62-8.248 3.515-1.034 1.237-1.248 3.444.2 4.852 1.19 1.148 2.01 2.215 2.44 3.986l3.65 14.447.852 3.292a34.35 34.35 0 0 1-.725 19.567 14.75 14.75 0 0 0-.768 4.713 92.16 92.16 0 0 1-.035 2.224l-.03 2.247c.001.174.144.312.317.312h29.055c.173 0 .316-.138.317-.312a74.04 74.04 0 0 0-.031-2.247l-.035-2.224c0-1.612-.26-3.198-.768-4.713-2.136-6.347-2.387-13.114-.725-19.568l.855-3.302 3.648-14.438c.427-1.77 1.25-2.837 2.438-3.985 1.458-1.408 1.244-3.615.19-4.877" mask="url(#O)" class="D"/><mask id="P" class="B"><use xlink:href="#L" href="#A"/></mask><path d="M24.568 48.378c2.407 4.828 7.242 6.038 7.856 6.038s5.45-1.21 7.855-6.04L38.4 48.23c-.114-.007-.224.05-.286.147-1.943 3.056-5.05 3.973-5.692 4.132-.642-.16-3.75-1.076-5.692-4.132-.06-.096-.172-.155-.285-.147l-1.878.148" mask="url(#P)" class="D"/><mask id="Q" class="B"><use xlink:href="#M" href="#A"/></mask><path d="M46.63 24.76c-1.166-.21-2.47 1.625-2.914 4.097s.142 4.645 1.307 4.854 2.47-1.625 2.914-4.096-.142-4.645-1.307-4.854" mask="url(#Q)" class="C"/><mask id="R" class="B"><use xlink:href="#N" href="#A"/></mask><path d="M18.217 24.76c1.166-.21 2.47 1.625 2.914 4.097S21 33.5 19.825 33.71s-2.47-1.625-2.914-4.096.142-4.645 1.307-4.854" mask="url(#R)" class="C"/><mask id="S" class="B"><use xlink:href="#O" href="#A"/></mask><path d="M46.63 24.76c-1.166-.21-2.47 1.625-2.914 4.097s.14 4.645 1.307 4.854 2.47-1.625 2.914-4.096-.142-4.645-1.307-4.854" mask="url(#S)" class="C"/><mask id="T" class="B"><use xlink:href="#P" href="#A"/></mask><path d="M18.216 24.76c1.166-.21 2.47 1.625 2.914 4.097s-.14 4.645-1.307 4.854-2.47-1.625-2.914-4.096.142-4.645 1.307-4.854" mask="url(#T)" class="C"/><mask id="U" class="B"><use xlink:href="#Q" href="#A"/></mask><path d="M32.428 8.808c-11.148 0-13.865 7.857-13.865 17.548s6.208 17.55 13.865 17.55 13.865-7.857 13.865-17.55S43.577 8.808 32.428 8.808" mask="url(#U)" class="C"/><mask id="V" class="B"><use xlink:href="#R" href="#A"/></mask><path d="M42.85 24.14c-1.71-1.52-4.844-1.096-4.975-1.078a.63.63 0 0 0-.534.711.63.63 0 0 0 .711.536c.742-.105 2.906-.168 3.96.772a.63.63 0 0 0 .889-.052.63.63 0 0 0-.052-.889" mask="url(#V)" class="D"/><mask id="W" class="B"><use xlink:href="#S" href="#A"/></mask><path d="M26.983 23.062c-.133-.018-3.267-.443-4.975 1.078a.63.63 0 0 0-.052.889c.124.14.297.21.47.21a.63.63 0 0 0 .419-.159c1.055-.94 3.22-.876 3.96-.77a.63.63 0 0 0 .711-.536.63.63 0 0 0-.534-.711" mask="url(#W)" class="D"/><mask id="X" class="B"><use xlink:href="#T" href="#A"/></mask><path d="M38.967 31.576a.99.99 0 0 0-1.256.608c-.18.514.1 1.08.603 1.262.407.145 1.065.544 1.183.936a.99.99 0 0 0 1.232.665.99.99 0 0 0 .665-1.233c-.454-1.516-2.227-2.17-2.427-2.238" mask="url(#X)" class="C"/><mask id="Y" class="B"><use xlink:href="#U" href="#A"/></mask><path d="M25.9 31.576c-.2.07-1.974.722-2.427 2.238a.99.99 0 0 0 1.175 1.249.99.99 0 0 0 .723-.681c.117-.392.775-.79 1.182-.936.513-.183.785-.748.603-1.262a.99.99 0 0 0-1.256-.608" mask="url(#Y)" class="C"/><mask id="Z" class="B"><use xlink:href="#V" href="#A"/></mask><path d="M36.02 34.217h-7.198a.81.81 0 0 0-.803.9 4.38 4.38 0 0 0 4.349 3.867h.106a4.38 4.38 0 0 0 4.349-3.865.81.81 0 0 0-.802-.901" mask="url(#Z)" class="B"/><mask id="a" class="B"><use xlink:href="#W" href="#A"/></mask><path d="M23.746 28.662v.677c0 .598.485 1.084 1.084 1.084h.001c.6 0 1.084-.486 1.084-1.084v-.676c0-.6-.486-1.085-1.085-1.085s-1.084.485-1.084 1.084" mask="url(#a)" class="D"/><mask id="b" class="B"><use xlink:href="#X" href="#A"/></mask><path d="M40.03 30.423c.598 0 1.084-.486 1.084-1.084v-.677c0-.6-.486-1.084-1.084-1.084s-1.085.486-1.085 1.085v.675c0 .6.486 1.085 1.085 1.085" mask="url(#b)" class="D"/><mask id="c" class="B"><use xlink:href="#Y" href="#B"/></mask><path d="M19.485 31.57a.49.49 0 0 0 .383-.184c.093-.117.128-.27.096-.414-.406-1.83-.58-3.834-.58-5.942 0-.667-.033-1.928.774-3.417 1.25-2.31 2.858-5.755 3.243-8.783a1.09 1.09 0 0 1 .395-.709c.24-.193.573-.183.794.02 1.297 1.188 3.774 2.783 7.84 2.904.164.012.334.012.504.012 2.446 0 4.533-.903 6.21-2.067a1.62 1.62 0 0 1 2.437.753l.047.137 1.133 3.645c.454 1.146.976 2.26 1.543 3.356l.403.762c.63 1.17.77 2.18.77 3.387 0 2.1-.173 4.113-.58 5.942a.49.49 0 0 0 .479.598h.673a.67.67 0 0 0 .661-.549 23.46 23.46 0 0 0 .404-4.342c0-5.667-.783-12.01-5.083-15.667-.082-.07-.132-.17-.14-.276a.4.4 0 0 1 .1-.292c.814-.913 1.38-1.734 1.68-2.202.052-.08.056-.184.01-.27s-.136-.137-.232-.137c-.327 0-10.692-.005-11.02.006-1.46.056-3.94.277-6.1 1.14-7.568 2.814-8.582 11.138-8.582 17.698a23.46 23.46 0 0 0 .404 4.342c.06.318.337.55.66.55h.672z" mask="url(#c)" class="D"/></g><circle fill="#10ff08" cx="12.96" cy="58.32" r="6.48"/></g><g transform="translate(25)"><g fill-rule="nonzero"><use fill="#000" filter="url(#D)" xlink:href="#C"/><use xlink:href="#C" class="B"/></g><g fill="#878c9a" class="E"><circle cx="18.76" cy="24.76" r="5.76"/><circle cx="35.32" cy="24.76" r="5.76"/><circle cx="51.88" cy="24.76" r="5.76"/></g></g></g></svg>