<?xml version="1.0" encoding="UTF-8"?>
<svg version="1.1" viewBox="0 0 444 533" xmlns="http://www.w3.org/2000/svg">
<title>Illustration/hero-enterprise-614x550</title>
<desc>Created with Sketch.</desc>
<g fill="none" fill-rule="evenodd">
<g transform="translate(-970 -255)">
<g transform="translate(0 110)">
<g transform="translate(877 136.02)">
<g transform="translate(77 9)">
<g transform="translate(79 36.999)" fill="#414141" fill-rule="nonzero" opacity=".4">
<g transform="translate(127)">
<rect id="dot" width="6.0017" height="6.0047" rx="3.0008"/>
<rect id="dot" x="24.007" width="6.0017" height="6.0047" rx="3.0008"/>
<rect id="dot" x="48.013" width="6.0017" height="6.0047" rx="3.0008"/>
<rect id="dot" x="72.02" width="6.0017" height="6.0047" rx="3.0008"/>
<rect id="dot" x="96.027" width="6.0017" height="6.0047" rx="3.0008"/>
<rect id="dot" x="120.03" width="6.0017" height="6.0047" rx="3.0008"/>
<rect id="dot" x="144.04" width="6.0017" height="6.0047" rx="3.0008"/>
<rect id="dot" x="168.05" width="6.0017" height="6.0047" rx="3.0008"/>
<rect id="dot" x="192.05" width="6.0017" height="6.0047" rx="3.0008"/>
<rect id="dot" x="216.06" width="6.0017" height="6.0047" rx="3.0008"/>
<rect id="dot" y="24.019" width="6.0017" height="6.0047" rx="3.0008"/>
<rect id="dot" x="24.007" y="24.019" width="6.0017" height="6.0047" rx="3.0008"/>
<rect id="dot" x="48.013" y="24.019" width="6.0017" height="6.0047" rx="3.0008"/>
<rect id="dot" x="72.02" y="24.019" width="6.0017" height="6.0047" rx="3.0008"/>
<rect id="dot" x="96.027" y="24.019" width="6.0017" height="6.0047" rx="3.0008"/>
<rect id="dot" x="120.03" y="24.019" width="6.0017" height="6.0047" rx="3.0008"/>
<rect id="dot" x="144.04" y="24.019" width="6.0017" height="6.0047" rx="3.0008"/>
<rect id="dot" x="168.05" y="24.019" width="6.0017" height="6.0047" rx="3.0008"/>
<rect id="dot" x="192.05" y="24.019" width="6.0017" height="6.0047" rx="3.0008"/>
<rect id="dot" x="216.06" y="24.019" width="6.0017" height="6.0047" rx="3.0008"/>
<rect id="dot" y="48.037" width="6.0017" height="6.0047" rx="3.0008"/>
<rect id="dot" x="24.007" y="48.037" width="6.0017" height="6.0047" rx="3.0008"/>
<rect id="dot" x="48.013" y="48.037" width="6.0017" height="6.0047" rx="3.0008"/>
<rect id="dot" x="72.02" y="48.037" width="6.0017" height="6.0047" rx="3.0008"/>
<rect id="dot" x="96.027" y="48.037" width="6.0017" height="6.0047" rx="3.0008"/>
<rect id="dot" x="120.03" y="48.037" width="6.0017" height="6.0047" rx="3.0008"/>
<rect id="dot" x="144.04" y="48.037" width="6.0017" height="6.0047" rx="3.0008"/>
<rect id="dot" x="168.05" y="48.037" width="6.0017" height="6.0047" rx="3.0008"/>
<rect id="dot" x="192.05" y="48.037" width="6.0017" height="6.0047" rx="3.0008"/>
<rect id="dot" x="216.06" y="48.037" width="6.0017" height="6.0047" rx="3.0008"/>
<rect id="dot" y="72.056" width="6.0017" height="6.0047" rx="3.0008"/>
<rect id="dot" x="24.007" y="72.056" width="6.0017" height="6.0047" rx="3.0008"/>
<rect id="dot" x="48.013" y="72.056" width="6.0017" height="6.0047" rx="3.0008"/>
<rect id="dot" x="72.02" y="72.056" width="6.0017" height="6.0047" rx="3.0008"/>
<rect id="dot" x="96.027" y="72.056" width="6.0017" height="6.0047" rx="3.0008"/>
<rect id="dot" x="120.03" y="72.056" width="6.0017" height="6.0047" rx="3.0008"/>
<rect id="dot" x="144.04" y="72.056" width="6.0017" height="6.0047" rx="3.0008"/>
<rect id="dot" x="168.05" y="72.056" width="6.0017" height="6.0047" rx="3.0008"/>
<rect id="dot" x="192.05" y="72.056" width="6.0017" height="6.0047" rx="3.0008"/>
<rect id="dot" x="216.06" y="72.056" width="6.0017" height="6.0047" rx="3.0008"/>
<rect id="dot" y="96.075" width="6.0017" height="6.0047" rx="3.0008"/>
<rect id="dot" x="24.007" y="96.075" width="6.0017" height="6.0047" rx="3.0008"/>
<rect id="dot" x="48.013" y="96.075" width="6.0017" height="6.0047" rx="3.0008"/>
<rect id="dot" x="72.02" y="96.075" width="6.0017" height="6.0047" rx="3.0008"/>
<rect id="dot" x="96.027" y="96.075" width="6.0017" height="6.0047" rx="3.0008"/>
<rect id="dot" x="120.03" y="96.075" width="6.0017" height="6.0047" rx="3.0008"/>
<rect id="dot" x="144.04" y="96.075" width="6.0017" height="6.0047" rx="3.0008"/>
<rect id="dot" x="168.05" y="96.075" width="6.0017" height="6.0047" rx="3.0008"/>
<rect id="dot" x="192.05" y="96.075" width="6.0017" height="6.0047" rx="3.0008"/>
<rect id="dot" x="216.06" y="96.075" width="6.0017" height="6.0047" rx="3.0008"/>
<rect id="dot" y="120.09" width="6.0017" height="6.0047" rx="3.0008"/>
<rect id="dot" x="24.007" y="120.09" width="6.0017" height="6.0047" rx="3.0008"/>
<rect id="dot" x="48.013" y="120.09" width="6.0017" height="6.0047" rx="3.0008"/>
<rect id="dot" x="72.02" y="120.09" width="6.0017" height="6.0047" rx="3.0008"/>
<rect id="dot" x="96.027" y="120.09" width="6.0017" height="6.0047" rx="3.0008"/>
<rect id="e" x="120.03" y="120.09" width="6.0017" height="6.0047" rx="3.0008"/>
<rect id="dot" x="144.04" y="120.09" width="6.0017" height="6.0047" rx="3.0008"/>
<rect id="dot" x="168.05" y="120.09" width="6.0017" height="6.0047" rx="3.0008"/>
<rect id="dot" x="192.05" y="120.09" width="6.0017" height="6.0047" rx="3.0008"/>
<rect id="dot" x="216.06" y="120.09" width="6.0017" height="6.0047" rx="3.0008"/>
<rect id="dot" y="144.11" width="6.0017" height="6.0047" rx="3.0008"/>
<rect id="dot" x="24.007" y="144.11" width="6.0017" height="6.0047" rx="3.0008"/>
<rect id="dot" x="48.013" y="144.11" width="6.0017" height="6.0047" rx="3.0008"/>
<rect id="dot" x="72.02" y="144.11" width="6.0017" height="6.0047" rx="3.0008"/>
<rect id="dot" x="96.027" y="144.11" width="6.0017" height="6.0047" rx="3.0008"/>
<rect id="dot" x="120.03" y="144.11" width="6.0017" height="6.0047" rx="3.0008"/>
<rect id="dot" x="144.04" y="144.11" width="6.0017" height="6.0047" rx="3.0008"/>
<rect id="dot" x="168.05" y="144.11" width="6.0017" height="6.0047" rx="3.0008"/>
<rect id="dot" x="192.05" y="144.11" width="6.0017" height="6.0047" rx="3.0008"/>
<rect id="dot" x="216.06" y="144.11" width="6.0017" height="6.0047" rx="3.0008"/>
<rect id="dot" y="168.13" width="6.0017" height="6.0047" rx="3.0008"/>
<rect id="dot" x="24.007" y="168.13" width="6.0017" height="6.0047" rx="3.0008"/>
<rect id="dot" x="48.013" y="168.13" width="6.0017" height="6.0047" rx="3.0008"/>
<rect id="dot" x="72.02" y="168.13" width="6.0017" height="6.0047" rx="3.0008"/>
<rect id="dot" x="96.027" y="168.13" width="6.0017" height="6.0047" rx="3.0008"/>
<rect id="dot" x="120.03" y="168.13" width="6.0017" height="6.0047" rx="3.0008"/>
<rect id="dot" x="144.04" y="168.13" width="6.0017" height="6.0047" rx="3.0008"/>
<rect id="dot" x="168.05" y="168.13" width="6.0017" height="6.0047" rx="3.0008"/>
<rect id="dot" x="192.05" y="168.13" width="6.0017" height="6.0047" rx="3.0008"/>
<rect id="dot" x="216.06" y="168.13" width="6.0017" height="6.0047" rx="3.0008"/>
<rect id="dot" y="192.15" width="6.0017" height="6.0047" rx="3.0008"/>
<rect id="dot" x="24.007" y="192.15" width="6.0017" height="6.0047" rx="3.0008"/>
<rect id="dot" x="48.013" y="192.15" width="6.0017" height="6.0047" rx="3.0008"/>
<rect id="dot" x="72.02" y="192.15" width="6.0017" height="6.0047" rx="3.0008"/>
<rect id="dot" x="96.027" y="192.15" width="6.0017" height="6.0047" rx="3.0008"/>
<rect id="dot" x="120.03" y="192.15" width="6.0017" height="6.0047" rx="3.0008"/>
<rect id="dot" x="144.04" y="192.15" width="6.0017" height="6.0047" rx="3.0008"/>
<rect id="dot" x="168.05" y="192.15" width="6.0017" height="6.0047" rx="3.0008"/>
<rect id="dot" x="192.05" y="192.15" width="6.0017" height="6.0047" rx="3.0008"/>
<rect id="dot" x="216.06" y="192.15" width="6.0017" height="6.0047" rx="3.0008"/>
</g>
<g transform="translate(0 233)">
<rect id="dot" width="6.0017" height="6.0047" rx="3.0008"/>
<rect id="dot" x="24.007" width="6.0017" height="6.0047" rx="3.0008"/>
<rect id="dot" x="48.013" width="6.0017" height="6.0047" rx="3.0008"/>
<rect id="dot" x="72.02" width="6.0017" height="6.0047" rx="3.0008"/>
<rect id="dot" x="96.027" width="6.0017" height="6.0047" rx="3.0008"/>
<rect id="dot" x="120.03" width="6.0017" height="6.0047" rx="3.0008"/>
<rect id="dot" x="144.04" width="6.0017" height="6.0047" rx="3.0008"/>
<rect id="dot" x="168.05" width="6.0017" height="6.0047" rx="3.0008"/>
<rect id="dot" x="192.05" width="6.0017" height="6.0047" rx="3.0008"/>
<rect id="dot" x="216.06" width="6.0017" height="6.0047" rx="3.0008"/>
<rect id="dot" y="24.019" width="6.0017" height="6.0047" rx="3.0008"/>
<rect id="dot" x="24.007" y="24.019" width="6.0017" height="6.0047" rx="3.0008"/>
<rect id="dot" x="48.013" y="24.019" width="6.0017" height="6.0047" rx="3.0008"/>
<rect id="dot" x="72.02" y="24.019" width="6.0017" height="6.0047" rx="3.0008"/>
<rect id="dot" x="96.027" y="24.019" width="6.0017" height="6.0047" rx="3.0008"/>
<rect id="dot" x="120.03" y="24.019" width="6.0017" height="6.0047" rx="3.0008"/>
<rect id="dot" x="144.04" y="24.019" width="6.0017" height="6.0047" rx="3.0008"/>
<rect id="dot" x="168.05" y="24.019" width="6.0017" height="6.0047" rx="3.0008"/>
<rect id="dot" x="192.05" y="24.019" width="6.0017" height="6.0047" rx="3.0008"/>
<rect id="dot" x="216.06" y="24.019" width="6.0017" height="6.0047" rx="3.0008"/>
<rect id="dot" y="48.037" width="6.0017" height="6.0047" rx="3.0008"/>
<rect id="dot" x="24.007" y="48.037" width="6.0017" height="6.0047" rx="3.0008"/>
<rect id="dot" x="48.013" y="48.037" width="6.0017" height="6.0047" rx="3.0008"/>
<rect id="dot" x="72.02" y="48.037" width="6.0017" height="6.0047" rx="3.0008"/>
<rect id="dot" x="96.027" y="48.037" width="6.0017" height="6.0047" rx="3.0008"/>
<rect id="dot" x="120.03" y="48.037" width="6.0017" height="6.0047" rx="3.0008"/>
<rect id="dot" x="144.04" y="48.037" width="6.0017" height="6.0047" rx="3.0008"/>
<rect id="dot" x="168.05" y="48.037" width="6.0017" height="6.0047" rx="3.0008"/>
<rect id="dot" x="192.05" y="48.037" width="6.0017" height="6.0047" rx="3.0008"/>
<rect id="dot" x="216.06" y="48.037" width="6.0017" height="6.0047" rx="3.0008"/>
<rect id="dot" y="72.056" width="6.0017" height="6.0047" rx="3.0008"/>
<rect id="dot" x="24.007" y="72.056" width="6.0017" height="6.0047" rx="3.0008"/>
<rect id="dot" x="48.013" y="72.056" width="6.0017" height="6.0047" rx="3.0008"/>
<rect id="dot" x="72.02" y="72.056" width="6.0017" height="6.0047" rx="3.0008"/>
<rect id="dot" x="96.027" y="72.056" width="6.0017" height="6.0047" rx="3.0008"/>
<rect id="dot" x="120.03" y="72.056" width="6.0017" height="6.0047" rx="3.0008"/>
<rect id="dot" x="144.04" y="72.056" width="6.0017" height="6.0047" rx="3.0008"/>
<rect id="dot" x="168.05" y="72.056" width="6.0017" height="6.0047" rx="3.0008"/>
<rect id="dot" x="192.05" y="72.056" width="6.0017" height="6.0047" rx="3.0008"/>
<rect id="dot" x="216.06" y="72.056" width="6.0017" height="6.0047" rx="3.0008"/>
<rect id="dot" y="96.075" width="6.0017" height="6.0047" rx="3.0008"/>
<rect id="dot" x="24.007" y="96.075" width="6.0017" height="6.0047" rx="3.0008"/>
<rect id="dot" x="48.013" y="96.075" width="6.0017" height="6.0047" rx="3.0008"/>
<rect id="dot" x="72.02" y="96.075" width="6.0017" height="6.0047" rx="3.0008"/>
<rect id="dot" x="96.027" y="96.075" width="6.0017" height="6.0047" rx="3.0008"/>
<rect id="dot" x="120.03" y="96.075" width="6.0017" height="6.0047" rx="3.0008"/>
<rect id="dot" x="144.04" y="96.075" width="6.0017" height="6.0047" rx="3.0008"/>
<rect id="dot" x="168.05" y="96.075" width="6.0017" height="6.0047" rx="3.0008"/>
<rect id="dot" x="192.05" y="96.075" width="6.0017" height="6.0047" rx="3.0008"/>
<rect id="dot" x="216.06" y="96.075" width="6.0017" height="6.0047" rx="3.0008"/>
<rect id="dot" y="120.09" width="6.0017" height="6.0047" rx="3.0008"/>
<rect id="dot" x="24.007" y="120.09" width="6.0017" height="6.0047" rx="3.0008"/>
<rect id="dot" x="48.013" y="120.09" width="6.0017" height="6.0047" rx="3.0008"/>
<rect id="dot" x="72.02" y="120.09" width="6.0017" height="6.0047" rx="3.0008"/>
<rect id="dot" x="96.027" y="120.09" width="6.0017" height="6.0047" rx="3.0008"/>
<rect x="120.03" y="120.09" width="6.0017" height="6.0047" rx="3.0008"/>
<rect id="dot" x="144.04" y="120.09" width="6.0017" height="6.0047" rx="3.0008"/>
<rect id="dot" x="168.05" y="120.09" width="6.0017" height="6.0047" rx="3.0008"/>
<rect id="dot" x="192.05" y="120.09" width="6.0017" height="6.0047" rx="3.0008"/>
<rect id="dot" x="216.06" y="120.09" width="6.0017" height="6.0047" rx="3.0008"/>
<rect id="dot" y="144.11" width="6.0017" height="6.0047" rx="3.0008"/>
<rect id="dot" x="24.007" y="144.11" width="6.0017" height="6.0047" rx="3.0008"/>
<rect id="dot" x="48.013" y="144.11" width="6.0017" height="6.0047" rx="3.0008"/>
<rect id="dot" x="72.02" y="144.11" width="6.0017" height="6.0047" rx="3.0008"/>
<rect id="dot" x="96.027" y="144.11" width="6.0017" height="6.0047" rx="3.0008"/>
<rect id="dot" x="120.03" y="144.11" width="6.0017" height="6.0047" rx="3.0008"/>
<rect id="dot" x="144.04" y="144.11" width="6.0017" height="6.0047" rx="3.0008"/>
<rect id="dot" x="168.05" y="144.11" width="6.0017" height="6.0047" rx="3.0008"/>
<rect id="dot" x="192.05" y="144.11" width="6.0017" height="6.0047" rx="3.0008"/>
<rect id="dot" x="216.06" y="144.11" width="6.0017" height="6.0047" rx="3.0008"/>
<rect id="dot" y="168.13" width="6.0017" height="6.0047" rx="3.0008"/>
<rect id="dot" x="24.007" y="168.13" width="6.0017" height="6.0047" rx="3.0008"/>
<rect id="dot" x="48.013" y="168.13" width="6.0017" height="6.0047" rx="3.0008"/>
<rect id="dot" x="72.02" y="168.13" width="6.0017" height="6.0047" rx="3.0008"/>
<rect id="dot" x="96.027" y="168.13" width="6.0017" height="6.0047" rx="3.0008"/>
<rect id="dot" x="120.03" y="168.13" width="6.0017" height="6.0047" rx="3.0008"/>
<rect id="dot" x="144.04" y="168.13" width="6.0017" height="6.0047" rx="3.0008"/>
<rect id="dot" x="168.05" y="168.13" width="6.0017" height="6.0047" rx="3.0008"/>
<rect id="dot" x="192.05" y="168.13" width="6.0017" height="6.0047" rx="3.0008"/>
<rect id="dot" x="216.06" y="168.13" width="6.0017" height="6.0047" rx="3.0008"/>
<rect id="dot" y="192.15" width="6.0017" height="6.0047" rx="3.0008"/>
<rect id="dot" x="24.007" y="192.15" width="6.0017" height="6.0047" rx="3.0008"/>
<rect id="dot" x="48.013" y="192.15" width="6.0017" height="6.0047" rx="3.0008"/>
<rect id="dot" x="72.02" y="192.15" width="6.0017" height="6.0047" rx="3.0008"/>
<rect id="dot" x="96.027" y="192.15" width="6.0017" height="6.0047" rx="3.0008"/>
<rect id="dot" x="120.03" y="192.15" width="6.0017" height="6.0047" rx="3.0008"/>
<rect id="dot" x="144.04" y="192.15" width="6.0017" height="6.0047" rx="3.0008"/>
<rect id="dot" x="168.05" y="192.15" width="6.0017" height="6.0047" rx="3.0008"/>
<rect id="b" x="192.05" y="192.15" width="6.0017" height="6.0047" rx="3.0008"/>
<rect x="216.06" y="192.15" width="6.0017" height="6.0047" rx="3.0008"/>
</g>
</g>
<g transform="translate(0 66.999)" stroke="#292929" stroke-linecap="round">
<path id="circuit" d="m248 345c83.395 0 151-67.605 151-151s-67.605-151-151-151-151 67.605-151 151 67.605 151 151 151z" stroke-dasharray="4"/>
<path id="a" d="m248 388c107.14 0 194-86.857 194-194 0-107.14-86.857-194-194-194s-194 86.857-194 194c0 107.14 86.857 194 194 194z" stroke-dasharray="4"/>
<path d="m442 194c0-107.14-86.857-194-194-194-46.445 0-89.077 16.321-122.48 43.541" fill-rule="nonzero" stroke-linejoin="round" stroke-width="4"/>
<path d="m248 292c54.124 0 98-43.876 98-98s-43.876-98-98-98-98 43.876-98 98 43.876 98 98 98z" stroke-dasharray="4"/>
</g>
<g transform="translate(299 30.999)" fill="#291B90" fill-opacity=".7" fill-rule="nonzero">
<path id="window-container" d="m34.725 128.89-33.957-18.639c-0.474-0.26003-0.76757-0.75129-0.76757-1.284v-31.127c0-0.64198 0.70414-1.0471 1.2752-0.73343l32.532 17.856c1.3541 0.74331 2.193 2.1465 2.193 3.669v29.525c0 0.64198-0.70414 1.0471-1.2752 0.73343"/>
<path id="window-container" d="m117.87 194.82-56.595-30.825c-0.79-0.43005-1.2793-1.2425-1.2793-2.1235v-51.48c0-1.0617 1.1736-1.7317 2.1254-1.213l54.22 29.531c2.2568 1.2293 3.655 3.5499 3.655 6.068v48.829c0 1.0617-1.1736 1.7317-2.1254 1.213"/>
<path id="window-container" d="m98.796 111.9-32.071-17.563c-0.44767-0.24503-0.72493-0.70795-0.72493-1.2099v-29.332c0-0.60495 0.66502-0.98665 1.2044-0.69111l30.724 16.826c1.2788 0.70042 2.0712 2.0226 2.0712 3.4573v27.821c0 0.60495-0.66502 0.98665-1.2044 0.69111"/>
<path id="window-container" d="m127.47 133.95-14.149-7.8856c-0.1975-0.11001-0.31982-0.31786-0.31982-0.54322v-13.169c0-0.27161 0.29339-0.44299 0.53134-0.3103l13.555 7.5545c0.5642 0.31448 0.91375 0.90812 0.91375 1.5523v12.491c0 0.27161-0.29339 0.44299-0.53134 0.3103"/>
<path id="window-container" d="m56.469 57.954-14.149-7.8856c-0.1975-0.11001-0.31982-0.31786-0.31982-0.54322v-13.169c0-0.27161 0.29339-0.44299 0.53134-0.3103l13.555 7.5545c0.5642 0.31448 0.91375 0.90812 0.91375 1.5523v12.491c0 0.27161-0.29339 0.44299-0.53134 0.3103"/>
<path id="d" d="m112.47 39.954-14.149-7.8856c-0.1975-0.11001-0.31982-0.31786-0.31982-0.54322v-13.169c0-0.27161 0.29339-0.44299 0.53134-0.3103l13.555 7.5545c0.5642 0.31448 0.91375 0.90812 0.91375 1.5523v12.491c0 0.27161-0.29339 0.44299-0.53134 0.3103"/>
<path d="m89.469 21.954-14.149-7.8856c-0.1975-0.11001-0.31982-0.31786-0.31982-0.54322v-13.169c0-0.27161 0.29339-0.44299 0.53134-0.3103l13.555 7.5545c0.5642 0.31448 0.91375 0.90812 0.91375 1.5523v12.491c0 0.27161-0.29339 0.44299-0.53134 0.3103"/>
</g>
<g transform="translate(16 129)" fill-rule="nonzero">
<path d="m336.05 246.85-158.47-88.666c-2.212-1.237-3.582-3.574-3.582-6.108v-148.08c0-3.054 3.286-4.981 5.951-3.489l151.82 84.944c6.319 3.536 10.234 10.211 10.234 17.454v140.45c0 3.054-3.286 4.981-5.951 3.489" fill="#291B90" fill-opacity=".7"/>
<path d="m321.05 257.85-158.47-88.666c-2.212-1.237-3.582-3.574-3.582-6.108v-148.08c0-3.054 3.286-4.981 5.951-3.489l151.82 84.944c6.319 3.536 10.234 10.211 10.234 17.454v140.45c0 3.054-3.286 4.981-5.951 3.489" fill="#6C5CE7" fill-opacity=".7"/>
<g transform="translate(0 22)">
<path d="m304.05 246.86-158.47-88.666c-2.212-1.237-3.582-3.574-3.582-6.108v-148.08c0-3.054 3.286-4.981 5.951-3.489l151.82 84.944c6.319 3.536 10.234 10.211 10.234 17.454v140.45c0 3.054-3.286 4.98-5.951 3.489" fill="#8C7FEF" fill-opacity=".8"/>
<path d="m118 217.19-49.418-27.996c-2.212-1.237-3.582-3.574-3.582-6.108v-148.08c0-3.054 3.286-4.981 5.951-3.489l47.049 26.67v159z" fill="#BEB6FA" fill-opacity=".6"/>
<path d="m292 124.19-168-94v-13.181c0-3.054 3.286-4.981 5.951-3.489l151.82 84.944c6.319 3.536 10.234 10.211 10.234 17.454v8.272z" fill="#BEB6FA" fill-opacity=".5"/>
<path d="m166.5 19.727c1.056-0.484 2.461 0.321 3.138 1.799 0.678 1.478 0.371 3.067-0.684 3.551s-2.461-0.321-3.137-1.799c-0.678-1.477-0.371-3.067 0.683-3.551zm-9.2487-4.2044c1.055-0.484 2.46 0.321 3.137 1.799 0.677 1.477 0.371 3.068-0.684 3.552-1.056 0.483-2.46-0.322-3.138-1.8-0.677-1.477-0.371-3.067 0.685-3.551zm-8.4092-5.0454c1.056-0.484 2.46 0.321 3.138 1.799 0.676 1.477 0.371 3.068-0.685 3.552-1.056 0.483-2.46-0.322-3.138-1.8-0.677-1.477-0.371-3.067 0.685-3.551z" fill="#BEB6FA" fill-opacity=".6"/>
<path id="Fill-1" d="m262.6 265.06-90.553-50.667c-1.263-0.707-2.047-2.042-2.047-3.49v-84.615c0-1.746 1.878-2.847 3.401-1.994l86.751 48.539c3.611 2.02 5.848 5.835 5.848 9.974v80.259c0 1.745-1.878 2.846-3.4 1.994" fill="#BEB6FA" fill-opacity=".6"/>
<path id="Fill-1" d="m167.66 327.8-62.255-34.41c-0.86831-0.48015-1.4073-1.3868-1.4073-2.3702v-57.466c0-1.1858 1.2911-1.9335 2.3382-1.3542l59.641 32.965c2.4826 1.3719 4.0205 3.9628 4.0205 6.7738v54.507c0 1.1851-1.2911 1.9328-2.3375 1.3542" fill="#D5D0FB" fill-opacity=".5"/>
<path id="Fill-1" d="m48.229 300.85-47.163-26.166c-0.65781-0.36512-1.0661-1.0546-1.0661-1.8023v-43.698c0-0.90169 0.97812-1.4703 1.7714-1.0298l45.183 25.067c1.8807 1.0432 3.0458 3.0134 3.0458 5.1509v41.448c0 0.90117-0.97812 1.4698-1.7708 1.0298" fill="#D5D0FB" fill-opacity=".5"/>
</g>
</g>
<g transform="translate(18)" fill-rule="nonzero">
<path id="Fill-1" d="m207.31 111.67-71.687-40.111c-1.001-0.56-1.621-1.617-1.621-2.764v-66.986c0-1.382 1.487-2.253 2.693-1.579l68.678 38.427c2.859 1.6 4.629 4.62 4.629 7.896v63.538c0 1.382-1.486 2.253-2.692 1.579" fill="#291B90" fill-opacity=".7"/>
<path id="Fill-3" d="m195.31 118.67-71.687-40.111c-1.001-0.56-1.621-1.617-1.621-2.764v-66.986c0-1.382 1.487-2.253 2.693-1.579l68.678 38.427c2.858 1.6 4.629 4.62 4.629 7.896v63.538c0 1.382-1.486 2.253-2.692 1.579" fill="#BEB6FA" fill-opacity=".6"/>
<path id="Fill-3" d="m132.87 93.9-30.184-17.205c-0.42147-0.2402-0.68253-0.69359-0.68253-1.1856v-28.733c0-0.59279 0.6261-0.96639 1.1339-0.67729l28.917 16.483c1.2034 0.68629 1.9491 1.9817 1.9491 3.3869v27.254c0 0.59279-0.62568 0.96639-1.1335 0.67729" fill="#BEB6FA" fill-opacity=".6"/>
<path id="Fill-3" d="m62.433 93.95-15.092-8.6025c-0.21074-0.1201-0.34126-0.34679-0.34126-0.59279v-14.366c0-0.29639 0.31305-0.48319 0.56695-0.33864l14.459 8.2413c0.60168 0.34315 0.97453 0.99084 0.97453 1.6934v13.627c0 0.29639-0.31284 0.48319-0.56674 0.33864" fill="#BEB6FA" fill-opacity=".6"/>
<path id="g" d="m46.646 142.97-9.4325-5.3766c-0.13171-0.075063-0.21329-0.21675-0.21329-0.37049v-8.9789c0-0.18525 0.19566-0.302 0.35434-0.21165l9.0366 5.1508c0.37605 0.21447 0.60908 0.61927 0.60908 1.0584v8.5168c0 0.18525-0.19553 0.302-0.35421 0.21165" fill="#BEB6FA" fill-opacity=".6"/>
<path d="m18.433 111.95-15.092-8.6025c-0.21074-0.1201-0.34126-0.34679-0.34126-0.59279v-14.366c0-0.29639 0.31305-0.48319 0.56695-0.33864l14.459 8.2413c0.60168 0.34315 0.97453 0.99084 0.97453 1.6934v13.627c0 0.29639-0.31284 0.4832-0.56674 0.33864" fill="#BEB6FA" fill-opacity=".6"/>
<path d="m5.7875 139.98-5.6595-3.2259c-0.079026-0.045038-0.12797-0.13005-0.12797-0.2223v-5.3874c0-0.11115 0.11739-0.1812 0.21261-0.12699l5.4219 3.0905c0.22563 0.12868 0.36545 0.37156 0.36545 0.63504v5.1101c0 0.11115-0.11732 0.1812-0.21253 0.12699" fill="#BEB6FA" fill-opacity=".6"/>
<path d="m133.72 115.97-7.546-4.3012c-0.10537-0.060051-0.17063-0.1734-0.17063-0.29639v-7.1831c0-0.1482 0.15653-0.2416 0.28347-0.16932l7.2293 4.1207c0.30084 0.17157 0.48726 0.49542 0.48726 0.84672v6.8134c0 0.1482-0.15642 0.2416-0.28337 0.16932" fill="#BEB6FA" fill-opacity=".6"/>
<path d="m18.787 172.98-5.6595-3.2259c-0.079026-0.045038-0.12797-0.13005-0.12797-0.2223v-5.3874c0-0.11115 0.11739-0.1812 0.21261-0.12699l5.4219 3.0905c0.22563 0.12868 0.36545 0.37156 0.36545 0.63504v5.1101c0 0.11115-0.11732 0.1812-0.21253 0.12699" fill="#BEB6FA" fill-opacity=".6"/>
</g>
<g transform="translate(242 327)" fill-rule="nonzero">
<path id="c" d="m215.62 118.51-49.113-27.48c-0.686-0.3836-1.1102-1.1081-1.1102-1.8935v-87.892c0-0.9471 1.0185-1.5442 1.8445-1.0815l47.051 26.326c1.9579 1.0962 3.1717 3.1647 3.1717 5.4103v85.529c0 0.9471-1.0185 1.5442-1.8445 1.0822" fill="#291B90" fill-opacity=".7"/>
<path d="m205.12 126.91-49.113-27.48c-0.686-0.3836-1.1102-1.1081-1.1102-1.8935v-87.892c0-0.9471 1.0185-1.5442 1.8445-1.0815l47.051 26.326c1.9579 1.0962 3.1717 3.1647 3.1717 5.4103v85.529c0 0.9471-1.0185 1.5442-1.8445 1.0822" fill="#6C5CE7" fill-opacity=".7"/>
<path id="f" d="m162.88 115.22-36.063-20.178c-0.5033-0.2821-0.8148-0.8134-0.8148-1.3909v-38.637c0-0.6951 0.7476-1.1333 1.3538-0.7945l34.549 19.332c1.4378 0.8043 2.3289 2.3233 2.3289 3.9711v36.903c0 0.6951-0.7476 1.134-1.3545 0.7945" fill="#BEB6FA" fill-opacity=".6"/>
<path d="m84.575 170.96-11.319-6.5903c-0.15797-0.092138-0.25574-0.26567-0.25574-0.45429v-12.619c0-0.22703 0.23465-0.37015 0.42492-0.2595l10.844 6.3141c0.45129 0.2627 0.73098 0.75882 0.73098 1.297v12.053c0 0.22703-0.23465 0.37038-0.42514 0.2595" fill="#BEB6FA" fill-opacity=".6"/>
<path d="m125.57 164.96-11.319-6.5903c-0.15797-0.092138-0.25574-0.26567-0.25574-0.45429v-12.619c0-0.22703 0.23465-0.37015 0.42492-0.2595l10.844 6.3141c0.45129 0.2627 0.73098 0.75882 0.73098 1.297v12.053c0 0.22703-0.23465 0.37038-0.42514 0.2595" fill="#BEB6FA" fill-opacity=".6"/>
<path d="m48.717 205.97-7.5461-4.6132c-0.10532-0.064497-0.1705-0.18597-0.1705-0.318v-8.8336c0-0.15892 0.15643-0.25911 0.28328-0.18165l7.2294 4.4199c0.30086 0.18389 0.48732 0.53118 0.48732 0.90792v8.4371c0 0.15892-0.15643 0.25927-0.28343 0.18165" fill="#BEB6FA" fill-opacity=".6"/>
<path d="m7.7166 194.97-7.5461-4.6132c-0.10532-0.064497-0.1705-0.18597-0.1705-0.318v-8.8336c0-0.15892 0.15643-0.25911 0.28328-0.18165l7.2294 4.4199c0.30086 0.18389 0.48732 0.53118 0.48732 0.90792v8.4371c0 0.15892-0.15643 0.25927-0.28343 0.18165" fill="#BEB6FA" fill-opacity=".6"/>
<path d="m88.717 198.97-7.5461-4.6132c-0.10532-0.064497-0.1705-0.18597-0.1705-0.318v-8.8336c0-0.15892 0.15643-0.25911 0.28328-0.18165l7.2294 4.4199c0.30086 0.18389 0.48732 0.53118 0.48732 0.90792v8.4371c0 0.15892-0.15643 0.25927-0.28343 0.18165" fill="#BEB6FA" fill-opacity=".6"/>
<path d="m119.57 126.96-11.319-6.5903c-0.15797-0.092138-0.25574-0.26567-0.25574-0.45429v-12.619c0-0.22703 0.23465-0.37015 0.42492-0.2595l10.844 6.3141c0.45129 0.2627 0.73098 0.75882 0.73098 1.297v12.053c0 0.22703-0.23465 0.37038-0.42514 0.2595" fill="#BEB6FA" fill-opacity=".6"/>
<path d="m191.57 60.038-52.067-29.133v-12.865c0-0.9471 1.0185-1.5435 1.8445-1.0815l47.051 26.326c1.9586 1.0969 3.1717 3.1654 3.1717 5.4103v11.343z" fill="#BEB6FA" fill-opacity=".6"/>
</g>
</g>
</g>
</g>
</g>
</g>
</svg>
