<svg xmlns="http://www.w3.org/2000/svg" xmlns:xlink="http://www.w3.org/1999/xlink" width="683" height="696"><style><![CDATA[.B{fill-rule:nonzero}.C{fill:#fff}.D{fill:#000}.E{fill:#fcfdfd}.F{fill:#282d30}.G{fill:#5b5c5f}.H{fill:#ededed}.I{fill:#e3e8eb}.J{mask:url(#a)}.K{fill:#37b26c}]]></style><defs><rect id="A" width="247" height="283" rx="14"/><filter x="-34.0%" y="-23.3%" width="168.0%" height="159.4%" id="B"><feOffset dy="18" in="SourceAlpha"/><feGaussianBlur stdDeviation="25"/><feColorMatrix values="0 0 0 0 0 0 0 0 0 0 0 0 0 0 0 0 0 0 0.1 0"/></filter><path d="M20 0h396c11.046 0 20 8.954 20 20v217c0 11.046-8.954 20-20 20H20c-11.046 0-20-8.954-20-20V20C0 8.954 8.954 0 20 0z" id="C"/><filter x="-19.3%" y="-25.7%" width="138.5%" height="165.4%" id="D"><feOffset dy="18" in="SourceAlpha"/><feGaussianBlur stdDeviation="25"/><feColorMatrix values="0 0 0 0 0 0 0 0 0 0 0 0 0 0 0 0 0 0 0.1 0"/></filter><path d="M20 0h375c11.046 0 20 8.954 20 20v217c0 11.046-8.954 20-20 20H20c-11.046 0-20-8.954-20-20V20C0 8.954 8.954 0 20 0z" id="E"/><linearGradient x1="100%" y1="50%" x2="1.74539379%" y2="50%" id="F"><stop stop-color="#c887eb" stop-opacity=".65" offset="0%"/><stop stop-color="#c887eb" offset="100%"/></linearGradient><linearGradient x1="100%" y1="50%" x2="0%" y2="50%" id="G"><stop stop-color="#5e77ff" stop-opacity=".65" offset="0%"/><stop stop-color="#5e77ff" offset="100%"/></linearGradient><rect id="H" width="247" height="231" rx="14"/><filter x="-34.0%" y="-28.6%" width="168.0%" height="172.7%" id="I"><feOffset dy="18" in="SourceAlpha"/><feGaussianBlur stdDeviation="25"/><feColorMatrix values="0 0 0 0 0 0 0 0 0 0 0 0 0 0 0 0 0 0 0.1 0"/></filter><circle id="J" cx="101.5" cy="101.5" r="72.5"/><mask id="K" x="0" y="0" width="145" height="145" class="C"><use xlink:href="#J"/></mask><circle id="L" cx="101.5" cy="101.5" r="72.5"/><mask id="M" x="0" y="0" width="145" height="145" class="C"><use xlink:href="#L"/></mask><circle id="N" cx="101.5" cy="101.5" r="72.5"/><mask id="O" x="0" y="0" width="145" height="145" class="C"><use xlink:href="#N"/></mask><circle id="P" cx="101.5" cy="101.5" r="72.5"/><mask id="Q" x="0" y="0" width="145" height="145" class="C"><use xlink:href="#P"/></mask><path d="M101.5 191.4c50.184 0 90.867-40.42 90.867-90.277 0-30.055-14.938-56.948-37.674-73.357-8.55 12.21-26.28 36.662-53.193 73.357V191.4z" id="R"/><filter x="-39.6%" y="-19.6%" width="170.4%" height="139.1%" id="S"><feOffset dx="-4" in="SourceAlpha"/><feGaussianBlur stdDeviation="10"/><feColorMatrix values="0 0 0 0 0.117647059 0 0 0 0 0.117647059 0 0 0 0 0.117647059 0 0 0 0.25 0"/></filter><rect id="T" width="236" height="100" rx="16"/><filter x="-28.4%" y="-53.0%" width="156.8%" height="234.0%" id="U"><feOffset dy="14" in="SourceAlpha"/><feGaussianBlur stdDeviation="20"/><feColorMatrix values="0 0 0 0 0 0 0 0 0 0 0 0 0 0 0 0 0 0 0.1 0"/></filter><rect id="V" width="236" height="100" rx="16"/><path d="M7.165 2.18c.255-.26.677-.27.942-.02s.274.663.02.923L3.977 7.32c-.254.26-.675.27-.94.02L1.394 5.81c-.266-.25-.277-.662-.023-.923s.676-.27.942-.022l1.16 1.084 3.69-3.767z" id="W"/><rect id="X" width="236" height="100" rx="16"/><rect id="Y" width="257" height="100" rx="16"/><filter x="-26.1%" y="-53.0%" width="152.1%" height="234.0%" id="Z"><feOffset dy="14" in="SourceAlpha"/><feGaussianBlur stdDeviation="20"/><feColorMatrix values="0 0 0 0 0 0 0 0 0 0 0 0 0 0 0 0 0 0 0.1 0"/></filter></defs><g fill="none" fill-rule="evenodd"><g class="B H"><rect x="393" y="468" width="6.002" height="6.005" rx="3.001"/><rect x="417.007" y="468" width="6.002" height="6.005" rx="3.001"/><rect x="441.013" y="468" width="6.002" height="6.005" rx="3.001"/><rect x="465.02" y="468" width="6.002" height="6.005" rx="3.001"/><rect x="489.027" y="468" width="6.002" height="6.005" rx="3.001"/><rect x="513.033" y="468" width="6.002" height="6.005" rx="3.001"/><rect x="537.04" y="468" width="6.002" height="6.005" rx="3.001"/><rect x="561.047" y="468" width="6.002" height="6.005" rx="3.001"/><rect x="585.053" y="468" width="6.002" height="6.005" rx="3.001"/><rect x="609.06" y="468" width="6.002" height="6.005" rx="3.001"/><rect x="393" y="492.019" width="6.002" height="6.005" rx="3.001"/><rect x="417.007" y="492.019" width="6.002" height="6.005" rx="3.001"/><rect x="441.013" y="492.019" width="6.002" height="6.005" rx="3.001"/><rect x="465.02" y="492.019" width="6.002" height="6.005" rx="3.001"/><rect x="489.027" y="492.019" width="6.002" height="6.005" rx="3.001"/><rect x="513.033" y="492.019" width="6.002" height="6.005" rx="3.001"/><rect x="537.04" y="492.019" width="6.002" height="6.005" rx="3.001"/><rect x="561.047" y="492.019" width="6.002" height="6.005" rx="3.001"/><rect x="585.053" y="492.019" width="6.002" height="6.005" rx="3.001"/><rect x="609.06" y="492.019" width="6.002" height="6.005" rx="3.001"/><rect x="393" y="516.037" width="6.002" height="6.005" rx="3.001"/><rect x="417.007" y="516.037" width="6.002" height="6.005" rx="3.001"/><rect x="441.013" y="516.037" width="6.002" height="6.005" rx="3.001"/><rect x="465.02" y="516.037" width="6.002" height="6.005" rx="3.001"/><rect x="489.027" y="516.037" width="6.002" height="6.005" rx="3.001"/><rect x="513.033" y="516.037" width="6.002" height="6.005" rx="3.001"/><rect x="537.04" y="516.037" width="6.002" height="6.005" rx="3.001"/><rect x="561.047" y="516.037" width="6.002" height="6.005" rx="3.001"/><rect x="585.053" y="516.037" width="6.002" height="6.005" rx="3.001"/><rect x="609.06" y="516.037" width="6.002" height="6.005" rx="3.001"/><rect x="393" y="540.056" width="6.002" height="6.005" rx="3.001"/><rect x="417.007" y="540.056" width="6.002" height="6.005" rx="3.001"/><rect x="441.013" y="540.056" width="6.002" height="6.005" rx="3.001"/><rect x="465.02" y="540.056" width="6.002" height="6.005" rx="3.001"/><rect x="489.027" y="540.056" width="6.002" height="6.005" rx="3.001"/><rect x="513.033" y="540.056" width="6.002" height="6.005" rx="3.001"/><rect x="537.04" y="540.056" width="6.002" height="6.005" rx="3.001"/><rect x="561.047" y="540.056" width="6.002" height="6.005" rx="3.001"/><rect x="585.053" y="540.056" width="6.002" height="6.005" rx="3.001"/><rect x="609.06" y="540.056" width="6.002" height="6.005" rx="3.001"/><rect x="393" y="564.075" width="6.002" height="6.005" rx="3.001"/><rect x="417.007" y="564.075" width="6.002" height="6.005" rx="3.001"/><rect x="441.013" y="564.075" width="6.002" height="6.005" rx="3.001"/><rect x="465.02" y="564.075" width="6.002" height="6.005" rx="3.001"/><rect x="489.027" y="564.075" width="6.002" height="6.005" rx="3.001"/><rect x="513.033" y="564.075" width="6.002" height="6.005" rx="3.001"/><rect x="537.04" y="564.075" width="6.002" height="6.005" rx="3.001"/><rect x="561.047" y="564.075" width="6.002" height="6.005" rx="3.001"/><rect x="585.053" y="564.075" width="6.002" height="6.005" rx="3.001"/><rect x="609.06" y="564.075" width="6.002" height="6.005" rx="3.001"/><rect x="393" y="588.093" width="6.002" height="6.005" rx="3.001"/><rect x="417.007" y="588.093" width="6.002" height="6.005" rx="3.001"/><rect x="441.013" y="588.093" width="6.002" height="6.005" rx="3.001"/><rect x="465.02" y="588.093" width="6.002" height="6.005" rx="3.001"/><rect x="489.027" y="588.093" width="6.002" height="6.005" rx="3.001"/><rect x="513.033" y="588.093" width="6.002" height="6.005" rx="3.001"/><rect x="537.04" y="588.093" width="6.002" height="6.005" rx="3.001"/><rect x="561.047" y="588.093" width="6.002" height="6.005" rx="3.001"/><rect x="585.053" y="588.093" width="6.002" height="6.005" rx="3.001"/><rect x="609.06" y="588.093" width="6.002" height="6.005" rx="3.001"/><rect x="393" y="612.112" width="6.002" height="6.005" rx="3.001"/><rect x="417.007" y="612.112" width="6.002" height="6.005" rx="3.001"/><rect x="441.013" y="612.112" width="6.002" height="6.005" rx="3.001"/><rect x="465.02" y="612.112" width="6.002" height="6.005" rx="3.001"/><rect x="489.027" y="612.112" width="6.002" height="6.005" rx="3.001"/><rect x="513.033" y="612.112" width="6.002" height="6.005" rx="3.001"/><rect x="537.04" y="612.112" width="6.002" height="6.005" rx="3.001"/><rect x="561.047" y="612.112" width="6.002" height="6.005" rx="3.001"/><rect x="585.053" y="612.112" width="6.002" height="6.005" rx="3.001"/><rect x="609.06" y="612.112" width="6.002" height="6.005" rx="3.001"/><rect x="393" y="636.131" width="6.002" height="6.005" rx="3.001"/><rect x="417.007" y="636.131" width="6.002" height="6.005" rx="3.001"/><rect x="441.013" y="636.131" width="6.002" height="6.005" rx="3.001"/><rect x="465.02" y="636.131" width="6.002" height="6.005" rx="3.001"/><rect x="489.027" y="636.131" width="6.002" height="6.005" rx="3.001"/><rect x="513.033" y="636.131" width="6.002" height="6.005" rx="3.001"/><rect x="537.04" y="636.131" width="6.002" height="6.005" rx="3.001"/><rect x="561.047" y="636.131" width="6.002" height="6.005" rx="3.001"/><rect x="585.053" y="636.131" width="6.002" height="6.005" rx="3.001"/><rect x="609.06" y="636.131" width="6.002" height="6.005" rx="3.001"/><rect x="393" y="660.15" width="6.002" height="6.005" rx="3.001"/><rect x="417.007" y="660.15" width="6.002" height="6.005" rx="3.001"/><rect x="441.013" y="660.15" width="6.002" height="6.005" rx="3.001"/><rect x="465.02" y="660.15" width="6.002" height="6.005" rx="3.001"/><rect x="489.027" y="660.15" width="6.002" height="6.005" rx="3.001"/><rect x="513.033" y="660.15" width="6.002" height="6.005" rx="3.001"/><rect x="537.04" y="660.15" width="6.002" height="6.005" rx="3.001"/><rect x="561.047" y="660.15" width="6.002" height="6.005" rx="3.001"/><rect x="585.053" y="660.15" width="6.002" height="6.005" rx="3.001"/><rect x="609.06" y="660.15" width="6.002" height="6.005" rx="3.001"/><rect x="158" y="333" width="6.002" height="6.005" rx="3.001"/><rect x="182.007" y="333" width="6.002" height="6.005" rx="3.001"/><rect x="206.013" y="333" width="6.002" height="6.005" rx="3.001"/><rect x="230.02" y="333" width="6.002" height="6.005" rx="3.001"/><rect x="254.027" y="333" width="6.002" height="6.005" rx="3.001"/><rect x="278.033" y="333" width="6.002" height="6.005" rx="3.001"/><rect x="302.04" y="333" width="6.002" height="6.005" rx="3.001"/><rect x="326.047" y="333" width="6.002" height="6.005" rx="3.001"/><rect x="350.053" y="333" width="6.002" height="6.005" rx="3.001"/><rect x="374.06" y="333" width="6.002" height="6.005" rx="3.001"/><rect x="158" y="357.019" width="6.002" height="6.005" rx="3.001"/><rect x="182.007" y="357.019" width="6.002" height="6.005" rx="3.001"/><rect x="206.013" y="357.019" width="6.002" height="6.005" rx="3.001"/><rect x="230.02" y="357.019" width="6.002" height="6.005" rx="3.001"/><rect x="254.027" y="357.019" width="6.002" height="6.005" rx="3.001"/><rect x="278.033" y="357.019" width="6.002" height="6.005" rx="3.001"/><rect x="302.04" y="357.019" width="6.002" height="6.005" rx="3.001"/><rect x="326.047" y="357.019" width="6.002" height="6.005" rx="3.001"/><rect x="350.053" y="357.019" width="6.002" height="6.005" rx="3.001"/><rect x="374.06" y="357.019" width="6.002" height="6.005" rx="3.001"/><rect x="158" y="381.037" width="6.002" height="6.005" rx="3.001"/><rect x="182.007" y="381.037" width="6.002" height="6.005" rx="3.001"/><rect x="206.013" y="381.037" width="6.002" height="6.005" rx="3.001"/><rect x="230.02" y="381.037" width="6.002" height="6.005" rx="3.001"/><rect x="254.027" y="381.037" width="6.002" height="6.005" rx="3.001"/><rect x="278.033" y="381.037" width="6.002" height="6.005" rx="3.001"/><rect x="302.04" y="381.037" width="6.002" height="6.005" rx="3.001"/><rect x="326.047" y="381.037" width="6.002" height="6.005" rx="3.001"/><rect x="350.053" y="381.037" width="6.002" height="6.005" rx="3.001"/><rect x="374.06" y="381.037" width="6.002" height="6.005" rx="3.001"/><rect x="158" y="405.056" width="6.002" height="6.005" rx="3.001"/><rect x="182.007" y="405.056" width="6.002" height="6.005" rx="3.001"/><rect x="206.013" y="405.056" width="6.002" height="6.005" rx="3.001"/><rect x="230.02" y="405.056" width="6.002" height="6.005" rx="3.001"/><rect x="254.027" y="405.056" width="6.002" height="6.005" rx="3.001"/><rect x="278.033" y="405.056" width="6.002" height="6.005" rx="3.001"/><rect x="302.04" y="405.056" width="6.002" height="6.005" rx="3.001"/><rect x="326.047" y="405.056" width="6.002" height="6.005" rx="3.001"/><rect x="350.053" y="405.056" width="6.002" height="6.005" rx="3.001"/><rect x="374.06" y="405.056" width="6.002" height="6.005" rx="3.001"/><rect x="158" y="429.075" width="6.002" height="6.005" rx="3.001"/><rect x="182.007" y="429.075" width="6.002" height="6.005" rx="3.001"/><rect x="206.013" y="429.075" width="6.002" height="6.005" rx="3.001"/><rect x="230.02" y="429.075" width="6.002" height="6.005" rx="3.001"/><rect x="254.027" y="429.075" width="6.002" height="6.005" rx="3.001"/><rect x="278.033" y="429.075" width="6.002" height="6.005" rx="3.001"/><rect x="302.04" y="429.075" width="6.002" height="6.005" rx="3.001"/><rect x="326.047" y="429.075" width="6.002" height="6.005" rx="3.001"/><rect x="350.053" y="429.075" width="6.002" height="6.005" rx="3.001"/><rect x="374.06" y="429.075" width="6.002" height="6.005" rx="3.001"/><rect x="158" y="453.093" width="6.002" height="6.005" rx="3.001"/><rect x="182.007" y="453.093" width="6.002" height="6.005" rx="3.001"/><rect x="206.013" y="453.093" width="6.002" height="6.005" rx="3.001"/><rect x="230.02" y="453.093" width="6.002" height="6.005" rx="3.001"/><rect x="254.027" y="453.093" width="6.002" height="6.005" rx="3.001"/><rect x="278.033" y="453.093" width="6.002" height="6.005" rx="3.001"/><rect x="302.04" y="453.093" width="6.002" height="6.005" rx="3.001"/><rect x="326.047" y="453.093" width="6.002" height="6.005" rx="3.001"/><rect x="350.053" y="453.093" width="6.002" height="6.005" rx="3.001"/><rect x="374.06" y="453.093" width="6.002" height="6.005" rx="3.001"/><rect x="158" y="477.112" width="6.002" height="6.005" rx="3.001"/><rect x="182.007" y="477.112" width="6.002" height="6.005" rx="3.001"/><rect x="206.013" y="477.112" width="6.002" height="6.005" rx="3.001"/><rect x="230.02" y="477.112" width="6.002" height="6.005" rx="3.001"/><rect x="254.027" y="477.112" width="6.002" height="6.005" rx="3.001"/><rect x="278.033" y="477.112" width="6.002" height="6.005" rx="3.001"/><rect x="302.04" y="477.112" width="6.002" height="6.005" rx="3.001"/><rect x="326.047" y="477.112" width="6.002" height="6.005" rx="3.001"/><rect x="350.053" y="477.112" width="6.002" height="6.005" rx="3.001"/><rect x="374.06" y="477.112" width="6.002" height="6.005" rx="3.001"/><rect x="158" y="501.131" width="6.002" height="6.005" rx="3.001"/><rect x="182.007" y="501.131" width="6.002" height="6.005" rx="3.001"/><rect x="206.013" y="501.131" width="6.002" height="6.005" rx="3.001"/><rect x="230.02" y="501.131" width="6.002" height="6.005" rx="3.001"/><rect x="254.027" y="501.131" width="6.002" height="6.005" rx="3.001"/><rect x="278.033" y="501.131" width="6.002" height="6.005" rx="3.001"/><rect x="302.04" y="501.131" width="6.002" height="6.005" rx="3.001"/><rect x="326.047" y="501.131" width="6.002" height="6.005" rx="3.001"/><rect x="350.053" y="501.131" width="6.002" height="6.005" rx="3.001"/><rect x="374.06" y="501.131" width="6.002" height="6.005" rx="3.001"/><rect x="158" y="525.15" width="6.002" height="6.005" rx="3.001"/><rect x="182.007" y="525.15" width="6.002" height="6.005" rx="3.001"/><rect x="206.013" y="525.15" width="6.002" height="6.005" rx="3.001"/><rect x="230.02" y="525.15" width="6.002" height="6.005" rx="3.001"/><rect x="254.027" y="525.15" width="6.002" height="6.005" rx="3.001"/><rect x="278.033" y="525.15" width="6.002" height="6.005" rx="3.001"/><rect x="302.04" y="525.15" width="6.002" height="6.005" rx="3.001"/><rect x="326.047" y="525.15" width="6.002" height="6.005" rx="3.001"/><rect x="350.053" y="525.15" width="6.002" height="6.005" rx="3.001"/><rect x="374.06" y="525.15" width="6.002" height="6.005" rx="3.001"/></g><g transform="translate(124 363)"><g class="B"><use filter="url(#B)" xlink:href="#A" class="D"/><use xlink:href="#A" class="E"/></g><g class="C"><path d="M81.344 88.346c-20.253 11.693-33.85 30.488-39.46 51.424s-3.233 44.01 8.46 64.264 30.488 33.85 51.424 39.46 44.01 3.233 64.264-8.46 33.85-30.488 39.46-51.424 3.233-44.01-8.46-64.264-30.488-33.85-51.424-39.46-44.01-3.233-64.264 8.46z"/><path d="M124 162l-90.68 45.798v50.378h181.36v-50.378z"/></g><g fill="#21d26e"><circle cx="48.479" cy="199.975" r="5"/><circle cx="200" cy="125" r="5"/></g><circle cx="199.529" cy="199.975" r="5" class="I"/><g class="B"><path d="M106.255 156.4c3.874 0 6.1-2.132 6.1-4.836 0-2.054-1.404-3.588-3.198-4.16 1.56-.572 2.756-2.132 2.756-3.952 0-2.756-2.444-4.68-5.668-4.68s-5.668 1.924-5.668 4.68c0 1.872 1.222 3.38 2.756 3.952-1.794.598-3.198 2.106-3.198 4.16 0 2.704 2.236 4.836 6.1 4.836zm0-10.062c-1.794-.026-3.12-1.118-3.12-2.756 0-1.508 1.222-2.704 3.12-2.704s3.12 1.196 3.12 2.704c0 1.638-1.326 2.73-3.12 2.756zm0 7.852c-2.262 0-3.536-1.248-3.536-2.834 0-1.612 1.3-2.886 3.536-2.886s3.536 1.274 3.536 2.886c0 1.586-1.274 2.834-3.536 2.834zm14.43 2.236c3.744 0 6.188-2.574 6.188-5.746 0-3.484-2.418-5.6-5.72-5.6-1.326 0-2.678.416-3.432 1.248l1.248-4.836h7.202v-2.34h-8.892l-2.184 8.372 2.496.988c.728-.754 1.872-1.222 3.068-1.222 1.95 0 3.64 1.17 3.64 3.484 0 2.08-1.612 3.406-3.614 3.406-2.106 0-3.64-1.404-3.796-3.484l-2.444.728c.234 2.652 2.652 4.992 6.24 4.992zm12.688-9.256c2.236 0 4.186-1.794 4.186-4.108 0-2.288-1.95-4.082-4.186-4.082s-4.16 1.794-4.16 4.082c0 2.314 1.924 4.108 4.16 4.108zm.312 8.84l12.064-16.848h-2.34L131.293 156h2.392zm-.312-10.894c-1.118 0-2.002-.858-2.002-2.054 0-1.17.884-2.028 2.002-2.028 1.144 0 2.002.858 2.002 2.028 0 1.196-.858 2.054-2.002 2.054zm10.296 11.102c2.236 0 4.186-1.794 4.186-4.108 0-2.288-1.95-4.082-4.186-4.082s-4.16 1.794-4.16 4.082c0 2.314 1.924 4.108 4.16 4.108zm0-2.054c-1.118 0-2.002-.858-2.002-2.054 0-1.17.884-2.028 2.002-2.028 1.144 0 2.002.858 2.002 2.028 0 1.196-.858 2.054-2.002 2.054z" class="F"/><path d="M89.928 182.24c2.608 0 4.4-1.52 5.008-3.648l-1.392-.512c-.464 1.552-1.68 2.72-3.616 2.72-2.064 0-4.032-1.52-4.032-4.48s1.968-4.464 4.032-4.464c1.856 0 3.104.96 3.536 2.672l1.456-.512c-.576-2.192-2.4-3.6-4.992-3.6-2.816 0-5.632 2.112-5.632 5.904s2.704 5.92 5.632 5.92zm10.224 0c2.304 0 3.936-1.744 3.936-4.096 0-2.336-1.632-4.08-3.936-4.08s-3.936 1.744-3.936 4.08c0 2.352 1.632 4.096 3.936 4.096zm0-1.344c-1.28 0-2.4-.96-2.4-2.752 0-1.776 1.12-2.736 2.4-2.736s2.4.96 2.4 2.736c0 1.792-1.12 2.752-2.4 2.752zm7.344 1.104v-4.64c0-1.152.72-1.952 1.792-1.952 1.152 0 1.632.768 1.632 1.76V182h1.504v-4.656c0-1.104.72-1.936 1.776-1.936 1.136 0 1.632.752 1.632 1.76V182h1.488v-4.992c0-2.016-1.312-2.928-2.656-2.928-.976 0-1.968.352-2.576 1.456-.416-.992-1.344-1.456-2.304-1.456-.896 0-1.856.4-2.336 1.248v-1.024h-1.44V182h1.488zm13.712 3.04v-4.08c.416.688 1.312 1.248 2.496 1.248 2.256 0 3.584-1.776 3.584-4.064 0-2.24-1.232-4.016-3.536-4.016-1.248 0-2.16.608-2.576 1.376v-1.2h-1.456v10.736h1.488zm2.272-4.176c-1.376 0-2.288-1.136-2.288-2.72 0-1.536.912-2.688 2.288-2.688 1.408 0 2.272 1.152 2.272 2.688 0 1.584-.88 2.72-2.272 2.72zm7.232 1.136v-11.584h-1.504V182h1.504zm5.808.24c1.792 0 3.024-1.072 3.456-2.432l-1.296-.448c-.288.864-.912 1.552-2.16 1.552-1.296 0-2.288-.96-2.32-2.336h5.792a3.38 3.38 0 0 0 .032-.48c0-2.4-1.328-4.032-3.696-4.032-1.936 0-3.68 1.648-3.68 4.064 0 2.608 1.808 4.112 3.872 4.112zm1.936-4.88h-4.208c.064-.992.832-1.968 2.096-1.968 1.36 0 2.08.864 2.112 1.968zm6.144 4.72c.512 0 .896-.096 1.024-.144v-1.28c-.128.032-.4.064-.592.064-.784 0-1.072-.352-1.072-1.056v-4h1.664v-1.36h-1.664v-2.432h-1.376v1.248c0 .672-.352 1.184-1.184 1.184h-.416v1.36h1.472v4.224c0 1.392.832 2.192 2.144 2.192zm6.272.16c1.792 0 3.024-1.072 3.456-2.432l-1.296-.448c-.288.864-.912 1.552-2.16 1.552-1.296 0-2.288-.96-2.32-2.336h5.792a3.38 3.38 0 0 0 .032-.48c0-2.4-1.328-4.032-3.696-4.032-1.936 0-3.68 1.648-3.68 4.064 0 2.608 1.808 4.112 3.872 4.112zm1.936-4.88H148.6c.064-.992.832-1.968 2.096-1.968 1.36 0 2.08.864 2.112 1.968zm6.496 4.848c1.2 0 2.016-.64 2.384-1.376v.128c0 .464.048.864.08 1.04h1.456c-.016-.128-.08-.688-.08-1.424v-10.16h-1.488v4.976c-.256-.624-.992-1.296-2.352-1.296-2.176 0-3.648 1.856-3.648 4.032 0 2.288 1.392 4.08 3.648 4.08zm.144-1.328c-1.44 0-2.256-1.168-2.256-2.752s.896-2.704 2.272-2.704 2.208 1.088 2.208 2.672-.848 2.784-2.224 2.784z" fill="#74798c"/><circle cx="123.5" cy="258.5" r="2.5" class="I"/><circle fill="#21d26e" cx="113.5" cy="258.5" r="2.5"/><circle cx="133.5" cy="258.5" r="2.5" class="I"/><path d="M27.955 45.225c2.445 0 4.125-1.425 4.695-3.42l-1.305-.48c-.435 1.455-1.575 2.55-3.4 2.55-1.935 0-3.78-1.425-3.78-4.2s1.845-4.185 3.78-4.185c1.74 0 2.9.9 3.315 2.505l1.365-.48c-.54-2.055-2.25-3.375-4.68-3.375-2.64 0-5.28 1.98-5.28 5.535s2.535 5.55 5.28 5.55zM36.1 45V34.365h-1.5V45h1.5zm9.645.225c2.265 0 3.675-1.5 3.675-3.15 0-1.485-1-2.595-2.76-2.985l-1.6-.345c-.9-.195-1.365-.78-1.365-1.545 0-1 .855-1.77 2.055-1.77 1.485 0 2.13 1.05 2.25 1.815l1.32-.465c-.24-1.155-1.2-2.64-3.6-2.64-1.965 0-3.5 1.5-3.5 3.165 0 1.6 1.08 2.58 2.595 2.9l1.515.33c1.065.225 1.6.885 1.6 1.65 0 .93-.72 1.695-2.2 1.695-1.605 0-2.445-1.095-2.55-2.28l-1.4.45c.195 1.515 1.4 3.165 3.975 3.165zm8.04-.15c.48 0 .84-.1.96-.135v-1.2c-.12.03-.375.06-.555.06-.735 0-1.005-.33-1.005-1v-3.75h1.56v-1.275h-1.56v-2.28h-1.3v1.17c0 .63-.33 1.1-1.1 1.1h-.4v1.275h1.38v3.96c0 1.305.78 2.055 2 2.055zm4.8.15c1.3 0 2-.7 2.325-1.2 0 .525.045.795.075.975h1.38c-.03-.18-.1-.555-.1-1.185V40.2c0-1.4-.84-2.64-3-2.64-1.56 0-2.805.96-2.955 2.34l1.35.315c.1-.84.645-1.455 1.635-1.455 1.095 0 1.56.585 1.56 1.3 0 .255-.12.48-.555.54l-1.95.285c-1.245.18-2.2.9-2.2 2.2 0 1.14.945 2.16 2.415 2.16zm.195-1.185c-.72 0-1.17-.5-1.17-1.05 0-.645.45-1 1.05-1.08l2.205-.33v.33c0 1.575-.93 2.13-2.085 2.13zm8.175 1.035c.48 0 .84-.1.96-.135v-1.2c-.12.03-.375.06-.555.06-.735 0-1.005-.33-1.005-1v-3.75h1.56v-1.275h-1.56v-2.28h-1.3v1.17c0 .63-.33 1.1-1.1 1.1h-.4v1.275h1.38v3.96c0 1.305.78 2.055 2 2.055zm5.46.15c.84 0 1.74-.345 2.13-1.095 0 .3.03.705.06.87h1.35a12.14 12.14 0 0 1-.075-1.335v-5.88h-1.4v4.35c0 1.095-.57 1.845-1.7 1.845-1.185 0-1.635-.87-1.635-1.86v-4.335h-1.4v4.545c0 1.635 1.02 2.895 2.7 2.895zm8.13 0c1.785 0 2.64-1.215 2.64-2.235 0-1.065-.7-1.86-1.995-2.145l-1.17-.255c-.555-.12-.825-.435-.825-.87 0-.495.48-.96 1.2-.96 1.14 0 1.44.825 1.5 1.2l1.245-.465c-.15-.645-.765-1.935-2.745-1.935-1.4 0-2.565 1.05-2.565 2.28 0 1.02.675 1.785 1.8 2.025l1.23.27c.6.135.93.48.93.93 0 .5-.435.96-1.23.96-1.02 0-1.6-.6-1.68-1.35l-1.275.45c.12.825.96 2.1 2.94 2.1z" fill="#414141"/></g></g><g class="B H"><rect x="299" width="6.002" height="6.005" rx="3.001"/><rect x="323.007" width="6.002" height="6.005" rx="3.001"/><rect x="347.013" width="6.002" height="6.005" rx="3.001"/><rect x="371.02" width="6.002" height="6.005" rx="3.001"/><rect x="395.027" width="6.002" height="6.005" rx="3.001"/><rect x="419.033" width="6.002" height="6.005" rx="3.001"/><rect x="443.04" width="6.002" height="6.005" rx="3.001"/><rect x="467.047" width="6.002" height="6.005" rx="3.001"/><rect x="491.053" width="6.002" height="6.005" rx="3.001"/><rect x="515.06" width="6.002" height="6.005" rx="3.001"/><rect x="299" y="24.019" width="6.002" height="6.005" rx="3.001"/><rect x="323.007" y="24.019" width="6.002" height="6.005" rx="3.001"/><rect x="347.013" y="24.019" width="6.002" height="6.005" rx="3.001"/><rect x="371.02" y="24.019" width="6.002" height="6.005" rx="3.001"/><rect x="395.027" y="24.019" width="6.002" height="6.005" rx="3.001"/><rect x="419.033" y="24.019" width="6.002" height="6.005" rx="3.001"/><rect x="443.04" y="24.019" width="6.002" height="6.005" rx="3.001"/><rect x="467.047" y="24.019" width="6.002" height="6.005" rx="3.001"/><rect x="491.053" y="24.019" width="6.002" height="6.005" rx="3.001"/><rect x="515.06" y="24.019" width="6.002" height="6.005" rx="3.001"/><rect x="299" y="48.037" width="6.002" height="6.005" rx="3.001"/><rect x="323.007" y="48.037" width="6.002" height="6.005" rx="3.001"/><rect x="347.013" y="48.037" width="6.002" height="6.005" rx="3.001"/><rect x="371.02" y="48.037" width="6.002" height="6.005" rx="3.001"/><rect x="395.027" y="48.037" width="6.002" height="6.005" rx="3.001"/><rect x="419.033" y="48.037" width="6.002" height="6.005" rx="3.001"/><rect x="443.04" y="48.037" width="6.002" height="6.005" rx="3.001"/><rect x="467.047" y="48.037" width="6.002" height="6.005" rx="3.001"/><rect x="491.053" y="48.037" width="6.002" height="6.005" rx="3.001"/><rect x="515.06" y="48.037" width="6.002" height="6.005" rx="3.001"/><rect x="299" y="72.056" width="6.002" height="6.005" rx="3.001"/><rect x="323.007" y="72.056" width="6.002" height="6.005" rx="3.001"/><rect x="347.013" y="72.056" width="6.002" height="6.005" rx="3.001"/><rect x="371.02" y="72.056" width="6.002" height="6.005" rx="3.001"/><rect x="395.027" y="72.056" width="6.002" height="6.005" rx="3.001"/><rect x="419.033" y="72.056" width="6.002" height="6.005" rx="3.001"/><rect x="443.04" y="72.056" width="6.002" height="6.005" rx="3.001"/><rect x="467.047" y="72.056" width="6.002" height="6.005" rx="3.001"/><rect x="491.053" y="72.056" width="6.002" height="6.005" rx="3.001"/><rect x="515.06" y="72.056" width="6.002" height="6.005" rx="3.001"/><rect x="299" y="96.075" width="6.002" height="6.005" rx="3.001"/><rect x="323.007" y="96.075" width="6.002" height="6.005" rx="3.001"/><rect x="347.013" y="96.075" width="6.002" height="6.005" rx="3.001"/><rect x="371.02" y="96.075" width="6.002" height="6.005" rx="3.001"/><rect x="395.027" y="96.075" width="6.002" height="6.005" rx="3.001"/><rect x="419.033" y="96.075" width="6.002" height="6.005" rx="3.001"/><rect x="443.04" y="96.075" width="6.002" height="6.005" rx="3.001"/><rect x="467.047" y="96.075" width="6.002" height="6.005" rx="3.001"/><rect x="491.053" y="96.075" width="6.002" height="6.005" rx="3.001"/><rect x="515.06" y="96.075" width="6.002" height="6.005" rx="3.001"/><rect x="299" y="120.093" width="6.002" height="6.005" rx="3.001"/><rect x="323.007" y="120.093" width="6.002" height="6.005" rx="3.001"/><rect x="347.013" y="120.093" width="6.002" height="6.005" rx="3.001"/><rect x="371.02" y="120.093" width="6.002" height="6.005" rx="3.001"/><rect x="395.027" y="120.093" width="6.002" height="6.005" rx="3.001"/><rect x="419.033" y="120.093" width="6.002" height="6.005" rx="3.001"/><rect x="443.04" y="120.093" width="6.002" height="6.005" rx="3.001"/><rect x="467.047" y="120.093" width="6.002" height="6.005" rx="3.001"/><rect x="491.053" y="120.093" width="6.002" height="6.005" rx="3.001"/><rect x="515.06" y="120.093" width="6.002" height="6.005" rx="3.001"/><rect x="299" y="144.112" width="6.002" height="6.005" rx="3.001"/><rect x="323.007" y="144.112" width="6.002" height="6.005" rx="3.001"/><rect x="347.013" y="144.112" width="6.002" height="6.005" rx="3.001"/><rect x="371.02" y="144.112" width="6.002" height="6.005" rx="3.001"/><rect x="395.027" y="144.112" width="6.002" height="6.005" rx="3.001"/><rect x="419.033" y="144.112" width="6.002" height="6.005" rx="3.001"/><rect x="443.04" y="144.112" width="6.002" height="6.005" rx="3.001"/><rect x="467.047" y="144.112" width="6.002" height="6.005" rx="3.001"/><rect x="491.053" y="144.112" width="6.002" height="6.005" rx="3.001"/><rect x="515.06" y="144.112" width="6.002" height="6.005" rx="3.001"/><rect x="299" y="168.131" width="6.002" height="6.005" rx="3.001"/><rect x="323.007" y="168.131" width="6.002" height="6.005" rx="3.001"/><rect x="347.013" y="168.131" width="6.002" height="6.005" rx="3.001"/><rect x="371.02" y="168.131" width="6.002" height="6.005" rx="3.001"/><rect x="395.027" y="168.131" width="6.002" height="6.005" rx="3.001"/><rect x="419.033" y="168.131" width="6.002" height="6.005" rx="3.001"/><rect x="443.04" y="168.131" width="6.002" height="6.005" rx="3.001"/><rect x="467.047" y="168.131" width="6.002" height="6.005" rx="3.001"/><rect x="491.053" y="168.131" width="6.002" height="6.005" rx="3.001"/><rect x="515.06" y="168.131" width="6.002" height="6.005" rx="3.001"/><rect x="299" y="192.15" width="6.002" height="6.005" rx="3.001"/><rect x="323.007" y="192.15" width="6.002" height="6.005" rx="3.001"/><rect x="347.013" y="192.15" width="6.002" height="6.005" rx="3.001"/><rect x="371.02" y="192.15" width="6.002" height="6.005" rx="3.001"/><rect x="395.027" y="192.15" width="6.002" height="6.005" rx="3.001"/><rect x="419.033" y="192.15" width="6.002" height="6.005" rx="3.001"/><rect x="443.04" y="192.15" width="6.002" height="6.005" rx="3.001"/><rect x="467.047" y="192.15" width="6.002" height="6.005" rx="3.001"/><rect x="491.053" y="192.15" width="6.002" height="6.005" rx="3.001"/><rect x="515.06" y="192.15" width="6.002" height="6.005" rx="3.001"/></g><g transform="translate(247 163)"><g class="B"><use filter="url(#D)" xlink:href="#C" class="D"/><use xlink:href="#C" class="E"/></g><mask id="a" class="C"><use xlink:href="#E"/></mask><use xlink:href="#E" class="B E"/><path d="M95 197c25.98-54.333 44.187-81.5 54.62-81.5 15.65 0 50.902 60.71 89.916 60.71s58.57-22.926 101.625-29.535S390.112 197 415 197s66.444-61.07 84.552-61.07c17.142 0 23.528 50.507 76.26 50.507s85.63-103.303 109.53-103.303c15.933 0 32.486 37.956 49.658 113.867H95z" fill="url(#F)" class="J"/><path d="M95 197c23.353-17.178 44.854-25.767 64.503-25.767 29.473 0 31.44 11.822 84.955 11.822S309.2 129 344.682 129s44.415 68 70.318 68c29.038 0-2.225-136 19.116-136 27.064 0 41.36 99.204 65.7 99.204s39.247-52.628 64.09-52.628c22.062 0 37.666 54.528 53.487 60.67 16.692 6.48 24.38-45.074 55.764-45.074 20.922 0 41.537 24.6 61.844 73.83H95z" fill="url(#G)" class="J"/><g fill="#2b3034" fill-opacity=".4" class="B J"><path d="M91.862 226.192c1.728 0 2.856-1.188 2.856-2.652 0-1.608-1.116-2.58-2.64-2.58-.612 0-1.236.192-1.584.576l.576-2.232h3.324v-1.08H90.3l-1.008 3.864 1.152.456c.336-.348.864-.564 1.416-.564.9 0 1.68.54 1.68 1.608 0 .96-.744 1.572-1.668 1.572-.972 0-1.68-.648-1.752-1.608l-1.128.336c.108 1.224 1.224 2.304 2.88 2.304zm5.352-.192v-1.74l.804-.804L99.902 226h1.416l-2.508-3.336 2.46-2.436H99.7l-2.496 2.556v-5.472h-1.116V226h1.116zm-52.346-25v-1.092h-3.996c.108-.48.504-.804.948-1.092l1.536-.984c.888-.564 1.464-1.38 1.464-2.4 0-1.296-.96-2.388-2.628-2.388-1.704 0-2.688 1.188-2.688 2.52l.012.312 1.176.144-.024-.348c0-.888.48-1.596 1.5-1.596.984 0 1.464.66 1.464 1.368 0 .6-.336 1.152-1.068 1.62l-1.296.84c-1.32.852-1.824 1.824-1.848 3.096h5.448zm4.164.18c1.104 0 1.884-.492 2.388-1.248.516-.768.696-1.752.696-2.82s-.18-2.052-.696-2.82c-.504-.756-1.284-1.248-2.388-1.248s-1.884.492-2.388 1.248c-.516.768-.696 1.752-.696 2.82s.18 2.052.696 2.82c.504.756 1.284 1.248 2.388 1.248zm0-1.044c-.552 0-.936-.192-1.236-.504-.468-.492-.684-1.332-.684-2.52s.216-2.028.684-2.52c.3-.312.684-.504 1.236-.504s.936.192 1.236.504c.468.492.684 1.332.684 2.52s-.216 2.028-.684 2.52c-.3.312-.684.504-1.236.504zm6.264-3.216c1.032 0 1.932-.828 1.932-1.896 0-1.056-.9-1.884-1.932-1.884s-1.92.828-1.92 1.884c0 1.068.888 1.896 1.92 1.896zm.144 4.08l5.568-7.776h-1.08L54.336 201h1.104zm-.144-5.028c-.516 0-.924-.396-.924-.948a.91.91 0 0 1 .924-.936c.528 0 .924.396.924.936 0 .552-.396.948-.924.948zm4.752 5.124c1.032 0 1.932-.828 1.932-1.896 0-1.056-.9-1.884-1.932-1.884s-1.92.828-1.92 1.884c0 1.068.888 1.896 1.92 1.896zm0-.948c-.516 0-.924-.396-.924-.948a.91.91 0 0 1 .924-.936c.528 0 .924.396.924.936 0 .552-.396.948-.924.948zM44.376 162v-1.752h1.332v-1.092h-1.332v-4.932h-1.62l-3.336 4.668v1.356h3.816V162h1.14zm-1.14-2.844H40.5l2.736-3.804v3.804zm6.336 3.024c1.104 0 1.884-.492 2.388-1.248.516-.768.696-1.752.696-2.82s-.18-2.052-.696-2.82c-.504-.756-1.284-1.248-2.388-1.248s-1.884.492-2.388 1.248c-.516.768-.696 1.752-.696 2.82s.18 2.052.696 2.82c.504.756 1.284 1.248 2.388 1.248zm0-1.044c-.552 0-.936-.192-1.236-.504-.468-.492-.684-1.332-.684-2.52s.216-2.028.684-2.52c.3-.312.684-.504 1.236-.504s.936.192 1.236.504c.468.492.684 1.332.684 2.52s-.216 2.028-.684 2.52c-.3.312-.684.504-1.236.504zm6.264-3.216c1.032 0 1.932-.828 1.932-1.896 0-1.056-.9-1.884-1.932-1.884s-1.92.828-1.92 1.884c0 1.068.888 1.896 1.92 1.896zm.144 4.08l5.568-7.776h-1.08L54.876 162h1.104zm-.144-5.028c-.516 0-.924-.396-.924-.948a.91.91 0 0 1 .924-.936c.528 0 .924.396.924.936 0 .552-.396.948-.924.948zm4.752 5.124c1.032 0 1.932-.828 1.932-1.896 0-1.056-.9-1.884-1.932-1.884s-1.92.828-1.92 1.884c0 1.068.888 1.896 1.92 1.896zm0-.948c-.516 0-.924-.396-.924-.948a.91.91 0 0 1 .924-.936c.528 0 .924.396.924.936 0 .552-.396.948-.924.948zm-17.94-37.968c1.524 0 2.88-.984 2.88-2.652 0-1.692-1.128-2.652-2.664-2.652-1.032 0-1.74.492-2.052 1.008.096-1.596 1.116-2.784 2.736-2.784.588 0 1.104.168 1.392.336l.36-.96c-.36-.252-.972-.432-1.68-.432-2.268 0-4.008 1.644-4.008 4.536 0 2.568 1.548 3.6 3.036 3.6zm.012-1.02c-.852 0-1.68-.612-1.68-1.632 0-1.044.78-1.644 1.68-1.644s1.68.6 1.68 1.644c0 1.032-.768 1.632-1.68 1.632zm6.984 1.02c1.104 0 1.884-.492 2.388-1.248.516-.768.696-1.752.696-2.82s-.18-2.052-.696-2.82c-.504-.756-1.284-1.248-2.388-1.248s-1.884.492-2.388 1.248c-.516.768-.696 1.752-.696 2.82s.18 2.052.696 2.82c.504.756 1.284 1.248 2.388 1.248zm0-1.044c-.552 0-.936-.192-1.236-.504-.468-.492-.684-1.332-.684-2.52s.216-2.028.684-2.52c.3-.312.684-.504 1.236-.504s.936.192 1.236.504c.468.492.684 1.332.684 2.52s-.216 2.028-.684 2.52c-.3.312-.684.504-1.236.504zm6.264-3.216c1.032 0 1.932-.828 1.932-1.896 0-1.056-.9-1.884-1.932-1.884s-1.92.828-1.92 1.884c0 1.068.888 1.896 1.92 1.896zm.144 4.08l5.568-7.776h-1.08L54.948 123h1.104zm-.144-5.028c-.516 0-.924-.396-.924-.948a.91.91 0 0 1 .924-.936c.528 0 .924.396.924.936 0 .552-.396.948-.924.948zm4.752 5.124c1.032 0 1.932-.828 1.932-1.896 0-1.056-.9-1.884-1.932-1.884s-1.92.828-1.92 1.884c0 1.068.888 1.896 1.92 1.896zm0-.948c-.516 0-.924-.396-.924-.948a.91.91 0 0 1 .924-.936c.528 0 .924.396.924.936 0 .552-.396.948-.924.948zM42.36 84.18c1.788 0 2.82-.984 2.82-2.232 0-.948-.648-1.656-1.476-1.92.72-.264 1.272-.984 1.272-1.824 0-1.272-1.128-2.16-2.616-2.16s-2.616.888-2.616 2.16c0 .864.564 1.56 1.272 1.824-.828.276-1.476.972-1.476 1.92 0 1.248 1.032 2.232 2.82 2.232zm0-4.644c-.828-.012-1.44-.516-1.44-1.272 0-.696.564-1.248 1.44-1.248s1.44.552 1.44 1.248c0 .756-.612 1.26-1.44 1.272zm0 3.624c-1.044 0-1.632-.576-1.632-1.308 0-.744.6-1.332 1.632-1.332s1.632.588 1.632 1.332c0 .732-.588 1.308-1.632 1.308zm7.044 1.02c1.104 0 1.884-.492 2.388-1.248.516-.768.696-1.752.696-2.82s-.18-2.052-.696-2.82c-.504-.756-1.284-1.248-2.388-1.248s-1.884.492-2.388 1.248c-.516.768-.696 1.752-.696 2.82s.18 2.052.696 2.82c.504.756 1.284 1.248 2.388 1.248zm0-1.044c-.552 0-.936-.192-1.236-.504-.468-.492-.684-1.332-.684-2.52s.216-2.028.684-2.52c.3-.312.684-.504 1.236-.504s.936.192 1.236.504c.468.492.684 1.332.684 2.52s-.216 2.028-.684 2.52c-.3.312-.684.504-1.236.504zm6.264-3.216c1.032 0 1.932-.828 1.932-1.896 0-1.056-.9-1.884-1.932-1.884s-1.92.828-1.92 1.884c0 1.068.888 1.896 1.92 1.896zm.144 4.08l5.568-7.776H60.3L54.708 84h1.104zm-.144-5.028c-.516 0-.924-.396-.924-.948a.91.91 0 0 1 .924-.936c.528 0 .924.396.924.936 0 .552-.396.948-.924.948zm4.752 5.124c1.032 0 1.932-.828 1.932-1.896 0-1.056-.9-1.884-1.932-1.884s-1.92.828-1.92 1.884c0 1.068.888 1.896 1.92 1.896zm0-.948c-.516 0-.924-.396-.924-.948a.91.91 0 0 1 .924-.936c.528 0 .924.396.924.936 0 .552-.396.948-.924.948zM42.336 45v-7.776h-1.032c-.18.84-.924 1.44-2.004 1.464v.828h1.884V45h1.152zm4.584.18c1.104 0 1.884-.492 2.388-1.248.516-.768.696-1.752.696-2.82s-.18-2.052-.696-2.82c-.504-.756-1.284-1.248-2.388-1.248s-1.884.492-2.388 1.248c-.516.768-.696 1.752-.696 2.82s.18 2.052.696 2.82c.504.756 1.284 1.248 2.388 1.248zm0-1.044c-.552 0-.936-.192-1.236-.504-.468-.492-.684-1.332-.684-2.52s.216-2.028.684-2.52c.3-.312.684-.504 1.236-.504s.936.192 1.236.504c.468.492.684 1.332.684 2.52s-.216 2.028-.684 2.52c-.3.312-.684.504-1.236.504zm7.368 1.044c1.104 0 1.884-.492 2.388-1.248.516-.768.696-1.752.696-2.82s-.18-2.052-.696-2.82c-.504-.756-1.284-1.248-2.388-1.248s-1.884.492-2.388 1.248c-.516.768-.696 1.752-.696 2.82s.18 2.052.696 2.82c.504.756 1.284 1.248 2.388 1.248zm0-1.044c-.552 0-.936-.192-1.236-.504-.468-.492-.684-1.332-.684-2.52s.216-2.028.684-2.52c.3-.312.684-.504 1.236-.504s.936.192 1.236.504c.468.492.684 1.332.684 2.52s-.216 2.028-.684 2.52c-.3.312-.684.504-1.236.504zm6.264-3.216c1.032 0 1.932-.828 1.932-1.896 0-1.056-.9-1.884-1.932-1.884s-1.92.828-1.92 1.884c0 1.068.888 1.896 1.92 1.896zm.144 4.08l5.568-7.776h-1.08L59.592 45h1.104zm-.144-5.028c-.516 0-.924-.396-.924-.948a.91.91 0 0 1 .924-.936c.528 0 .924.396.924.936 0 .552-.396.948-.924.948zm4.752 5.124c1.032 0 1.932-.828 1.932-1.896 0-1.056-.9-1.884-1.932-1.884s-1.92.828-1.92 1.884c0 1.068.888 1.896 1.92 1.896zm0-.948c-.516 0-.924-.396-.924-.948a.91.91 0 0 1 .924-.936c.528 0 .924.396.924.936 0 .552-.396.948-.924.948zM176.384 226v-7.776h-1.032c-.18.84-.924 1.44-2.004 1.464v.828h1.884V226h1.152zm4.584.18c1.104 0 1.884-.492 2.388-1.248.516-.768.696-1.752.696-2.82s-.18-2.052-.696-2.82c-.504-.756-1.284-1.248-2.388-1.248s-1.884.492-2.388 1.248c-.516.768-.696 1.752-.696 2.82s.18 2.052.696 2.82c.504.756 1.284 1.248 2.388 1.248zm0-1.044c-.552 0-.936-.192-1.236-.504-.468-.492-.684-1.332-.684-2.52s.216-2.028.684-2.52c.3-.312.684-.504 1.236-.504s.936.192 1.236.504c.468.492.684 1.332.684 2.52s-.216 2.028-.684 2.52c-.3.312-.684.504-1.236.504zm5.76.864v-1.74l.804-.804 1.884 2.544h1.416l-2.508-3.336 2.46-2.436h-1.56l-2.496 2.556v-5.472h-1.116V226h1.116zm80.052 0v-7.776h-1.032c-.18.84-.924 1.44-2.004 1.464v.828h1.884V226h1.152zm4.2.192c1.728 0 2.856-1.188 2.856-2.652 0-1.608-1.116-2.58-2.64-2.58-.612 0-1.236.192-1.584.576l.576-2.232h3.324v-1.08h-4.104l-1.008 3.864 1.152.456c.336-.348.864-.564 1.416-.564.9 0 1.68.54 1.68 1.608 0 .96-.744 1.572-1.668 1.572-.972 0-1.68-.648-1.752-1.608l-1.128.336c.108 1.224 1.224 2.304 2.88 2.304zm5.352-.192v-1.74l.804-.804L279.02 226h1.416l-2.508-3.336 2.46-2.436h-1.56l-2.496 2.556v-5.472h-1.116V226h1.116zm83.528 0v-1.092h-3.996c.108-.48.504-.804.948-1.092l1.536-.984c.888-.564 1.464-1.38 1.464-2.4 0-1.296-.96-2.388-2.628-2.388-1.704 0-2.688 1.188-2.688 2.52l.012.312 1.176.144-.024-.348c0-.888.48-1.596 1.5-1.596.984 0 1.464.66 1.464 1.368 0 .6-.336 1.152-1.068 1.62l-1.296.84c-1.32.852-1.824 1.824-1.848 3.096h5.448zm4.164.18c1.104 0 1.884-.492 2.388-1.248.516-.768.696-1.752.696-2.82s-.18-2.052-.696-2.82c-.504-.756-1.284-1.248-2.388-1.248s-1.884.492-2.388 1.248c-.516.768-.696 1.752-.696 2.82s.18 2.052.696 2.82c.504.756 1.284 1.248 2.388 1.248zm0-1.044c-.552 0-.936-.192-1.236-.504-.468-.492-.684-1.332-.684-2.52s.216-2.028.684-2.52c.3-.312.684-.504 1.236-.504s.936.192 1.236.504c.468.492.684 1.332.684 2.52s-.216 2.028-.684 2.52c-.3.312-.684.504-1.236.504zm5.76.864v-1.74l.804-.804 1.884 2.544h1.416l-2.508-3.336 2.46-2.436h-1.56l-2.496 2.556v-5.472h-1.116V226h1.116z"/></g><path d="M125 103a6 6 0 0 1-6-6h0V87a6 6 0 0 1 6-6h50a6 6 0 0 1 6 6h0v10a6 6 0 0 1-6 6h0-19l-6 5.977-6-5.977z" fill="#cb8eec"/><path d="M129.984 96.18c1.5 0 2.328-.972 2.604-1.8l-.996-.432c-.132.456-.528 1.188-1.608 1.188-.936 0-1.764-.708-1.764-2.028 0-1.344.84-2.016 1.752-2.016.984 0 1.404.66 1.548 1.224l1.02-.432c-.24-.876-1.032-1.836-2.568-1.836-1.644 0-2.904 1.26-2.904 3.06 0 1.752 1.236 3.072 2.916 3.072zm5.436 0c1.032 0 1.608-.552 1.86-.96 0 .42.036.636.06.78h1.104a5.43 5.43 0 0 1-.072-.948V92.16c0-1.128-.672-2.112-2.4-2.112-1.248 0-2.244.768-2.364 1.872l1.08.252a1.22 1.22 0 0 1 1.308-1.164c.876 0 1.248.468 1.248 1.032 0 .204-.096.384-.444.432l-1.56.228c-.996.144-1.752.72-1.752 1.752 0 .912.756 1.728 1.932 1.728zm.156-.948c-.576 0-.936-.408-.936-.84 0-.516.36-.792.84-.864l1.764-.264v.264c0 1.26-.744 1.704-1.668 1.704zm5.664 3.048v-3.06c.312.516.984.936 1.872.936 1.692 0 2.688-1.332 2.688-3.048 0-1.68-.924-3.012-2.652-3.012-.936 0-1.62.456-1.932 1.032v-.9h-1.092v8.052h1.116zm1.704-3.132c-1.032 0-1.716-.852-1.716-2.04 0-1.152.684-2.016 1.716-2.016 1.056 0 1.704.864 1.704 2.016 0 1.188-.66 2.04-1.704 2.04zm6.108 1.032c1.428 0 2.112-.972 2.112-1.788 0-.852-.552-1.488-1.596-1.716l-.936-.204c-.444-.096-.66-.348-.66-.696 0-.396.384-.768.96-.768.912 0 1.152.66 1.2.96l.996-.372c-.12-.516-.612-1.548-2.196-1.548-1.128 0-2.052.84-2.052 1.824 0 .816.54 1.428 1.44 1.62l.984.216c.48.108.744.384.744.744 0 .408-.348.768-.984.768-.816 0-1.272-.48-1.344-1.08l-1.02.36c.096.66.768 1.68 2.352 1.68zm5.652 0c.672 0 1.392-.276 1.704-.876a5.11 5.11 0 0 0 .048.696h1.08a9.71 9.71 0 0 1-.06-1.068v-4.704h-1.128v3.48c0 .876-.456 1.476-1.368 1.476-.948 0-1.308-.696-1.308-1.488v-3.468h-1.128v3.636c0 1.308.816 2.316 2.16 2.316zm5.82-.18v-8.688h-1.128V96h1.128zm4.356.18c1.344 0 2.268-.804 2.592-1.824l-.972-.336c-.216.648-.684 1.164-1.62 1.164-.972 0-1.716-.72-1.74-1.752h4.344c.012-.072.024-.216.024-.36 0-1.8-.996-3.024-2.772-3.024-1.452 0-2.76 1.236-2.76 3.048 0 1.956 1.356 3.084 2.904 3.084zm1.452-3.66h-3.156c.048-.744.624-1.476 1.572-1.476 1.02 0 1.56.648 1.584 1.476zm4.428 3.66c1.428 0 2.112-.972 2.112-1.788 0-.852-.552-1.488-1.596-1.716l-.936-.204c-.444-.096-.66-.348-.66-.696 0-.396.384-.768.96-.768.912 0 1.152.66 1.2.96l.996-.372c-.12-.516-.612-1.548-2.196-1.548-1.128 0-2.052.84-2.052 1.824 0 .816.54 1.428 1.44 1.62l.984.216c.48.108.744.384.744.744 0 .408-.348.768-.984.768-.816 0-1.272-.48-1.344-1.08l-1.02.36c.096.66.768 1.68 2.352 1.68z" class="B C"/><path d="M312 119a6 6 0 0 1-6-6h0v-10a6 6 0 0 1 6-6h62a6 6 0 0 1 6 6h0v10a6 6 0 0 1-6 6h0-25l-6 5.977-6-5.977z" fill="#5e77ff"/><path d="M317.614 112.18c1.032 0 1.608-.552 1.86-.96 0 .42.036.636.06.78h1.104a5.43 5.43 0 0 1-.072-.948v-2.892c0-1.128-.672-2.112-2.4-2.112-1.248 0-2.244.768-2.364 1.872l1.08.252a1.22 1.22 0 0 1 1.308-1.164c.876 0 1.248.468 1.248 1.032 0 .204-.096.384-.444.432l-1.56.228c-.996.144-1.752.72-1.752 1.752 0 .912.756 1.728 1.932 1.728zm.156-.948c-.576 0-.936-.408-.936-.84 0-.516.36-.792.84-.864l1.764-.264v.264c0 1.26-.744 1.704-1.668 1.704zm6.528.948c.672 0 1.392-.276 1.704-.876a5.11 5.11 0 0 0 .048.696h1.08a9.71 9.71 0 0 1-.06-1.068v-4.704h-1.128v3.48c0 .876-.456 1.476-1.368 1.476-.948 0-1.308-.696-1.308-1.488v-3.468h-1.128v3.636c0 1.308.816 2.316 2.16 2.316zm6.684-.12c.384 0 .672-.072.768-.108v-.96c-.096.024-.3.048-.444.048-.588 0-.804-.264-.804-.792v-3h1.248v-1.02h-1.248v-1.824h-1.032v.936c0 .504-.264.888-.888.888h-.312v1.02h1.104v3.168c0 1.044.624 1.644 1.608 1.644zm4.68.12c1.728 0 2.952-1.308 2.952-3.072 0-1.752-1.224-3.06-2.952-3.06s-2.952 1.308-2.952 3.06c0 1.764 1.224 3.072 2.952 3.072zm0-1.008c-.96 0-1.8-.72-1.8-2.064 0-1.332.84-2.052 1.8-2.052s1.8.72 1.8 2.052c0 1.344-.84 2.064-1.8 2.064zm7.224-2.124v-.984h-3.252v.984h3.252zm3.312 3.132c1.428 0 2.112-.972 2.112-1.788 0-.852-.552-1.488-1.596-1.716l-.936-.204c-.444-.096-.66-.348-.66-.696 0-.396.384-.768.96-.768.912 0 1.152.66 1.2.96l.996-.372c-.12-.516-.612-1.548-2.196-1.548-1.128 0-2.052.84-2.052 1.824 0 .816.54 1.428 1.44 1.62l.984.216c.48.108.744.384.744.744 0 .408-.348.768-.984.768-.816 0-1.272-.48-1.344-1.08l-1.02.36c.096.66.768 1.68 2.352 1.68zm5.988 0c1.5 0 2.328-.972 2.604-1.8l-.996-.432c-.132.456-.528 1.188-1.608 1.188-.936 0-1.764-.708-1.764-2.028 0-1.344.84-2.016 1.752-2.016.984 0 1.404.66 1.548 1.224l1.02-.432c-.24-.876-1.032-1.836-2.568-1.836-1.644 0-2.904 1.26-2.904 3.06 0 1.752 1.236 3.072 2.916 3.072zm5.436 0c1.032 0 1.608-.552 1.86-.96 0 .42.036.636.06.78h1.104a5.43 5.43 0 0 1-.072-.948v-2.892c0-1.128-.672-2.112-2.4-2.112-1.248 0-2.244.768-2.364 1.872l1.08.252a1.22 1.22 0 0 1 1.308-1.164c.876 0 1.248.468 1.248 1.032 0 .204-.096.384-.444.432l-1.56.228c-.996.144-1.752.72-1.752 1.752 0 .912.756 1.728 1.932 1.728zm.156-.948c-.576 0-.936-.408-.936-.84 0-.516.36-.792.84-.864l1.764-.264v.264c0 1.26-.744 1.704-1.668 1.704zm5.676.768v-8.688h-1.128V112h1.128zm4.356.18c1.344 0 2.268-.804 2.592-1.824l-.972-.336c-.216.648-.684 1.164-1.62 1.164-.972 0-1.716-.72-1.74-1.752h4.344c.012-.072.024-.216.024-.36 0-1.8-.996-3.024-2.772-3.024-1.452 0-2.76 1.236-2.76 3.048 0 1.956 1.356 3.084 2.904 3.084zm1.452-3.66h-3.156c.048-.744.624-1.476 1.572-1.476 1.02 0 1.56.648 1.584 1.476z" class="B C"/></g><g class="B H"><rect y="108" width="6.002" height="6.005" rx="3.001"/><rect x="24.007" y="108" width="6.002" height="6.005" rx="3.001"/><rect x="48.013" y="108" width="6.002" height="6.005" rx="3.001"/><rect x="72.02" y="108" width="6.002" height="6.005" rx="3.001"/><rect x="96.027" y="108" width="6.002" height="6.005" rx="3.001"/><rect x="120.033" y="108" width="6.002" height="6.005" rx="3.001"/><rect x="144.04" y="108" width="6.002" height="6.005" rx="3.001"/><rect x="168.047" y="108" width="6.002" height="6.005" rx="3.001"/><rect x="192.053" y="108" width="6.002" height="6.005" rx="3.001"/><rect x="216.06" y="108" width="6.002" height="6.005" rx="3.001"/><rect y="132.019" width="6.002" height="6.005" rx="3.001"/><rect x="24.007" y="132.019" width="6.002" height="6.005" rx="3.001"/><rect x="48.013" y="132.019" width="6.002" height="6.005" rx="3.001"/><rect x="72.02" y="132.019" width="6.002" height="6.005" rx="3.001"/><rect x="96.027" y="132.019" width="6.002" height="6.005" rx="3.001"/><rect x="120.033" y="132.019" width="6.002" height="6.005" rx="3.001"/><rect x="144.04" y="132.019" width="6.002" height="6.005" rx="3.001"/><rect x="168.047" y="132.019" width="6.002" height="6.005" rx="3.001"/><rect x="192.053" y="132.019" width="6.002" height="6.005" rx="3.001"/><rect x="216.06" y="132.019" width="6.002" height="6.005" rx="3.001"/><rect y="156.037" width="6.002" height="6.005" rx="3.001"/><rect x="24.007" y="156.037" width="6.002" height="6.005" rx="3.001"/><rect x="48.013" y="156.037" width="6.002" height="6.005" rx="3.001"/><rect x="72.02" y="156.037" width="6.002" height="6.005" rx="3.001"/><rect x="96.027" y="156.037" width="6.002" height="6.005" rx="3.001"/><rect x="120.033" y="156.037" width="6.002" height="6.005" rx="3.001"/><rect x="144.04" y="156.037" width="6.002" height="6.005" rx="3.001"/><rect x="168.047" y="156.037" width="6.002" height="6.005" rx="3.001"/><rect x="192.053" y="156.037" width="6.002" height="6.005" rx="3.001"/><rect x="216.06" y="156.037" width="6.002" height="6.005" rx="3.001"/><rect y="180.056" width="6.002" height="6.005" rx="3.001"/><rect x="24.007" y="180.056" width="6.002" height="6.005" rx="3.001"/><rect x="48.013" y="180.056" width="6.002" height="6.005" rx="3.001"/><rect x="72.02" y="180.056" width="6.002" height="6.005" rx="3.001"/><rect x="96.027" y="180.056" width="6.002" height="6.005" rx="3.001"/><rect x="120.033" y="180.056" width="6.002" height="6.005" rx="3.001"/><rect x="144.04" y="180.056" width="6.002" height="6.005" rx="3.001"/><rect x="168.047" y="180.056" width="6.002" height="6.005" rx="3.001"/><rect x="192.053" y="180.056" width="6.002" height="6.005" rx="3.001"/><rect x="216.06" y="180.056" width="6.002" height="6.005" rx="3.001"/><rect y="204.075" width="6.002" height="6.005" rx="3.001"/><rect x="24.007" y="204.075" width="6.002" height="6.005" rx="3.001"/><rect x="48.013" y="204.075" width="6.002" height="6.005" rx="3.001"/><rect x="72.02" y="204.075" width="6.002" height="6.005" rx="3.001"/><rect x="96.027" y="204.075" width="6.002" height="6.005" rx="3.001"/><rect x="120.033" y="204.075" width="6.002" height="6.005" rx="3.001"/><rect x="144.04" y="204.075" width="6.002" height="6.005" rx="3.001"/><rect x="168.047" y="204.075" width="6.002" height="6.005" rx="3.001"/><rect x="192.053" y="204.075" width="6.002" height="6.005" rx="3.001"/><rect x="216.06" y="204.075" width="6.002" height="6.005" rx="3.001"/><rect y="228.093" width="6.002" height="6.005" rx="3.001"/><rect x="24.007" y="228.093" width="6.002" height="6.005" rx="3.001"/><rect x="48.013" y="228.093" width="6.002" height="6.005" rx="3.001"/><rect x="72.02" y="228.093" width="6.002" height="6.005" rx="3.001"/><rect x="96.027" y="228.093" width="6.002" height="6.005" rx="3.001"/><rect x="120.033" y="228.093" width="6.002" height="6.005" rx="3.001"/><rect x="144.04" y="228.093" width="6.002" height="6.005" rx="3.001"/><rect x="168.047" y="228.093" width="6.002" height="6.005" rx="3.001"/><rect x="192.053" y="228.093" width="6.002" height="6.005" rx="3.001"/><rect x="216.06" y="228.093" width="6.002" height="6.005" rx="3.001"/><rect y="252.112" width="6.002" height="6.005" rx="3.001"/><rect x="24.007" y="252.112" width="6.002" height="6.005" rx="3.001"/><rect x="48.013" y="252.112" width="6.002" height="6.005" rx="3.001"/><rect x="72.02" y="252.112" width="6.002" height="6.005" rx="3.001"/><rect x="96.027" y="252.112" width="6.002" height="6.005" rx="3.001"/><rect x="120.033" y="252.112" width="6.002" height="6.005" rx="3.001"/><rect x="144.04" y="252.112" width="6.002" height="6.005" rx="3.001"/><rect x="168.047" y="252.112" width="6.002" height="6.005" rx="3.001"/><rect x="192.053" y="252.112" width="6.002" height="6.005" rx="3.001"/><rect x="216.06" y="252.112" width="6.002" height="6.005" rx="3.001"/><rect y="276.131" width="6.002" height="6.005" rx="3.001"/><rect x="24.007" y="276.131" width="6.002" height="6.005" rx="3.001"/><rect x="48.013" y="276.131" width="6.002" height="6.005" rx="3.001"/><rect x="72.02" y="276.131" width="6.002" height="6.005" rx="3.001"/><rect x="96.027" y="276.131" width="6.002" height="6.005" rx="3.001"/><rect x="120.033" y="276.131" width="6.002" height="6.005" rx="3.001"/><rect x="144.04" y="276.131" width="6.002" height="6.005" rx="3.001"/><rect x="168.047" y="276.131" width="6.002" height="6.005" rx="3.001"/><rect x="192.053" y="276.131" width="6.002" height="6.005" rx="3.001"/><rect x="216.06" y="276.131" width="6.002" height="6.005" rx="3.001"/><rect y="300.15" width="6.002" height="6.005" rx="3.001"/><rect x="24.007" y="300.15" width="6.002" height="6.005" rx="3.001"/><rect x="48.013" y="300.15" width="6.002" height="6.005" rx="3.001"/><rect x="72.02" y="300.15" width="6.002" height="6.005" rx="3.001"/><rect x="96.027" y="300.15" width="6.002" height="6.005" rx="3.001"/><rect x="120.033" y="300.15" width="6.002" height="6.005" rx="3.001"/><rect x="144.04" y="300.15" width="6.002" height="6.005" rx="3.001"/><rect x="168.047" y="300.15" width="6.002" height="6.005" rx="3.001"/><rect x="192.053" y="300.15" width="6.002" height="6.005" rx="3.001"/><rect x="216.06" y="300.15" width="6.002" height="6.005" rx="3.001"/></g><g transform="translate(158 58)"><g class="B"><use filter="url(#I)" xlink:href="#H" class="D"/><use xlink:href="#H" class="E"/></g><g transform="translate(13.3 9.8)"><g stroke-dasharray="68.35714147504495,724.9999510322305" stroke-width="145" stroke="#5e77ff"><use stroke-opacity=".25" mask="url(#K)" transform="matrix(.587785 .809017 -.809017 .587785 123.955019 -40.275427)" xlink:href="#J"/><use stroke-opacity=".35" mask="url(#M)" transform="matrix(-.309017 .951057 -.951057 -.309017 229.397457 36.332988)" xlink:href="#L"/><use stroke-opacity=".55" mask="url(#O)" transform="matrix(-.951057 .309017 -.309017 -.951057 229.397457 166.667008)" xlink:href="#N"/><use stroke-opacity=".74" mask="url(#Q)" transform="matrix(-.809017 -.587785 .587785 -.809017 123.955019 243.275423)" xlink:href="#P"/></g><use filter="url(#S)" xlink:href="#R" class="D"/><use fill="#5e77ff" xlink:href="#R"/></g></g><g transform="translate(368 8)"><g class="B"><use filter="url(#U)" xlink:href="#T" class="D"/><use xlink:href="#T" class="E"/></g><rect fill="#eef6fa" x="25.6" y="25.6" width="48" height="48" rx="16"/><path d="M49.6 41.6c2.165 0 3.92 1.933 3.92 4.318 0 1.44-.696 2.608-1.68 3.393 2.74 1.004 4.76 3.855 4.76 7.094h0v1.3c-2.338.596-4.677.895-7.015.895s-4.667-.298-6.985-.895h0v-1.3c0-3.24 2.02-6.1 4.76-7.094-.984-.784-1.68-1.952-1.68-3.393 0-2.385 1.755-4.318 3.92-4.318zm-4.404 7.014l.02.037c.073.135.152.266.236.392l-.005-.007-.12.048c-1.947.794-3.096 2.5-3.775 4.6H39.6c0-2.106 1.37-3.93 3.214-4.583-.663-.5-1.07-1.355-1.07-2.292 0-1.55 1.113-2.75 2.57-2.75l-.02.001c-.187 1.707.078 3.544.9 4.554zm9.577-4.555c1.458 0 2.57 1.2 2.57 2.75 0 .937-.41 1.782-1.07 2.292 1.845.653 3.214 2.478 3.214 4.583h0-1.858c-.704-2.178-1.91-3.915-3.973-4.673l.1-.157c.984-.94 1.107-2.922.785-4.782l.022-.003z" fill="#5e9dff"/><g class="B"><path d="M100.624 46.4v-1.456h-5.328c.144-.64.672-1.072 1.264-1.456l2.048-1.312c1.184-.752 1.952-1.84 1.952-3.2 0-1.728-1.28-3.184-3.504-3.184-2.272 0-3.584 1.584-3.584 3.36l.016.416 1.568.192-.032-.464c0-1.184.64-2.128 2-2.128 1.312 0 1.952.88 1.952 1.824 0 .8-.448 1.536-1.424 2.16l-1.728 1.12c-1.76 1.136-2.432 2.432-2.464 4.128h7.264zm5.088.256c2.416 0 3.76-1.584 3.76-3.328 0-2.128-1.68-3.152-3.2-3.152l2.96-2.736v-1.408h-7.04v1.44h4.96l-3.056 2.816.768 1.296c.272-.096.592-.16.912-.16 1.024 0 2.112.576 2.112 1.936 0 1.04-.768 1.92-2.192 1.92-1.248 0-2.24-.864-2.304-2.24l-1.536.352c.096 1.696 1.456 3.264 3.856 3.264z" class="F"/><path d="M199.5 45.237v-1.96h1.9v-1.1h-1.9v-1.95h-1.12v1.95h-1.9v1.1h1.9v1.96h1.12zm5.44.6c1.43 0 2.5-.95 2.5-2.28 0-1.34-.9-2.18-2.24-2.18-.76 0-1.3.36-1.54.72.15-1.22 1.05-1.86 2.15-1.86.4 0 .8.1 1.07.23l.38-1.12c-.27-.16-.76-.3-1.36-.3-2.14 0-3.6 1.48-3.6 3.8 0 1.96 1.2 2.98 2.63 2.98zm-.01-1.16c-.6 0-1.14-.43-1.14-1.1 0-.67.52-1.08 1.14-1.08.63 0 1.15.4 1.15 1.08s-.52 1.1-1.15 1.1z" class="K"/></g><circle cx="185" cy="42" r="8" class="K"/><g class="B"><path d="M181.824 41.006l2.597-2.81c.232-.25.63-.26.876-.02l2.86 2.81c.236.232.236.608 0 .84s-.62.232-.855 0l-1.634-1.605v5.074c0 .39-.298.705-.667.705s-.667-.316-.667-.705v-5.237l-1.613 1.747c-.224.243-.607.26-.854.04s-.266-.596-.04-.84z" class="C"/><path d="M95.068 64v-6.358L99.28 64h1.122v-7.8h-1.078v5.984L95.43 56.2H94V64h1.078zm9.438.165c1.232 0 2.08-.737 2.376-1.672l-.89-.308c-.198.594-.627 1.067-1.485 1.067-.89 0-1.573-.66-1.595-1.606h3.982c.01-.066.022-.198.022-.33 0-1.65-.913-2.772-2.54-2.772-1.33 0-2.53 1.133-2.53 2.794 0 1.793 1.243 2.827 2.662 2.827zm1.33-3.355h-2.893c.044-.682.572-1.353 1.44-1.353.935 0 1.43.594 1.452 1.353zm4.5 3.2l1.375-4.026L113.13 64h1.067l1.716-5.29h-1.09l-1.166 3.982-1.375-3.982h-1.067l-1.375 3.982-1.188-3.982h-1.133l1.738 5.29h1.09zm11.187.055c.352 0 .616-.066.704-.1v-.88c-.088.022-.275.044-.407.044-.54 0-.737-.242-.737-.726v-2.75h1.144v-.935h-1.144v-1.672h-.946v.858c0 .462-.242.814-.814.814h-.286v.935h1.012v2.904c0 .957.572 1.507 1.474 1.507zm4.312.1c1.232 0 2.08-.737 2.376-1.672l-.89-.308c-.198.594-.627 1.067-1.485 1.067-.89 0-1.573-.66-1.595-1.606h3.982c.01-.066.022-.198.022-.33 0-1.65-.913-2.772-2.54-2.772-1.33 0-2.53 1.133-2.53 2.794 0 1.793 1.243 2.827 2.662 2.827zm1.33-3.355h-2.893c.044-.682.572-1.353 1.44-1.353.935 0 1.43.594 1.452 1.353zm3.84 3.355c.946 0 1.474-.506 1.705-.88a3.87 3.87 0 0 0 .055.715h1.012c-.022-.132-.066-.407-.066-.87v-2.65c0-1.034-.616-1.936-2.2-1.936-1.144 0-2.057.704-2.167 1.716l1 .23c.066-.616.473-1.067 1.2-1.067.803 0 1.144.43 1.144.946 0 .187-.088.352-.407.396l-1.43.21c-.913.132-1.606.66-1.606 1.606 0 .836.693 1.584 1.77 1.584zm.143-.87c-.528 0-.858-.374-.858-.77 0-.473.33-.726.77-.792l1.617-.242v.242c0 1.155-.682 1.562-1.53 1.562zm5.192.704v-3.2c0-.792.495-1.342 1.232-1.342.792 0 1.122.528 1.122 1.2V64h1.034v-3.2c0-.76.495-1.33 1.22-1.33.78 0 1.122.517 1.122 1.2V64h1.023v-3.432c0-1.386-.902-2.013-1.826-2.013-.67 0-1.353.242-1.77 1-.286-.682-.924-1-1.584-1-.616 0-1.276.275-1.606.858v-.704h-1V64h1.023z" class="G"/></g></g><g transform="translate(18 158)"><g class="B"><use filter="url(#U)" xlink:href="#V" class="D"/><use xlink:href="#V" class="E"/></g><g transform="translate(25.6 25.6)"><rect fill="#eef4ff" width="48" height="48" rx="16"/><g transform="translate(34 30)" class="B"><circle cx="9.5" cy="9.5" r="7.917" class="K"/><use xlink:href="#W" transform="translate(4.75 4.75)" class="C"/></g><path d="M31.5 27.1c.497 0 .9.353.9.788v4.725c0 .435-.403.788-.9.788h-5.4c-.497 0-.9-.353-.9-.788v-4.725c0-.435.403-.788.9-.788h5.4zm-9-3.6c.497 0 .9.37.9.825v8.25c0 .456-.403.825-.9.825h-7.2c-.497 0-.9-.37-.9-.825v-8.25c0-.456.403-.825.9-.825h7.2zm9-8.1a.9.9 0 0 1 .9.9v8.1a.9.9 0 0 1-.9.9h-5.4a.9.9 0 0 1-.9-.9v-8.1a.9.9 0 0 1 .9-.9h5.4zm-9 0a.9.9 0 0 1 .9.9v4.5a.9.9 0 0 1-.9.9h-7.2a.9.9 0 0 1-.9-.9v-4.5a.9.9 0 0 1 .9-.9h7.2z" fill="#3d5afe"/></g><g class="B"><path d="M97.4 46.456c2.304 0 3.808-1.584 3.808-3.536 0-2.144-1.488-3.44-3.52-3.44-.816 0-1.648.256-2.112.768l.768-2.976h4.432v-1.44h-5.472l-1.344 5.152 1.536.608c.448-.464 1.152-.752 1.888-.752 1.2 0 2.24.72 2.24 2.144 0 1.28-.992 2.096-2.224 2.096-1.296 0-2.24-.864-2.336-2.144l-1.504.448c.144 1.632 1.632 3.072 3.84 3.072zm9.232-.016c2.032 0 3.84-1.312 3.84-3.536 0-2.256-1.504-3.536-3.552-3.536-1.376 0-2.32.656-2.736 1.344.128-2.128 1.488-3.712 3.648-3.712.784 0 1.472.224 1.856.448l.48-1.28c-.48-.336-1.296-.576-2.24-.576-3.024 0-5.344 2.192-5.344 6.048 0 3.424 2.064 4.8 4.048 4.8zm.016-1.36c-1.136 0-2.24-.816-2.24-2.176 0-1.392 1.04-2.192 2.24-2.192s2.24.8 2.24 2.192c0 1.376-1.024 2.176-2.24 2.176z" class="F"/><path d="M97.314 63.8l3.003-7.8h-1.133l-2.376 6.413L94.454 56H93.3l2.937 7.8h1.067zm6.226.165c1.232 0 2.08-.737 2.376-1.672l-.89-.308c-.198.594-.627 1.067-1.485 1.067-.89 0-1.573-.66-1.595-1.606h3.982c.01-.066.022-.198.022-.33 0-1.65-.913-2.772-2.54-2.772-1.33 0-2.53 1.133-2.53 2.794 0 1.793 1.243 2.827 2.662 2.827zm1.33-3.355h-2.893c.044-.682.572-1.353 1.44-1.353.935 0 1.43.594 1.452 1.353zm3.432 3.2v-2.65c0-1.166.583-1.628 1.452-1.628.143 0 .297.01.45.033v-1.1c-.055-.01-.198-.033-.34-.033-.54 0-1.2.198-1.584 1.012v-.924h-1.012v5.29h1.034zm3.51-6.556a.74.74 0 1 0 0-1.485.74.74 0 0 0-.737.748c0 .407.33.737.737.737zm.517 6.556v-5.29h-1.023v5.29h1.023zm6.127-6.578a.74.74 0 1 0 0-1.485.74.74 0 0 0-.737.748c0 .407.33.737.737.737zm-2.98 6.578v-4.356h2.475V63.8h1.023v-5.29h-3.498v-.847c0-.726.473-.89.836-.89.264 0 .396.044.45.066v-.924c-.044-.033-.264-.1-.616-.1-.957 0-1.738.638-1.738 1.815v.89h-.98v.935h.98V63.8h1.067zm7.49.165c1.232 0 2.08-.737 2.376-1.672l-.89-.308c-.198.594-.627 1.067-1.485 1.067-.89 0-1.573-.66-1.595-1.606h3.982c.01-.066.022-.198.022-.33 0-1.65-.913-2.772-2.54-2.772-1.33 0-2.53 1.133-2.53 2.794 0 1.793 1.243 2.827 2.662 2.827zm1.33-3.355h-2.893c.044-.682.572-1.353 1.44-1.353.935 0 1.43.594 1.452 1.353zm4.466 3.333c.825 0 1.386-.44 1.64-.946v.088c0 .32.033.594.055.715h1a8.37 8.37 0 0 1-.055-.979v-6.985h-1.023v3.42c-.176-.43-.682-.89-1.617-.89-1.496 0-2.508 1.276-2.508 2.772 0 1.573.957 2.805 2.508 2.805zm.1-.913c-1 0-1.55-.803-1.55-1.892s.616-1.86 1.562-1.86 1.518.748 1.518 1.837-.583 1.914-1.53 1.914zm9.284.935c1.375 0 2.134-.89 2.387-1.65l-.913-.396c-.12.418-.484 1.09-1.474 1.09-.858 0-1.617-.65-1.617-1.86 0-1.232.77-1.848 1.606-1.848.902 0 1.287.605 1.42 1.122l.935-.396c-.22-.803-.946-1.683-2.354-1.683-1.507 0-2.662 1.155-2.662 2.805 0 1.606 1.133 2.816 2.673 2.816zm5.863 0c1.584 0 2.706-1.2 2.706-2.816 0-1.606-1.122-2.805-2.706-2.805s-2.706 1.2-2.706 2.805c0 1.617 1.122 2.816 2.706 2.816zm0-.924c-.88 0-1.65-.66-1.65-1.892 0-1.22.77-1.88 1.65-1.88s1.65.66 1.65 1.88c0 1.232-.77 1.892-1.65 1.892zm5.05.76v-3.2c0-.792.495-1.342 1.232-1.342.792 0 1.122.528 1.122 1.2V63.8h1.034v-3.2c0-.76.495-1.33 1.22-1.33.78 0 1.122.517 1.122 1.2V63.8h1.023v-3.432c0-1.386-.902-2.013-1.826-2.013-.67 0-1.353.242-1.77 1-.286-.682-.924-1-1.584-1-.616 0-1.276.275-1.606.858v-.704h-1v5.29h1.023zm9.427 2.1v-2.805c.286.473.902.858 1.716.858 1.55 0 2.464-1.22 2.464-2.794 0-1.54-.847-2.76-2.43-2.76-.858 0-1.485.418-1.77.946v-.825h-1v7.38h1.023zm1.562-2.87c-.946 0-1.573-.78-1.573-1.87 0-1.056.627-1.848 1.573-1.848.968 0 1.562.792 1.562 1.848 0 1.09-.605 1.87-1.562 1.87zm6.204.946c1.584 0 2.706-1.2 2.706-2.816 0-1.606-1.122-2.805-2.706-2.805s-2.706 1.2-2.706 2.805c0 1.617 1.122 2.816 2.706 2.816zm0-.924c-.88 0-1.65-.66-1.65-1.892 0-1.22.77-1.88 1.65-1.88s1.65.66 1.65 1.88c0 1.232-.77 1.892-1.65 1.892zm5.06.76v-3.058c0-.803.418-1.452 1.232-1.452.924 0 1.232.594 1.232 1.33v3.18h1.034v-3.355c0-1.177-.627-2.1-1.892-2.1-.616 0-1.243.253-1.628.913v-.76h-1.012v5.29h1.034zm7.38.165c1.232 0 2.08-.737 2.376-1.672l-.89-.308c-.198.594-.627 1.067-1.485 1.067-.89 0-1.573-.66-1.595-1.606h3.982c.01-.066.022-.198.022-.33 0-1.65-.913-2.772-2.54-2.772-1.33 0-2.53 1.133-2.53 2.794 0 1.793 1.243 2.827 2.662 2.827zm1.33-3.355h-2.893c.044-.682.572-1.353 1.44-1.353.935 0 1.43.594 1.452 1.353zm3.432 3.2v-3.058c0-.803.418-1.452 1.232-1.452.924 0 1.232.594 1.232 1.33v3.18h1.034v-3.355c0-1.177-.627-2.1-1.892-2.1-.616 0-1.243.253-1.628.913v-.76h-1.012v5.29h1.034zm6.974.055c.352 0 .616-.066.704-.1v-.88c-.088.022-.275.044-.407.044-.54 0-.737-.242-.737-.726v-2.75h1.144v-.935h-1.144v-1.672h-.946v.858c0 .462-.242.814-.814.814h-.286v.935h1.012v2.904c0 .957.572 1.507 1.474 1.507zm3.74.1c1.31 0 1.936-.89 1.936-1.64 0-.78-.506-1.364-1.463-1.573l-.858-.187c-.407-.088-.605-.32-.605-.638 0-.363.352-.704.88-.704.836 0 1.056.605 1.1.88l.913-.34c-.1-.473-.56-1.42-2.013-1.42-1.034 0-1.88.77-1.88 1.672 0 .748.495 1.31 1.32 1.485l.902.198c.44.1.682.352.682.682 0 .374-.32.704-.902.704-.748 0-1.166-.44-1.232-1l-.935.33c.088.605.704 1.54 2.156 1.54z" class="G"/></g></g><g transform="translate(342 408)"><g class="B"><use filter="url(#U)" xlink:href="#X" class="D"/><use xlink:href="#X" class="E"/><rect fill="#f4f2ff" x="26" y="26" width="48" height="48" rx="16"/></g><path d="M55.45 47.98H51.37l2.642-6.885c.04-.115-.027-.24-.15-.276-.02-.006-.042-.01-.064-.01h-5.66c-.108-.004-.205.06-.236.155l-3.066 9.374c-.038.116.032.238.157.273.025.007.052.01.08.01h3.75l-1.61 8.013c-.024.12.06.233.19.255.09.016.183-.02.236-.09l8-10.48c.07-.102.04-.237-.07-.302-.035-.02-.076-.033-.118-.035" fill="#5d4aec"/><g class="B"><path d="M98.184 45.384v-3.152h3.008v-1.264h-3.008v-3.12h-1.312v3.12H93.88v1.264h2.992v3.152h1.312zm7.152.816c.496-5.488 3.424-8.096 4.384-8.864v-1.504h-7.568v1.44h5.84s-3.808 2.896-4.272 8.928h1.616zm12.288 0v-1.456h-5.328c.144-.64.672-1.072 1.264-1.456l2.048-1.312c1.184-.752 1.952-1.84 1.952-3.2 0-1.728-1.28-3.184-3.504-3.184-2.272 0-3.584 1.584-3.584 3.36l.016.416 1.568.192-.032-.464c0-1.184.64-2.128 2-2.128 1.312 0 1.952.88 1.952 1.824 0 .8-.448 1.536-1.424 2.16l-1.728 1.12c-1.76 1.136-2.432 2.432-2.464 4.128h7.264zm4.08-5.44c1.376 0 2.576-1.104 2.576-2.528 0-1.408-1.2-2.512-2.576-2.512s-2.56 1.104-2.56 2.512c0 1.424 1.184 2.528 2.56 2.528zm.192 5.44l7.424-10.368h-1.44L120.424 46.2h1.472zm-.192-6.704c-.688 0-1.232-.528-1.232-1.264 0-.72.544-1.248 1.232-1.248.704 0 1.232.528 1.232 1.248 0 .736-.528 1.264-1.232 1.264zm6.336 6.832c1.376 0 2.576-1.104 2.576-2.528 0-1.408-1.2-2.512-2.576-2.512s-2.56 1.104-2.56 2.512c0 1.424 1.184 2.528 2.56 2.528zm0-1.264c-.688 0-1.232-.528-1.232-1.264 0-.72.544-1.248 1.232-1.248.704 0 1.232.528 1.232 1.248 0 .736-.528 1.264-1.232 1.264z" class="F"/><path d="M97.314 63.8l3.003-7.8h-1.133l-2.376 6.413L94.454 56H93.3l2.937 7.8h1.067zm6.226.165c1.232 0 2.08-.737 2.376-1.672l-.89-.308c-.198.594-.627 1.067-1.485 1.067-.89 0-1.573-.66-1.595-1.606h3.982c.01-.066.022-.198.022-.33 0-1.65-.913-2.772-2.54-2.772-1.33 0-2.53 1.133-2.53 2.794 0 1.793 1.243 2.827 2.662 2.827zm1.33-3.355h-2.893c.044-.682.572-1.353 1.44-1.353.935 0 1.43.594 1.452 1.353zm3.432 3.2v-2.65c0-1.166.583-1.628 1.452-1.628.143 0 .297.01.45.033v-1.1c-.055-.01-.198-.033-.34-.033-.54 0-1.2.198-1.584 1.012v-.924h-1.012v5.29h1.034zm4.664.165c1.31 0 1.936-.89 1.936-1.64 0-.78-.506-1.364-1.463-1.573l-.858-.187c-.407-.088-.605-.32-.605-.638 0-.363.352-.704.88-.704.836 0 1.056.605 1.1.88l.913-.34c-.1-.473-.56-1.42-2.013-1.42-1.034 0-1.88.77-1.88 1.672 0 .748.495 1.31 1.32 1.485l.902.198c.44.1.682.352.682.682 0 .374-.32.704-.902.704-.748 0-1.166-.44-1.232-1l-.935.33c.088.605.704 1.54 2.156 1.54zm3.817-6.72a.74.74 0 1 0 0-1.485.74.74 0 0 0-.737.748c0 .407.33.737.737.737zm.517 6.556v-5.29h-1.023v5.29h1.023zm4.026.165c1.584 0 2.706-1.2 2.706-2.816 0-1.606-1.122-2.805-2.706-2.805s-2.706 1.2-2.706 2.805c0 1.617 1.122 2.816 2.706 2.816zm0-.924c-.88 0-1.65-.66-1.65-1.892 0-1.22.77-1.88 1.65-1.88s1.65.66 1.65 1.88c0 1.232-.77 1.892-1.65 1.892zm5.06.76v-3.058c0-.803.418-1.452 1.232-1.452.924 0 1.232.594 1.232 1.33v3.18h1.034v-3.355c0-1.177-.627-2.1-1.892-2.1-.616 0-1.243.253-1.628.913v-.76h-1.012v5.29h1.034zm9.823.165c.616 0 1.276-.253 1.562-.803 0 .22.022.517.044.638h1a8.9 8.9 0 0 1-.055-.979V58.51h-1.034v3.2c0 .803-.418 1.353-1.254 1.353-.87 0-1.2-.638-1.2-1.364v-3.18h-1.034v3.333c0 1.2.748 2.123 1.98 2.123zm5.324 1.925v-2.805c.286.473.902.858 1.716.858 1.55 0 2.464-1.22 2.464-2.794 0-1.54-.847-2.76-2.43-2.76-.858 0-1.485.418-1.77.946v-.825h-1v7.38h1.023zm1.562-2.87c-.946 0-1.573-.78-1.573-1.87 0-1.056.627-1.848 1.573-1.848.968 0 1.562.792 1.562 1.848 0 1.09-.605 1.87-1.562 1.87zm6.006.924c.825 0 1.386-.44 1.64-.946v.088c0 .32.033.594.055.715h1a8.37 8.37 0 0 1-.055-.979v-6.985h-1.023v3.42c-.176-.43-.682-.89-1.617-.89-1.496 0-2.508 1.276-2.508 2.772 0 1.573.957 2.805 2.508 2.805zm.1-.913c-1 0-1.55-.803-1.55-1.892s.616-1.86 1.562-1.86 1.518.748 1.518 1.837-.583 1.914-1.53 1.914zm5.742.935c.946 0 1.474-.506 1.705-.88 0 .385.033.583.055.715h1.012c-.022-.132-.066-.407-.066-.87v-2.65c0-1.034-.616-1.936-2.2-1.936-1.144 0-2.057.704-2.167 1.716l1 .23c.066-.616.473-1.067 1.2-1.067.803 0 1.144.43 1.144.946 0 .187-.088.352-.407.396l-1.43.21c-.913.132-1.606.66-1.606 1.606 0 .836.693 1.584 1.77 1.584zm.143-.87c-.528 0-.858-.374-.858-.77 0-.473.33-.726.77-.792l1.617-.242v.242c0 1.155-.682 1.562-1.53 1.562zm5.995.76c.352 0 .616-.066.704-.1v-.88c-.088.022-.275.044-.407.044-.54 0-.737-.242-.737-.726v-2.75h1.144v-.935h-1.144v-1.672h-.946v.858c0 .462-.242.814-.814.814h-.286v.935h1.012v2.904c0 .957.572 1.507 1.474 1.507zm4.312.1c1.232 0 2.08-.737 2.376-1.672l-.89-.308c-.198.594-.627 1.067-1.485 1.067-.89 0-1.573-.66-1.595-1.606h3.982c.01-.066.022-.198.022-.33 0-1.65-.913-2.772-2.54-2.772-1.33 0-2.53 1.133-2.53 2.794 0 1.793 1.243 2.827 2.662 2.827zm1.33-3.355h-2.893c.044-.682.572-1.353 1.44-1.353.935 0 1.43.594 1.452 1.353zm4.06 3.355c1.31 0 1.936-.89 1.936-1.64 0-.78-.506-1.364-1.463-1.573l-.858-.187c-.407-.088-.605-.32-.605-.638 0-.363.352-.704.88-.704.836 0 1.056.605 1.1.88l.913-.34c-.1-.473-.56-1.42-2.013-1.42-1.034 0-1.88.77-1.88 1.672 0 .748.495 1.31 1.32 1.485l.902.198c.44.1.682.352.682.682 0 .374-.32.704-.902.704-.748 0-1.166-.44-1.232-1l-.935.33c.088.605.704 1.54 2.156 1.54z" class="G"/></g></g><g transform="translate(236 596)"><g class="B"><use filter="url(#Z)" xlink:href="#Y" class="D"/><use xlink:href="#Y" class="E"/></g><rect fill="#eefaf3" x="26" y="26" width="48" height="48" rx="16"/><g class="B"><path d="M49.9 39.483A10.42 10.42 0 0 1 60.317 49.9 10.42 10.42 0 0 1 49.9 60.317 10.42 10.42 0 0 1 39.483 49.9 10.42 10.42 0 0 1 49.9 39.483zm1.042 4.152h-2.083v6.703l4.782 4.663 1.455-1.49-4.153-4.05v-5.825z" fill="#1ecb6a"/><path d="M98.184 45.384v-3.152h3.008v-1.264h-3.008v-3.12h-1.312v3.12H93.88v1.264h2.992v3.152h1.312zm8.336 1.072c2.416 0 3.76-1.584 3.76-3.328 0-2.128-1.68-3.152-3.2-3.152l2.96-2.736v-1.408H103v1.44h4.96l-3.056 2.816.768 1.296c.272-.096.592-.16.912-.16 1.024 0 2.112.576 2.112 1.936 0 1.04-.768 1.92-2.192 1.92-1.248 0-2.24-.864-2.304-2.24l-1.536.352c.096 1.696 1.456 3.264 3.856 3.264zm12.224-.256v-1.456h-5.328c.144-.64.672-1.072 1.264-1.456l2.048-1.312c1.184-.752 1.952-1.84 1.952-3.2 0-1.728-1.28-3.184-3.504-3.184-2.272 0-3.584 1.584-3.584 3.36l.016.416 1.568.192-.032-.464c0-1.184.64-2.128 2-2.128 1.312 0 1.952.88 1.952 1.824 0 .8-.448 1.536-1.424 2.16l-1.728 1.12c-1.76 1.136-2.432 2.432-2.464 4.128h7.264zm4.08-5.44c1.376 0 2.576-1.104 2.576-2.528 0-1.408-1.2-2.512-2.576-2.512s-2.56 1.104-2.56 2.512c0 1.424 1.184 2.528 2.56 2.528zm.192 5.44l7.424-10.368H129L121.544 46.2h1.472zm-.192-6.704c-.688 0-1.232-.528-1.232-1.264 0-.72.544-1.248 1.232-1.248.704 0 1.232.528 1.232 1.248 0 .736-.528 1.264-1.232 1.264zm6.336 6.832c1.376 0 2.576-1.104 2.576-2.528 0-1.408-1.2-2.512-2.576-2.512s-2.56 1.104-2.56 2.512c0 1.424 1.184 2.528 2.56 2.528zm0-1.264c-.688 0-1.232-.528-1.232-1.264 0-.72.544-1.248 1.232-1.248.704 0 1.232.528 1.232 1.248 0 .736-.528 1.264-1.232 1.264z" class="F"/><path d="M95.268 63.8v-3.2h1.76c1.44 0 2.41-.98 2.41-2.3 0-1.31-.968-2.3-2.41-2.3H94.2v7.8h1.078zm1.562-4.158h-1.562V56.97h1.562c.935 0 1.507.528 1.507 1.353 0 .803-.572 1.32-1.507 1.32zm6.05 4.323c1.232 0 2.08-.737 2.376-1.672l-.89-.308c-.198.594-.627 1.067-1.485 1.067-.89 0-1.573-.66-1.595-1.606h3.982c.01-.066.022-.198.022-.33 0-1.65-.913-2.772-2.54-2.772-1.33 0-2.53 1.133-2.53 2.794 0 1.793 1.243 2.827 2.662 2.827zm1.33-3.355h-2.893c.044-.682.572-1.353 1.44-1.353.935 0 1.43.594 1.452 1.353zm3.432 3.2v-2.65c0-1.166.583-1.628 1.452-1.628.143 0 .297.01.45.033v-1.1c-.055-.01-.198-.033-.34-.033-.54 0-1.2.198-1.584 1.012v-.924h-1.012v5.29h1.034zm4.39 0v-4.356h1.276v-.935h-1.276v-.836c0-.726.473-.902.836-.902.264 0 .396.044.45.066v-.924c-.044-.033-.264-.1-.616-.1-.957 0-1.738.638-1.738 1.815v.89h-.98v.935h.98V63.8h1.067zm4.653.165c1.584 0 2.706-1.2 2.706-2.816 0-1.606-1.122-2.805-2.706-2.805s-2.706 1.2-2.706 2.805c0 1.617 1.122 2.816 2.706 2.816zm0-.924c-.88 0-1.65-.66-1.65-1.892 0-1.22.77-1.88 1.65-1.88s1.65.66 1.65 1.88c0 1.232-.77 1.892-1.65 1.892zm5.06.76v-2.65c0-1.166.583-1.628 1.452-1.628.143 0 .297.01.45.033v-1.1c-.055-.01-.198-.033-.34-.033-.54 0-1.2.198-1.584 1.012v-.924h-1.012v5.29h1.034zm4.026 0v-3.2c0-.792.495-1.342 1.232-1.342.792 0 1.122.528 1.122 1.2V63.8h1.034v-3.2c0-.76.495-1.33 1.22-1.33.78 0 1.122.517 1.122 1.2V63.8h1.023v-3.432c0-1.386-.902-2.013-1.826-2.013-.67 0-1.353.242-1.77 1-.286-.682-.924-1-1.584-1-.616 0-1.276.275-1.606.858v-.704h-1v5.29h1.023zm9.845.165c.946 0 1.474-.506 1.705-.88 0 .385.033.583.055.715h1.012c-.022-.132-.066-.407-.066-.87v-2.65c0-1.034-.616-1.936-2.2-1.936-1.144 0-2.057.704-2.167 1.716l1 .23c.066-.616.473-1.067 1.2-1.067.803 0 1.144.43 1.144.946 0 .187-.088.352-.407.396l-1.43.21c-.913.132-1.606.66-1.606 1.606 0 .836.693 1.584 1.77 1.584zm.143-.87c-.528 0-.858-.374-.858-.77 0-.473.33-.726.77-.792l1.617-.242v.242c0 1.155-.682 1.562-1.53 1.562zm5.203.704v-3.058c0-.803.418-1.452 1.232-1.452.924 0 1.232.594 1.232 1.33v3.18h1.034v-3.355c0-1.177-.627-2.1-1.892-2.1-.616 0-1.243.253-1.628.913v-.76h-1.012v5.29h1.034zm7.38.165c1.375 0 2.134-.89 2.387-1.65l-.913-.396c-.12.418-.484 1.09-1.474 1.09-.858 0-1.617-.65-1.617-1.86 0-1.232.77-1.848 1.606-1.848.902 0 1.287.605 1.42 1.122l.935-.396c-.22-.803-.946-1.683-2.354-1.683-1.507 0-2.662 1.155-2.662 2.805 0 1.606 1.133 2.816 2.673 2.816zm5.83 0c1.232 0 2.08-.737 2.376-1.672l-.89-.308c-.198.594-.627 1.067-1.485 1.067-.89 0-1.573-.66-1.595-1.606h3.982c.01-.066.022-.198.022-.33 0-1.65-.913-2.772-2.54-2.772-1.33 0-2.53 1.133-2.53 2.794 0 1.793 1.243 2.827 2.662 2.827zm1.33-3.355h-2.893c.044-.682.572-1.353 1.44-1.353.935 0 1.43.594 1.452 1.353zm5.654-3.366a.74.74 0 1 0 0-1.485.74.74 0 0 0-.737.748c0 .407.33.737.737.737zm.517 6.556v-5.29h-1.023v5.29h1.023zm2.783 0v-3.2c0-.792.495-1.342 1.232-1.342.792 0 1.122.528 1.122 1.2V63.8h1.034v-3.2c0-.76.495-1.33 1.22-1.33.78 0 1.122.517 1.122 1.2V63.8h1.023v-3.432c0-1.386-.902-2.013-1.826-2.013-.67 0-1.353.242-1.77 1-.286-.682-.924-1-1.584-1-.616 0-1.276.275-1.606.858v-.704h-1v5.29h1.023zm9.427 2.1v-2.805c.286.473.902.858 1.716.858 1.55 0 2.464-1.22 2.464-2.794 0-1.54-.847-2.76-2.43-2.76-.858 0-1.485.418-1.77.946v-.825h-1v7.38h1.023zm1.562-2.87c-.946 0-1.573-.78-1.573-1.87 0-1.056.627-1.848 1.573-1.848.968 0 1.562.792 1.562 1.848 0 1.09-.605 1.87-1.562 1.87zm4.972.78v-2.65c0-1.166.583-1.628 1.452-1.628.143 0 .297.01.45.033v-1.1c-.055-.01-.198-.033-.34-.033-.54 0-1.2.198-1.584 1.012v-.924h-1.012v5.29h1.034zm5.27.165c1.584 0 2.706-1.2 2.706-2.816 0-1.606-1.122-2.805-2.706-2.805s-2.706 1.2-2.706 2.805c0 1.617 1.122 2.816 2.706 2.816zm0-.924c-.88 0-1.65-.66-1.65-1.892 0-1.22.77-1.88 1.65-1.88s1.65.66 1.65 1.88c0 1.232-.77 1.892-1.65 1.892zm6.446.76l2.112-5.29h-1.11l-1.518 4.08-1.507-4.08h-1.166l2.145 5.29h1.045zm5.335.165c1.232 0 2.08-.737 2.376-1.672l-.89-.308c-.198.594-.627 1.067-1.485 1.067-.89 0-1.573-.66-1.595-1.606h3.982c.01-.066.022-.198.022-.33 0-1.65-.913-2.772-2.54-2.772-1.33 0-2.53 1.133-2.53 2.794 0 1.793 1.243 2.827 2.662 2.827zm1.33-3.355h-2.893c.044-.682.572-1.353 1.44-1.353.935 0 1.43.594 1.452 1.353zm3.42 3.2v-3.2c0-.792.495-1.342 1.232-1.342.792 0 1.122.528 1.122 1.2V63.8h1.034v-3.2c0-.76.495-1.33 1.22-1.33.78 0 1.122.517 1.122 1.2V63.8h1.023v-3.432c0-1.386-.902-2.013-1.826-2.013-.67 0-1.353.242-1.77 1-.286-.682-.924-1-1.584-1-.616 0-1.276.275-1.606.858v-.704h-1v5.29h1.023zm10.637.165c1.232 0 2.08-.737 2.376-1.672l-.89-.308c-.198.594-.627 1.067-1.485 1.067-.89 0-1.573-.66-1.595-1.606h3.982c.01-.066.022-.198.022-.33 0-1.65-.913-2.772-2.54-2.772-1.33 0-2.53 1.133-2.53 2.794 0 1.793 1.243 2.827 2.662 2.827zm1.33-3.355h-2.893c.044-.682.572-1.353 1.44-1.353.935 0 1.43.594 1.452 1.353zm3.432 3.2v-3.058c0-.803.418-1.452 1.232-1.452.924 0 1.232.594 1.232 1.33v3.18h1.034v-3.355c0-1.177-.627-2.1-1.892-2.1-.616 0-1.243.253-1.628.913v-.76h-1.012v5.29h1.034zm6.974.055c.352 0 .616-.066.704-.1v-.88c-.088.022-.275.044-.407.044-.54 0-.737-.242-.737-.726v-2.75h1.144v-.935h-1.144v-1.672h-.946v.858c0 .462-.242.814-.814.814h-.286v.935h1.012v2.904c0 .957.572 1.507 1.474 1.507z" class="G"/></g></g></g></svg>